{"glyphs":{"0":{"ha":1040,"x_min":153,"x_max":889,"o":"m 497 -14 q 195 138 259 -14 q 154 373 157 227 q 153 518 153 441 l 153 559 q 168 812 153 741 q 205 925 182 883 q 266 994 228 966 q 497 1051 342 1051 l 539 1051 q 783 996 704 1051 q 887 707 880 926 q 889 559 889 640 l 889 518 q 877 257 889 330 q 842 136 864 184 q 781 56 821 89 q 539 -14 701 -14 l 497 -14 m 538 87 q 656 104 611 87 q 727 161 701 120 q 761 271 752 201 q 770 447 770 340 l 770 559 q 766 736 770 663 q 740 857 762 810 q 673 926 719 904 q 546 948 628 948 l 489 948 q 302 856 342 948 q 274 712 277 797 q 271 559 271 627 l 271 447 q 315 167 271 241 q 497 87 362 87 l 538 87 z "},"1":{"ha":582,"x_min":72,"x_max":361,"o":"m 245 941 l 81 921 l 72 1015 l 361 1051 l 361 0 l 245 0 l 245 941 z "},"2":{"ha":811,"x_min":91,"x_max":684,"o":"m 546 808 q 387 953 546 953 q 201 906 303 953 q 150 878 172 892 l 105 972 q 317 1046 177 1027 q 412 1052 357 1052 q 521 1035 467 1052 q 608 986 574 1017 q 671 821 671 928 q 585 556 671 700 q 414 316 513 439 l 235 99 l 684 99 l 684 0 l 99 0 l 91 87 q 195 206 142 142 q 459 559 374 431 q 546 808 546 695 z "},"3":{"ha":810,"x_min":66,"x_max":684,"o":"m 684 311 l 683 282 q 578 49 678 122 q 347 -14 493 -14 q 66 41 189 -14 l 99 142 q 382 85 239 85 q 559 297 559 85 l 559 309 q 434 497 559 481 q 359 502 397 502 q 286 500 321 502 l 219 496 l 210 584 q 427 680 338 616 q 521 822 522 750 q 482 925 520 895 q 357 954 444 955 q 134 898 241 954 l 99 998 q 368 1051 205 1048 q 574 993 501 1053 q 642 840 641 937 q 494 623 644 696 q 399 583 449 601 l 401 576 q 623 516 560 579 q 684 311 684 456 z "},"4":{"ha":926,"x_min":96,"x_max":816,"o":"m 96 338 l 510 1038 l 698 1038 l 698 357 l 816 357 l 816 269 l 698 259 l 698 0 l 584 0 l 584 259 l 96 259 l 96 338 m 584 357 l 583 955 l 235 357 l 584 357 z "},"5":{"ha":811,"x_min":80,"x_max":693,"o":"m 113 140 q 391 84 251 84 q 537 151 496 84 q 575 347 575 210 q 536 518 575 468 q 393 570 494 570 q 286 563 345 570 q 152 547 227 555 l 152 1038 l 665 1038 l 665 939 l 262 939 l 262 644 l 339 656 q 445 663 379 663 q 560 641 511 663 q 639 582 610 620 q 693 372 690 514 l 693 338 q 612 64 693 146 q 366 -14 534 -14 q 80 40 209 -14 l 113 140 z "},"6":{"ha":926,"x_min":148,"x_max":804,"o":"m 732 906 q 479 954 614 954 q 383 944 424 954 q 315 902 342 934 q 264 650 262 837 l 265 577 q 458 648 344 630 q 549 654 498 654 q 643 644 600 654 q 716 614 686 633 q 763 569 745 595 q 789 510 781 543 q 804 363 804 458 l 804 300 q 753 90 804 163 q 489 -14 680 -14 q 226 60 305 -14 q 148 294 148 132 l 148 652 q 163 827 149 752 q 217 952 177 902 q 511 1051 296 1051 q 727 1025 638 1051 q 766 1010 753 1018 l 732 906 m 265 328 q 298 146 265 193 q 463 87 338 87 l 501 87 q 652 137 613 87 q 687 300 687 181 l 687 339 q 656 513 687 473 q 609 544 640 536 q 531 552 578 552 l 512 552 q 265 491 372 552 l 265 328 z "},"7":{"ha":694,"x_min":53,"x_max":640,"o":"m 640 947 q 263 0 437 543 l 144 0 q 299 433 227 253 l 420 723 l 519 939 l 53 939 l 53 1038 l 640 1038 l 640 947 z "},"8":{"ha":926,"x_min":138,"x_max":792,"o":"m 138 298 q 247 500 138 429 q 351 549 288 528 q 161 724 189 600 q 152 810 152 764 l 152 819 q 241 1000 152 942 q 466 1051 321 1051 l 475 1051 q 699 1001 629 1051 q 774 821 774 947 l 774 810 q 668 605 774 673 q 583 562 632 581 q 743 460 696 522 q 792 290 792 397 l 792 251 q 585 -4 792 29 q 455 -14 524 -14 q 328 -3 386 -14 q 228 35 270 7 q 138 251 138 98 l 138 298 m 475 604 q 631 693 591 642 q 666 821 666 738 q 613 930 666 901 q 493 954 570 954 q 378 949 416 954 q 313 928 339 943 q 260 807 260 895 q 305 682 260 721 q 475 604 343 648 m 251 252 q 363 92 251 115 q 441 85 398 85 l 488 85 q 626 117 583 85 q 678 252 678 155 l 678 296 q 627 426 678 381 q 463 505 581 467 q 293 422 336 465 q 251 296 251 379 l 251 252 z "},"9":{"ha":926,"x_min":121,"x_max":778,"o":"m 193 136 q 446 84 319 84 q 544 94 503 84 q 612 136 585 104 q 661 388 663 197 l 661 460 q 387 383 543 383 q 163 469 220 383 q 124 597 130 518 q 121 674 121 634 l 121 738 q 172 947 121 874 q 437 1051 245 1051 q 700 978 621 1051 q 778 744 778 905 l 778 386 q 763 211 777 286 q 711 85 749 136 q 428 -14 635 -14 q 201 20 301 -14 q 160 37 174 29 l 193 136 m 414 485 q 614 524 517 485 q 661 546 641 534 l 661 710 q 628 892 661 844 q 463 951 588 951 l 425 951 q 273 901 313 951 q 239 737 239 857 l 239 698 q 269 524 239 564 q 316 493 286 501 q 395 485 347 485 l 414 485 z "},"\u0001":{"ha":0,"x_min":0,"x_max":0,"o":""},"\u0002":{"ha":0,"x_min":0,"x_max":0,"o":""},"\u0003":{"ha":0,"x_min":0,"x_max":0,"o":""},"\u0004":{"ha":0,"x_min":0,"x_max":0,"o":""},"\u0005":{"ha":0,"x_min":0,"x_max":0,"o":""},"\u0006":{"ha":0,"x_min":0,"x_max":0,"o":""},"\u0007":{"ha":0,"x_min":0,"x_max":0,"o":""},"\b":{"ha":0,"x_min":0,"x_max":0,"o":""},"\t":{"ha":0,"x_min":0,"x_max":0,"o":""},"\u0010":{"ha":0,"x_min":0,"x_max":0,"o":""},"\u0011":{"ha":0,"x_min":0,"x_max":0,"o":""},"\u0012":{"ha":0,"x_min":0,"x_max":0,"o":""},"\u0013":{"ha":0,"x_min":0,"x_max":0,"o":""},"\u0014":{"ha":0,"x_min":0,"x_max":0,"o":""},"\u0015":{"ha":0,"x_min":0,"x_max":0,"o":""},"\u0016":{"ha":0,"x_min":0,"x_max":0,"o":""},"\u0017":{"ha":0,"x_min":0,"x_max":0,"o":""},"\u0018":{"ha":0,"x_min":0,"x_max":0,"o":""},"\u0019":{"ha":0,"x_min":0,"x_max":0,"o":""}," ":{"ha":347,"x_min":0,"x_max":0,"o":""},"!":{"ha":347,"x_min":100,"x_max":258,"o":"m 111 1038 l 239 1038 l 222 279 l 134 279 l 111 1038 m 120 1 q 113 8 120 1 q 104 32 107 15 q 100 76 100 50 q 104 120 100 103 q 117 146 108 137 q 168 164 133 164 q 219 160 203 164 q 243 146 234 157 q 258 77 258 130 q 246 9 258 24 q 180 -13 227 -13 q 120 1 132 -13 z "},"\"":{"ha":696,"x_min":144,"x_max":551,"o":"m 144 1224 l 271 1224 l 256 809 l 159 809 l 144 1224 m 425 1224 l 551 1224 l 536 809 l 439 809 l 425 1224 z "},"#":{"ha":1039,"x_min":90,"x_max":948,"o":"m 241 265 l 90 265 l 90 344 l 261 344 l 335 635 l 164 635 l 164 713 l 355 713 l 417 959 l 513 959 l 451 713 l 707 713 l 769 959 l 865 959 l 802 713 l 948 713 l 948 635 l 782 635 l 708 344 l 874 344 l 874 265 l 688 265 l 629 33 l 534 33 l 593 265 l 337 265 l 278 33 l 182 33 l 241 265 m 613 344 l 687 635 l 431 635 l 357 344 l 613 344 z "},"$":{"ha":810,"x_min":58,"x_max":732,"o":"m 662 898 q 422 955 530 955 l 416 955 q 239 908 288 955 q 199 772 199 869 l 199 769 q 260 631 199 665 q 409 591 302 608 q 568 563 515 574 q 656 524 620 551 q 732 307 732 467 l 732 291 q 568 23 732 79 q 456 1 517 6 l 456 -183 l 354 -183 l 354 1 q 58 82 174 12 l 102 177 q 404 96 256 96 q 604 205 574 96 q 613 288 613 241 l 613 307 q 606 384 613 355 q 578 431 600 413 q 411 482 543 462 q 249 517 294 500 q 175 552 204 533 q 126 601 146 572 q 84 752 84 662 q 102 895 84 843 q 155 979 121 946 q 354 1050 221 1041 l 354 1220 l 456 1220 l 456 1050 q 697 1001 599 1044 l 662 898 z "},"%":{"ha":1272,"x_min":47,"x_max":1222,"o":"m 280 524 q 165 538 211 524 q 94 585 120 553 q 47 785 47 640 q 95 986 47 930 q 289 1048 148 1048 q 477 986 429 1048 q 519 789 519 933 q 468 583 519 642 q 280 524 416 524 m 865 1038 l 975 1038 l 391 0 l 283 0 l 865 1038 m 176 644 q 183 633 176 644 q 216 613 191 622 q 282 605 242 605 q 347 613 321 605 q 387 643 372 621 q 413 799 413 683 q 388 932 413 897 q 288 967 363 967 q 178 932 207 967 q 151 819 151 897 q 156 703 151 740 q 176 644 161 665 m 750 249 q 798 450 750 395 q 992 512 851 512 q 1180 450 1132 512 q 1222 253 1222 397 q 1172 47 1222 106 q 985 -12 1119 -12 q 797 49 848 -12 q 750 249 750 104 m 854 258 q 859 167 854 204 q 879 108 865 130 q 986 69 905 69 q 1089 107 1064 69 q 1116 262 1116 147 q 1092 396 1116 361 q 991 431 1066 431 q 882 396 910 431 q 854 258 854 361 z "},"&":{"ha":1155,"x_min":157,"x_max":1043,"o":"m 718 86 q 424 -13 591 -13 q 231 45 295 -13 q 157 260 157 113 q 197 458 157 394 q 321 551 231 512 q 239 611 262 581 q 193 779 193 673 q 504 1050 193 1050 q 775 1000 652 1050 l 739 901 q 574 951 674 935 q 492 958 537 958 q 411 950 448 958 q 351 922 374 943 q 308 764 308 884 q 416 594 308 626 q 485 585 449 585 l 703 585 l 732 764 l 811 764 l 811 585 l 1010 585 q 1013 541 1013 566 q 1010 497 1013 516 l 811 497 l 811 208 q 819 109 811 127 q 838 85 826 91 q 872 79 850 79 q 1011 115 937 79 l 1043 35 q 849 -13 960 -13 q 759 14 791 -13 q 718 86 726 41 m 349 473 q 330 460 349 473 q 293 408 312 448 q 275 303 275 368 q 281 195 275 237 q 307 127 288 153 q 439 77 341 77 q 703 172 591 77 l 703 497 l 483 497 q 349 473 386 497 z "},"'":{"ha":348,"x_min":111,"x_max":237,"o":"m 111 1224 l 237 1224 l 222 809 l 125 809 l 111 1224 z "},"(":{"ha":577,"x_min":133,"x_max":441,"o":"m 430 1259 q 249 715 286 1029 q 366 -25 199 290 q 441 -143 397 -85 l 370 -196 q 221 42 288 -114 q 133 511 133 250 q 260 1152 133 881 q 355 1309 302 1242 l 430 1259 z "},")":{"ha":578,"x_min":134,"x_max":441,"o":"m 144 -146 q 326 397 288 83 q 209 1138 376 823 q 134 1256 177 1198 l 205 1309 q 353 1071 287 1227 q 441 602 441 863 q 315 -39 441 232 q 220 -196 273 -130 l 144 -146 z "},"*":{"ha":810,"x_min":74,"x_max":737,"o":"m 191 646 l 340 869 l 74 854 l 74 962 l 340 944 l 183 1164 l 286 1221 l 404 982 l 524 1225 l 620 1168 l 471 943 l 737 961 l 737 852 l 471 868 l 622 651 l 526 594 l 407 831 l 288 589 l 191 646 z "},"+":{"ha":1040,"x_min":122,"x_max":916,"o":"m 122 547 l 471 547 l 471 895 l 567 895 l 567 547 l 916 547 l 916 456 l 567 456 l 567 94 l 471 94 l 471 456 l 122 456 l 122 547 z "},",":{"ha":347,"x_min":55,"x_max":239,"o":"m 138 163 q 168 164 154 164 l 195 164 q 227 158 215 164 q 239 140 239 153 q 233 100 239 123 l 144 -255 l 55 -255 l 116 161 l 138 163 z "},"-":{"ha":696,"x_min":120,"x_max":575,"o":"m 120 484 l 575 484 l 575 385 l 120 385 l 120 484 z "},".":{"ha":347,"x_min":94,"x_max":252,"o":"m 114 1 q 107 8 114 1 q 98 32 101 15 q 94 76 94 50 q 98 120 94 103 q 111 146 102 137 q 162 164 127 164 q 213 160 197 164 q 237 146 228 157 q 252 77 252 130 q 240 9 252 24 q 174 -13 221 -13 q 114 1 126 -13 z "},"/":{"ha":579,"x_min":7,"x_max":568,"o":"m 467 1238 l 568 1238 l 105 -77 l 7 -77 l 467 1238 z "},":":{"ha":347,"x_min":95,"x_max":249,"o":"m 172 551 q 114 565 126 551 q 95 625 95 586 q 99 680 95 664 q 111 706 102 696 q 162 723 128 723 q 210 719 195 723 q 233 706 224 715 q 249 638 249 689 q 237 573 249 587 q 172 551 217 551 m 114 0 q 108 7 114 0 q 98 31 102 14 q 95 73 95 47 q 99 116 95 99 q 111 142 102 132 q 162 159 128 159 q 210 155 195 159 q 233 142 224 151 q 249 86 249 125 q 245 31 249 48 q 233 4 242 14 q 172 -13 218 -13 q 114 0 126 -13 z "},";":{"ha":347,"x_min":55,"x_max":251,"o":"m 174 551 q 116 565 128 551 q 97 625 97 586 q 101 680 97 664 q 114 706 104 696 q 164 723 130 723 q 212 719 197 723 q 235 706 227 715 q 251 638 251 689 q 239 573 251 587 q 174 551 219 551 m 138 163 q 168 164 154 164 l 195 164 q 227 158 215 164 q 239 140 239 153 q 233 100 239 123 l 144 -255 l 55 -255 l 116 161 l 138 163 z "},"<":{"ha":932,"x_min":109,"x_max":768,"o":"m 768 726 l 216 430 l 768 147 l 728 65 l 109 385 l 109 478 l 728 810 l 768 726 z "},"=":{"ha":925,"x_min":128,"x_max":795,"o":"m 128 635 l 795 635 l 795 547 l 128 547 l 128 635 m 128 369 l 795 369 l 795 280 l 128 280 l 128 369 z "},">":{"ha":932,"x_min":149,"x_max":809,"o":"m 149 149 l 702 445 l 149 728 l 189 810 l 809 490 l 809 397 l 190 65 l 149 149 z "},"?":{"ha":694,"x_min":136,"x_max":596,"o":"m 229 382 q 250 446 224 420 l 422 623 q 471 690 463 667 q 481 753 481 720 q 481 800 481 785 q 477 825 480 815 q 459 853 473 844 q 419 874 446 863 q 349 898 391 885 q 136 942 250 928 l 159 1057 q 491 965 360 1029 q 588 868 572 924 q 596 792 596 839 q 593 719 596 745 q 584 671 591 693 q 564 630 576 650 q 531 587 551 610 q 482 538 511 565 l 341 410 l 326 279 l 243 279 l 229 382 m 228 1 q 222 8 228 1 q 212 32 216 15 q 209 76 209 50 q 213 120 209 103 q 225 146 216 137 q 277 164 241 164 q 327 160 312 164 q 351 146 342 157 q 367 77 367 130 q 355 9 367 24 q 288 -13 336 -13 q 228 1 241 -13 z "},"@":{"ha":1273,"x_min":149,"x_max":1176,"o":"m 1137 5 l 1176 -86 q 792 -189 1022 -165 q 677 -195 728 -195 q 264 -54 385 -195 q 149 411 149 83 q 288 898 149 764 q 519 1003 375 982 q 673 1013 590 1013 q 828 1004 756 1013 q 952 967 900 996 q 1065 735 1065 905 l 1065 435 q 1078 138 1065 285 l 982 130 l 964 231 q 661 119 822 119 q 422 414 422 119 q 568 682 422 643 q 661 694 611 694 q 957 639 813 694 l 957 735 q 891 883 957 844 q 659 920 829 920 q 444 885 522 920 q 265 601 300 821 q 252 401 252 521 q 274 184 252 281 q 345 23 296 87 q 665 -104 442 -104 q 1137 5 888 -104 m 954 555 q 677 595 805 595 q 557 541 587 595 q 537 408 537 502 q 571 268 537 314 q 685 221 605 221 q 958 319 831 221 q 956 405 956 353 l 955 490 q 954 555 954 523 z "},"A":{"ha":925,"x_min":33,"x_max":894,"o":"m 373 1038 l 531 1038 l 894 0 l 771 0 l 668 304 l 250 304 l 153 0 l 33 0 l 373 1038 m 635 401 l 452 946 l 431 869 l 281 401 l 635 401 z "},"B":{"ha":925,"x_min":160,"x_max":837,"o":"m 793 772 q 635 542 793 563 l 635 540 q 781 484 733 532 q 837 319 837 427 q 812 151 837 211 q 743 58 787 92 q 507 0 668 0 l 160 0 l 160 1034 q 470 1052 348 1052 q 649 1033 592 1052 q 738 979 706 1015 q 793 772 793 918 m 428 574 q 617 613 564 574 q 677 774 677 656 l 677 789 q 637 918 677 880 q 501 956 597 956 q 364 953 420 956 l 275 947 l 275 574 l 428 574 m 521 96 q 663 134 621 96 q 717 307 717 182 q 612 475 717 450 q 543 482 580 482 l 275 482 l 275 96 l 521 96 z "},"C":{"ha":810,"x_min":124,"x_max":775,"o":"m 523 84 q 745 127 633 84 l 775 33 q 651 -3 724 7 q 523 -14 578 -14 l 513 -14 q 190 125 272 -14 q 129 351 140 209 q 124 501 124 420 q 129 656 124 583 q 146 791 133 730 q 186 901 160 852 q 255 982 212 949 q 511 1051 343 1051 q 686 1037 620 1051 q 775 1015 752 1023 l 745 907 q 518 954 612 954 q 374 931 425 954 q 295 856 323 908 q 245 515 245 766 l 245 465 q 299 176 245 258 q 517 84 359 84 l 523 84 z "},"D":{"ha":1040,"x_min":160,"x_max":897,"o":"m 160 1031 q 262 1039 160 1031 q 505 1051 414 1051 q 650 1044 596 1051 q 746 1020 705 1037 q 815 972 787 1002 q 863 897 844 943 q 897 640 897 810 l 897 535 q 867 229 897 334 q 743 56 833 109 q 473 0 651 0 l 160 0 l 160 1031 m 736 873 q 665 931 711 911 q 524 951 619 951 q 275 939 428 951 l 275 97 l 491 97 q 678 138 617 97 q 758 276 738 178 q 776 535 776 356 l 776 641 q 736 873 776 810 z "},"E":{"ha":810,"x_min":160,"x_max":766,"o":"m 160 1038 l 748 1038 l 748 937 l 275 937 l 275 579 l 656 579 l 656 479 l 275 479 l 275 100 l 766 100 l 766 0 l 160 0 l 160 1038 z "},"F":{"ha":808,"x_min":160,"x_max":756,"o":"m 160 1038 l 756 1038 l 756 937 l 275 937 l 275 530 l 692 530 l 692 430 l 275 430 l 275 0 l 160 0 l 160 1038 z "},"G":{"ha":925,"x_min":119,"x_max":838,"o":"m 790 897 q 476 954 627 954 q 274 826 321 954 q 243 655 246 751 q 240 489 240 559 l 240 422 q 313 135 240 205 q 429 85 356 93 q 498 81 463 81 q 568 85 534 81 q 632 95 602 89 q 724 122 694 107 l 724 442 l 515 442 l 515 536 l 838 536 l 838 71 q 612 -4 774 23 q 484 -14 555 -14 q 352 1 412 -14 q 250 44 292 16 q 182 114 208 72 q 142 211 157 156 q 119 438 119 303 q 124 652 119 574 q 143 794 129 730 q 182 905 157 857 q 248 986 207 954 q 484 1051 330 1051 q 783 1013 659 1051 l 817 1002 l 790 897 z "},"H":{"ha":1040,"x_min":160,"x_max":880,"o":"m 160 1038 l 275 1038 l 275 569 l 766 569 l 766 1038 l 880 1038 l 880 0 l 766 0 l 766 471 l 275 471 l 275 0 l 160 0 l 160 1038 z "},"I":{"ha":463,"x_min":174,"x_max":289,"o":"m 174 1038 l 289 1038 l 289 0 l 174 0 l 174 1038 z "},"J":{"ha":578,"x_min":-12,"x_max":438,"o":"m 22 123 q 37 116 22 123 q 194 81 111 81 q 296 125 266 81 q 324 274 324 169 l 324 1038 l 438 1038 l 438 350 q 428 171 438 223 q 401 87 417 119 q 358 33 385 55 q 194 -14 302 -14 q 18 20 100 -14 q -12 35 -1 28 l 22 123 z "},"K":{"ha":925,"x_min":160,"x_max":880,"o":"m 307 467 l 275 466 l 275 0 l 160 0 l 160 1038 l 275 1038 l 275 551 q 325 556 313 551 q 352 573 336 562 q 398 620 368 585 q 463 699 429 654 q 593 881 555 823 l 656 977 q 693 1038 681 1016 l 827 1038 q 804 997 821 1025 q 709 857 745 906 l 579 682 l 520 609 q 440 530 460 537 l 440 524 l 461 515 q 581 401 508 498 l 880 0 l 732 0 l 515 308 q 330 466 406 461 q 307 467 319 467 z "},"L":{"ha":696,"x_min":159,"x_max":686,"o":"m 159 1038 l 275 1038 l 275 100 l 686 100 l 686 0 l 159 0 l 159 1038 z "},"M":{"ha":1391,"x_min":85,"x_max":1301,"o":"m 245 1038 l 422 1038 l 659 271 l 699 106 l 737 272 l 965 1038 l 1134 1038 l 1301 0 l 1186 0 l 1060 784 l 1041 967 l 1000 783 l 766 1 l 632 1 l 388 787 l 340 967 l 317 785 l 202 0 l 85 0 l 245 1038 z "},"N":{"ha":1042,"x_min":160,"x_max":881,"o":"m 160 1038 l 252 1038 l 729 283 l 791 155 l 776 298 l 776 1038 l 881 1038 l 881 0 l 784 0 l 310 752 l 250 869 l 265 730 l 265 0 l 160 0 l 160 1038 z "},"O":{"ha":1040,"x_min":125,"x_max":918,"o":"m 501 -14 q 182 138 260 -14 q 129 374 137 227 q 125 524 125 443 q 130 679 125 606 q 149 810 135 751 q 188 915 163 869 q 255 990 214 960 q 501 1051 340 1051 l 543 1051 q 865 916 795 1051 q 915 680 909 831 q 918 523 918 606 q 913 371 918 441 q 897 243 909 302 q 859 136 884 184 q 792 56 834 89 q 543 -14 705 -14 l 501 -14 m 542 84 q 666 100 616 84 q 743 157 715 117 q 796 446 796 233 l 796 519 q 791 702 796 622 q 762 837 785 782 q 550 951 713 951 l 493 951 q 281 844 328 951 q 250 684 252 777 q 247 519 247 592 l 247 446 q 307 164 247 246 q 501 84 364 84 l 542 84 z "},"P":{"ha":925,"x_min":160,"x_max":838,"o":"m 565 326 q 468 324 537 324 q 275 342 398 324 l 275 0 l 160 0 l 160 1034 q 553 1052 357 1052 q 783 978 717 1052 q 838 772 838 916 l 838 692 q 814 502 838 581 q 565 326 762 338 m 557 954 q 275 947 372 954 l 275 438 q 487 422 394 422 q 620 436 579 422 q 682 480 660 449 q 720 690 720 533 l 720 774 q 682 913 720 871 q 557 954 646 954 z "},"Q":{"ha":1040,"x_min":125,"x_max":918,"o":"m 557 -13 l 543 -14 l 501 -14 q 182 138 260 -14 q 129 374 137 227 q 125 524 125 443 q 130 679 125 606 q 149 810 135 751 q 188 915 163 869 q 255 990 214 960 q 501 1051 340 1051 l 543 1051 q 865 916 795 1051 q 915 680 909 831 q 918 510 918 606 q 910 327 918 415 q 875 170 902 239 q 650 -5 817 25 q 876 -212 730 -102 l 789 -303 q 557 -13 623 -163 m 542 84 q 666 100 616 84 q 743 157 715 117 q 796 446 796 233 l 796 519 q 791 702 796 622 q 762 837 785 782 q 550 951 713 951 l 493 951 q 281 844 328 951 q 250 684 252 777 q 247 519 247 592 l 247 446 q 307 164 247 246 q 501 84 364 84 l 542 84 z "},"R":{"ha":926,"x_min":160,"x_max":862,"o":"m 160 1034 q 530 1051 380 1051 l 544 1051 q 773 978 707 1051 q 828 772 828 915 q 776 499 828 589 q 598 385 722 408 q 644 326 621 357 l 684 268 l 862 0 l 726 0 l 570 245 q 474 376 505 345 l 467 376 q 374 378 418 377 l 275 382 l 275 0 l 160 0 l 160 1034 m 275 474 q 499 471 347 471 q 670 541 625 471 q 709 757 709 603 q 651 926 709 886 q 577 953 617 950 q 506 956 536 956 q 448 955 476 956 q 392 954 420 955 q 336 952 364 954 l 275 948 l 275 474 z "},"S":{"ha":810,"x_min":58,"x_max":732,"o":"m 102 163 q 404 82 256 82 q 604 191 574 82 q 613 274 613 227 l 613 300 q 606 377 613 348 q 578 425 600 406 q 411 475 543 455 q 249 510 294 494 q 175 546 204 526 q 126 594 146 565 q 84 763 84 655 l 84 770 q 270 1038 84 994 q 404 1051 329 1051 l 412 1051 q 697 1001 587 1051 l 662 897 q 416 955 528 955 l 410 955 q 239 908 286 955 q 199 772 199 869 l 199 769 q 260 624 199 659 q 409 585 302 602 q 568 556 515 568 q 656 517 620 544 q 732 300 732 460 l 732 292 q 536 1 732 48 q 422 -14 476 -14 q 325 -10 369 -14 q 236 3 281 -6 q 58 68 130 25 l 102 163 z "},"T":{"ha":694,"x_min":8,"x_max":686,"o":"m 285 937 l 8 937 l 8 1038 l 686 1038 l 686 937 l 400 937 l 400 0 l 285 0 l 285 937 z "},"U":{"ha":1040,"x_min":145,"x_max":896,"o":"m 145 1038 l 259 1038 l 259 483 q 273 259 259 319 q 306 169 288 199 q 355 121 325 139 q 510 86 411 86 q 658 103 608 86 q 735 164 708 120 q 772 286 763 208 q 782 483 782 363 l 782 1038 l 896 1038 l 896 487 q 883 247 896 313 q 847 134 870 180 q 783 56 825 88 q 524 -14 696 -14 q 193 133 268 -14 q 147 350 152 215 q 145 478 145 412 l 145 1038 z "},"V":{"ha":926,"x_min":45,"x_max":884,"o":"m 45 1038 l 170 1038 l 431 248 l 467 109 l 505 248 l 761 1038 l 884 1038 l 535 -1 l 401 -1 l 45 1038 z "},"W":{"ha":1386,"x_min":23,"x_max":1365,"o":"m 23 1038 l 148 1038 l 349 254 l 384 88 l 423 254 l 632 1038 l 767 1038 l 1016 83 l 1052 256 l 1243 1038 l 1365 1038 l 1099 0 l 927 0 l 728 742 l 698 917 l 666 742 l 461 0 l 302 0 l 23 1038 z "},"X":{"ha":922,"x_min":46,"x_max":877,"o":"m 376 530 l 46 1038 l 178 1038 l 446 608 l 709 1038 l 841 1038 l 517 533 l 877 0 l 739 0 l 448 448 l 176 0 l 46 0 l 376 530 z "},"Y":{"ha":810,"x_min":9,"x_max":801,"o":"m 347 383 l 9 1038 l 135 1038 l 357 592 l 407 477 l 456 594 l 673 1038 l 801 1038 l 463 383 l 462 0 l 348 0 l 347 383 z "},"Z":{"ha":810,"x_min":72,"x_max":732,"o":"m 72 58 l 591 941 l 107 941 l 107 1038 l 732 1038 l 732 978 l 216 96 l 728 96 l 728 0 l 72 0 l 72 58 z "},"[":{"ha":577,"x_min":156,"x_max":425,"o":"m 258 1217 l 258 -107 l 425 -108 l 425 -184 l 156 -184 l 156 1295 l 425 1295 l 425 1217 l 258 1217 z "},"\\":{"ha":579,"x_min":5,"x_max":566,"o":"m 465 -50 l 566 -50 l 103 1266 l 5 1266 l 465 -50 z "},"]":{"ha":578,"x_min":146,"x_max":416,"o":"m 314 -106 l 314 1219 l 146 1219 l 146 1296 l 416 1296 l 416 -183 l 146 -183 l 146 -106 l 314 -106 z "},"^":{"ha":833,"x_min":102,"x_max":732,"o":"m 102 553 l 365 1064 l 458 1064 l 732 553 l 640 528 l 410 957 l 191 528 l 102 553 z "},"_":{"ha":579,"x_min":-5,"x_max":584,"o":"m 584 -125 l 584 -205 l -5 -205 l -5 -125 l 584 -125 z "},"`":{"ha":346,"x_min":6,"x_max":311,"o":"m 6 1162 l 91 1247 l 311 1008 l 255 949 l 6 1162 z "},"a":{"ha":925,"x_min":119,"x_max":782,"o":"m 769 286 q 782 5 769 151 l 682 -3 l 665 92 q 437 -5 578 22 q 355 -14 391 -14 q 291 -10 319 -14 q 238 3 264 -7 q 191 31 213 13 q 153 77 170 48 q 119 225 119 139 q 131 360 119 312 q 173 439 144 408 q 367 503 231 503 q 658 451 503 503 l 658 539 q 536 713 658 686 q 446 722 497 722 q 205 676 330 722 l 180 774 q 357 815 215 797 q 464 821 401 821 q 587 806 527 821 q 688 757 648 791 q 769 539 769 690 l 769 286 m 655 366 q 362 406 496 406 q 252 359 279 406 q 234 260 234 326 q 241 166 234 195 q 264 118 248 137 q 370 82 296 82 q 597 141 484 82 q 659 180 631 159 q 655 366 655 254 z "},"b":{"ha":925,"x_min":147,"x_max":798,"o":"m 257 75 l 243 0 l 147 0 l 147 1154 l 260 1165 l 260 730 q 531 821 400 821 q 762 709 713 821 q 796 511 792 638 q 798 375 798 449 l 798 321 q 786 181 798 228 q 755 101 774 134 q 705 42 737 67 q 507 -14 636 -14 q 257 75 378 -14 m 260 164 q 502 86 404 86 l 510 86 q 659 151 626 86 q 681 235 677 183 q 685 361 685 288 l 685 458 q 650 662 685 610 q 522 714 616 714 l 505 714 q 308 664 420 714 q 260 640 279 651 l 260 164 z "},"c":{"ha":811,"x_min":126,"x_max":712,"o":"m 712 36 q 454 -14 618 -14 q 311 1 357 -14 q 159 135 195 41 q 130 277 134 201 q 126 405 126 353 q 129 507 126 457 q 142 603 132 557 q 174 689 153 649 q 233 758 196 728 q 465 821 314 821 q 670 788 576 821 q 708 772 695 780 l 674 672 q 461 722 544 722 q 339 703 378 722 q 278 646 300 684 q 241 401 241 579 q 246 272 241 330 q 270 171 251 213 q 435 84 310 84 q 678 127 560 84 l 712 36 z "},"d":{"ha":925,"x_min":128,"x_max":793,"o":"m 675 90 q 385 -14 532 -14 q 167 106 221 -14 q 132 250 136 174 q 128 383 128 326 q 129 498 128 440 q 138 606 130 557 q 161 695 145 656 q 207 763 177 735 q 411 821 269 821 q 667 771 553 821 l 667 1154 l 780 1165 l 780 371 q 793 5 780 137 l 692 -3 l 675 90 m 667 678 q 431 719 545 719 q 322 705 349 719 q 282 670 296 692 q 259 610 268 648 q 243 376 243 539 l 243 361 q 277 150 243 208 q 410 88 313 88 l 420 88 q 620 148 514 88 q 670 180 649 164 l 670 182 q 667 376 667 245 l 667 678 z "},"e":{"ha":925,"x_min":128,"x_max":791,"o":"m 783 43 q 473 -14 643 -14 q 307 7 375 -14 q 161 136 197 38 q 128 407 128 227 l 128 441 q 218 743 128 656 q 487 821 298 821 q 738 730 671 821 q 781 623 770 686 q 791 503 791 560 q 787 366 791 414 q 616 361 692 361 q 507 361 616 361 q 243 376 336 361 q 283 159 243 220 q 475 83 331 83 q 750 140 618 83 l 783 43 m 677 456 l 677 521 q 635 673 677 627 q 476 724 589 724 q 291 665 340 724 q 243 456 243 608 l 677 456 z "},"f":{"ha":579,"x_min":69,"x_max":557,"o":"m 396 1069 q 370 1069 396 1069 q 317 1046 344 1069 q 290 957 290 1023 q 315 807 290 890 l 507 807 l 507 713 l 313 713 l 313 0 l 204 0 l 204 713 l 69 713 l 69 796 l 203 807 q 186 886 194 825 q 178 974 178 947 q 403 1166 178 1166 q 557 1149 484 1166 l 536 1048 q 396 1069 448 1069 z "},"g":{"ha":925,"x_min":128,"x_max":780,"o":"m 671 751 l 682 807 l 779 807 l 780 15 q 711 -239 780 -159 q 464 -323 638 -323 q 223 -286 328 -323 q 182 -270 197 -277 l 218 -174 q 254 -188 230 -178 q 311 -205 277 -197 q 465 -228 395 -228 q 573 -214 535 -228 q 632 -170 611 -199 q 667 13 667 -119 l 667 77 q 393 -14 538 -14 q 168 106 224 -14 q 130 278 136 174 q 128 383 128 326 q 129 498 128 440 q 138 606 130 557 q 161 695 145 656 q 207 763 177 735 q 397 821 269 821 q 671 751 526 821 m 667 658 q 431 719 545 719 q 322 705 349 719 q 282 670 296 692 q 259 610 268 648 q 243 376 243 539 l 243 361 q 281 150 243 210 q 417 88 318 88 l 427 88 q 618 140 521 88 q 667 169 646 154 l 667 658 z "},"h":{"ha":925,"x_min":152,"x_max":779,"o":"m 532 715 q 264 637 397 715 l 264 0 l 152 0 l 152 1154 l 262 1165 l 262 724 q 444 810 332 783 q 549 821 488 821 q 656 807 610 821 q 730 762 703 793 q 779 562 779 707 l 779 0 l 665 0 l 665 542 q 646 668 665 640 q 601 706 627 696 q 532 715 574 715 z "},"i":{"ha":463,"x_min":153,"x_max":309,"o":"m 232 1000 q 174 1013 186 1000 q 153 1071 153 1034 q 158 1124 153 1108 q 171 1149 162 1140 q 221 1165 187 1165 q 269 1162 254 1165 q 293 1149 283 1158 q 309 1096 309 1133 q 306 1043 309 1059 q 293 1017 302 1027 q 232 1000 276 1000 m 177 807 l 288 807 l 288 0 l 178 0 l 177 807 z "},"j":{"ha":463,"x_min":5,"x_max":307,"o":"m 230 1000 q 172 1013 184 1000 q 151 1071 151 1034 q 156 1124 151 1108 q 170 1149 160 1140 q 219 1165 185 1165 q 267 1162 252 1165 q 290 1149 281 1158 q 307 1096 307 1133 q 303 1043 307 1059 q 290 1017 300 1027 q 230 1000 274 1000 m 36 -215 q 126 -228 98 -231 q 165 -205 154 -224 q 176 -141 176 -185 l 176 807 l 286 807 l 286 -131 q 256 -266 286 -221 q 132 -322 220 -322 q 5 -298 48 -322 l 36 -215 z "},"k":{"ha":808,"x_min":149,"x_max":794,"o":"m 149 1152 l 262 1164 l 262 464 q 327 492 289 458 q 395 555 366 525 q 457 621 425 585 q 608 807 572 753 l 742 807 q 673 711 727 773 l 583 608 q 464 491 509 529 q 406 448 420 453 l 406 441 l 426 431 q 541 319 470 410 l 794 0 l 652 0 l 479 226 q 297 387 360 382 l 282 389 q 270 389 275 389 q 262 389 264 389 l 262 0 l 149 0 l 149 1152 z "},"l":{"ha":463,"x_min":176,"x_max":288,"o":"m 176 1153 l 288 1162 l 288 0 l 177 0 l 176 1153 z "},"m":{"ha":1388,"x_min":153,"x_max":1240,"o":"m 507 715 q 265 637 396 715 l 265 0 l 153 0 l 153 807 l 252 807 l 262 724 q 528 821 381 821 q 661 797 612 821 q 731 718 709 772 q 1016 821 881 821 q 1193 762 1143 821 q 1240 562 1240 706 l 1240 0 l 1126 0 l 1126 541 q 1107 667 1126 639 q 1062 705 1088 695 q 1001 715 1036 715 q 936 708 966 715 q 873 691 905 702 q 749 634 808 669 q 753 562 753 593 l 753 0 l 639 0 l 639 541 q 620 667 639 639 q 575 705 601 695 q 507 715 549 715 z "},"n":{"ha":925,"x_min":151,"x_max":779,"o":"m 533 715 q 264 637 401 715 l 264 0 l 151 0 l 151 807 l 250 807 l 261 724 q 445 810 335 784 q 550 821 490 821 q 656 807 610 821 q 730 762 703 793 q 779 562 779 707 l 779 0 l 665 0 l 665 541 q 646 667 665 639 q 601 705 627 695 q 533 715 575 715 z "},"o":{"ha":924,"x_min":127,"x_max":797,"o":"m 127 401 q 143 616 127 555 q 181 713 159 677 q 243 772 204 749 q 471 821 320 821 q 752 713 690 821 q 795 529 789 648 q 797 405 797 473 q 792 278 797 337 q 775 173 788 220 q 739 91 762 126 q 678 33 716 56 q 460 -14 604 -14 q 179 92 246 -14 q 131 277 138 158 q 127 401 127 334 m 312 119 q 324 110 312 119 q 373 91 336 100 q 474 82 410 82 q 582 100 538 82 q 648 159 626 119 q 676 264 670 199 q 682 414 682 328 q 676 556 682 499 q 651 650 671 613 q 470 724 610 724 q 277 650 321 724 q 248 555 254 613 q 242 430 242 498 q 244 315 242 362 q 253 230 245 268 q 274 165 260 193 q 312 119 288 137 z "},"p":{"ha":925,"x_min":147,"x_max":798,"o":"m 260 48 l 260 -309 l 147 -309 l 147 807 l 239 807 l 252 724 q 458 811 331 783 q 559 821 505 821 q 655 806 613 821 q 724 767 696 792 q 766 706 751 741 q 788 629 781 671 q 798 448 798 572 l 798 432 q 787 212 798 273 q 758 112 776 151 q 709 44 741 72 q 510 -14 645 -14 q 260 48 375 -14 m 260 141 q 502 88 375 88 q 623 119 585 88 q 680 315 674 161 q 682 431 682 366 l 682 446 q 655 655 682 602 q 529 715 625 715 l 519 715 q 312 666 419 715 q 260 637 281 652 l 260 141 z "},"q":{"ha":925,"x_min":128,"x_max":780,"o":"m 667 77 q 393 -14 538 -14 q 168 106 224 -14 q 130 278 136 174 q 128 383 128 326 q 129 498 128 440 q 138 606 130 557 q 161 695 145 656 q 207 763 177 735 q 397 821 269 821 q 671 751 526 821 l 682 807 l 779 807 l 780 -309 l 667 -309 l 667 77 m 667 658 q 431 719 545 719 q 322 705 349 719 q 282 670 296 692 q 259 610 268 648 q 243 376 243 539 l 243 361 q 281 150 243 210 q 417 88 318 88 l 427 88 q 618 140 521 88 q 667 169 646 154 l 667 658 z "},"r":{"ha":579,"x_min":151,"x_max":532,"o":"m 441 709 q 264 622 354 709 l 264 0 l 151 0 l 151 807 l 250 807 l 261 700 q 330 777 293 749 q 391 811 367 805 q 455 821 425 821 q 532 808 486 821 l 522 701 q 441 709 487 709 z "},"s":{"ha":810,"x_min":104,"x_max":694,"o":"m 153 160 q 433 82 292 82 q 571 165 551 82 q 578 235 578 194 q 568 299 578 276 q 536 333 559 321 q 477 349 514 344 q 383 365 440 355 q 279 387 326 374 q 198 422 231 399 q 130 589 127 471 l 130 606 q 212 781 130 729 q 471 817 290 833 q 668 774 595 805 l 636 671 q 441 722 555 706 q 375 726 406 726 q 319 722 344 726 q 277 704 294 717 q 243 606 244 677 q 290 498 241 521 q 403 467 338 475 q 509 452 468 458 q 585 435 551 446 q 643 400 618 424 q 692 233 694 352 q 519 -5 689 24 q 416 -14 467 -14 q 321 -7 364 -14 q 239 11 278 -1 q 104 66 164 32 l 153 160 z "},"t":{"ha":579,"x_min":49,"x_max":549,"o":"m 549 39 q 345 -14 438 -14 q 152 132 175 -14 q 146 232 146 166 l 146 713 l 49 713 l 49 796 l 146 807 l 164 991 l 258 991 l 258 807 l 494 807 l 494 713 l 258 713 l 258 234 q 271 127 258 151 q 360 85 293 85 q 510 127 427 85 l 549 39 z "},"u":{"ha":925,"x_min":146,"x_max":774,"o":"m 762 355 q 774 5 762 132 l 673 -3 l 657 93 q 472 -2 578 27 q 372 -14 430 -14 q 268 0 314 -14 q 195 45 222 14 q 146 245 146 100 l 146 807 l 260 807 l 260 263 q 279 137 260 165 q 324 99 298 109 q 386 90 350 90 q 455 95 422 90 q 523 112 489 101 q 652 175 594 135 l 652 176 q 649 376 649 227 l 649 807 l 762 807 l 762 355 z "},"v":{"ha":809,"x_min":56,"x_max":753,"o":"m 56 807 l 177 807 l 389 149 l 409 81 l 428 149 l 630 807 l 753 807 l 480 0 l 332 0 l 56 807 z "},"w":{"ha":1272,"x_min":63,"x_max":1211,"o":"m 63 807 l 184 807 l 355 214 l 385 85 l 408 193 l 584 807 l 695 807 l 869 214 l 899 83 l 920 194 l 1088 807 l 1211 807 l 972 0 l 823 0 l 669 517 l 637 676 l 610 517 l 456 0 l 314 0 l 63 807 z "},"x":{"ha":809,"x_min":60,"x_max":749,"o":"m 327 409 l 68 807 l 199 807 l 400 481 l 604 807 l 734 807 l 471 412 l 749 0 l 619 0 l 399 336 l 184 0 l 60 0 l 327 409 z "},"y":{"ha":808,"x_min":50,"x_max":750,"o":"m 134 -195 q 215 -213 183 -213 q 256 -211 246 -213 q 276 -204 266 -210 q 311 -162 300 -191 q 361 -10 340 -93 l 50 807 l 175 807 l 385 212 l 417 108 l 446 213 l 632 807 l 750 807 l 410 -191 q 237 -308 372 -308 q 103 -283 152 -308 l 134 -195 z "},"z":{"ha":694,"x_min":63,"x_max":639,"o":"m 72 77 l 485 713 l 63 713 l 63 807 l 622 807 l 622 730 l 210 94 l 639 94 l 639 0 l 72 0 l 72 77 z "},"{":{"ha":577,"x_min":14,"x_max":444,"o":"m 444 1286 q 356 1296 400 1296 q 217 1255 258 1296 q 177 1115 177 1213 l 177 752 q 148 669 177 693 q 14 621 119 646 l 14 514 q 141 469 116 490 q 171 428 165 448 q 177 379 177 408 l 177 -1 q 217 -141 177 -100 q 350 -182 258 -182 q 444 -172 400 -182 l 433 -94 q 363 -100 389 -100 q 323 -96 338 -100 q 298 -81 308 -92 q 279 -14 279 -62 l 279 385 q 257 486 279 457 q 101 568 212 546 q 275 694 259 599 q 279 751 279 722 l 279 1128 q 294 1191 279 1176 q 353 1213 316 1213 q 433 1207 389 1213 l 444 1286 z "},"|":{"ha":579,"x_min":239,"x_max":340,"o":"m 239 1356 l 340 1356 l 340 -121 l 239 -121 l 239 1356 z "},"}":{"ha":578,"x_min":128,"x_max":557,"o":"m 128 1286 q 216 1296 172 1296 q 355 1255 313 1296 q 395 1115 395 1213 l 395 752 q 424 669 395 693 q 557 621 453 646 l 557 514 q 431 469 456 490 q 400 428 406 448 q 395 379 395 408 l 395 -1 q 355 -141 395 -100 q 222 -182 313 -182 q 128 -172 172 -182 l 139 -94 q 208 -100 182 -100 q 249 -96 234 -100 q 274 -81 264 -92 q 293 -14 293 -62 l 293 385 q 315 486 293 457 q 471 568 359 546 q 297 694 313 599 q 293 751 293 722 l 293 1128 q 278 1191 293 1176 q 219 1213 256 1213 q 139 1207 182 1213 l 128 1286 z "},"~":{"ha":1041,"x_min":106,"x_max":935,"o":"m 359 428 q 173 302 263 428 l 106 358 q 238 506 159 461 q 345 538 294 538 q 425 529 395 538 q 481 507 454 520 q 532 478 507 494 q 580 449 556 463 q 680 418 635 418 q 867 545 777 418 l 935 488 q 679 308 842 308 q 509 368 603 308 q 419 417 450 406 q 359 428 387 428 z "}," ":{"ha":347,"x_min":0,"x_max":0,"o":""},"¡":{"ha":347,"x_min":94,"x_max":252,"o":"m 241 -230 l 114 -230 l 130 528 l 219 528 l 241 -230 m 233 807 q 239 800 233 807 q 249 775 245 793 q 252 731 252 758 q 249 688 252 705 q 236 661 245 671 q 184 644 220 644 q 134 647 149 644 q 110 661 119 651 q 94 731 94 678 q 106 798 94 784 q 173 821 125 821 q 233 807 220 821 z "},"¢":{"ha":815,"x_min":107,"x_max":693,"o":"m 693 149 q 465 99 607 104 l 465 -114 l 370 -114 l 370 101 q 173 191 239 112 q 110 375 118 249 q 107 460 107 416 q 109 545 107 505 q 120 623 111 585 q 145 694 128 661 q 191 755 161 728 q 370 827 254 813 l 370 1044 l 465 1044 l 465 831 q 689 783 614 825 l 655 683 q 442 733 525 733 q 320 717 359 733 q 259 667 281 701 q 222 460 222 611 q 232 324 222 361 q 255 264 241 286 q 294 227 269 241 q 443 197 345 197 q 657 240 541 197 l 693 149 z "},"£":{"ha":810,"x_min":136,"x_max":775,"o":"m 274 569 q 190 800 190 677 q 359 1031 190 980 q 474 1049 418 1049 q 566 1046 531 1049 q 638 1036 602 1042 q 775 998 717 1022 l 738 897 q 605 942 673 930 q 491 954 536 954 q 410 946 446 954 q 352 918 374 938 q 309 785 309 881 q 365 608 309 692 q 397 569 380 584 l 692 569 l 692 471 l 397 471 l 338 100 l 775 100 l 775 0 l 136 0 l 136 99 l 227 99 l 285 471 l 136 471 l 136 569 l 274 569 z "},"¤":{"ha":1040,"x_min":143,"x_max":897,"o":"m 791 497 q 742 290 791 354 l 895 138 l 835 79 l 675 237 q 517 210 617 210 q 359 237 417 210 l 203 80 l 144 139 l 294 287 q 248 496 248 348 q 290 701 248 644 l 143 848 l 202 907 l 356 753 l 355 752 q 522 779 414 779 q 686 755 630 779 l 839 909 l 897 851 l 751 706 q 784 619 777 671 q 791 497 791 567 m 521 289 q 613 299 577 289 q 669 335 648 310 q 703 509 703 378 q 667 661 703 624 q 526 699 632 699 q 373 661 412 699 q 336 507 336 623 q 373 335 336 381 q 521 289 410 289 z "},"¥":{"ha":810,"x_min":44,"x_max":772,"o":"m 87 555 l 298 555 l 44 1038 l 169 1038 l 410 555 l 411 555 l 645 1038 l 772 1038 l 519 555 l 728 555 l 728 463 l 87 463 l 87 555 m 87 340 l 728 340 l 728 249 l 463 249 l 463 0 l 347 0 l 347 249 l 87 249 l 87 340 z "},"¦":{"ha":579,"x_min":239,"x_max":340,"o":"m 239 1356 l 340 1356 l 340 724 l 239 724 l 239 1356 m 239 511 l 340 511 l 340 -121 l 239 -121 l 239 511 z "},"§":{"ha":833,"x_min":104,"x_max":692,"o":"m 130 836 q 378 1050 130 1050 l 387 1050 q 668 1004 557 1050 l 636 901 q 441 951 555 936 q 375 956 406 956 q 319 951 344 956 q 277 933 294 947 q 243 836 243 907 l 243 830 q 291 728 243 750 q 403 698 339 707 q 508 683 467 690 q 583 666 549 676 q 641 632 616 655 q 692 470 692 585 l 692 463 q 640 311 692 365 q 602 277 618 287 q 692 92 692 236 l 692 84 q 519 -153 692 -124 q 416 -162 467 -162 q 321 -156 364 -162 q 239 -138 278 -149 q 104 -82 164 -117 l 153 12 q 433 -66 292 -66 q 571 18 551 -66 q 578 86 578 45 q 568 150 578 127 q 536 183 559 172 q 477 199 514 194 q 385 214 440 204 l 353 219 q 287 234 318 223 q 172 296 208 254 q 130 433 130 344 l 130 457 q 195 601 130 553 q 243 631 212 614 q 138 742 157 664 q 130 812 130 772 l 130 836 m 337 607 q 243 452 243 583 q 291 345 243 370 q 403 313 336 321 q 511 299 469 305 q 575 407 566 323 q 578 469 578 433 q 568 529 578 506 q 536 565 559 553 q 477 583 514 577 l 337 607 z "},"¨":{"ha":772,"x_min":157,"x_max":616,"o":"m 542 1004 q 487 1017 499 1004 q 468 1072 468 1036 q 472 1122 468 1107 q 484 1146 476 1137 q 531 1161 500 1161 q 577 1158 563 1161 q 600 1146 591 1154 q 616 1095 616 1130 q 612 1045 616 1060 q 600 1020 608 1029 q 542 1004 585 1004 m 231 1004 q 176 1017 189 1004 q 157 1072 157 1036 q 161 1122 157 1107 q 174 1146 165 1137 q 221 1161 189 1161 q 266 1158 252 1161 q 289 1146 280 1154 q 304 1095 304 1131 q 300 1045 304 1060 q 289 1020 297 1029 q 231 1004 274 1004 z "},"©":{"ha":1158,"x_min":131,"x_max":1026,"o":"m 134 453 q 131 573 131 509 q 134 700 131 637 q 150 815 136 762 q 190 909 163 867 q 266 979 217 950 q 573 1038 368 1038 q 890 986 789 1038 q 1008 829 981 939 q 1026 630 1026 758 q 1024 445 1026 503 q 1008 337 1021 387 q 968 247 996 287 q 890 178 941 206 q 574 117 786 117 q 190 255 279 117 q 134 453 140 333 m 216 601 q 216 531 216 601 q 231 391 216 461 q 285 278 245 321 q 394 217 324 235 q 560 198 465 198 q 713 205 655 198 q 811 230 771 213 q 877 274 852 246 q 916 342 902 302 q 940 530 940 412 q 935 711 940 648 q 917 818 930 774 q 878 888 903 861 q 812 930 853 916 q 576 957 743 957 q 349 931 418 957 q 243 818 272 902 q 216 601 216 741 m 768 370 q 579 332 686 332 q 418 387 467 332 q 366 579 366 445 q 406 745 366 689 q 604 822 460 822 q 775 787 705 822 l 741 703 q 600 736 681 736 q 492 703 519 736 q 469 576 469 671 q 483 462 469 488 q 520 426 498 436 q 608 416 543 416 q 743 444 672 416 l 768 370 z "},"ª":{"ha":694,"x_min":77,"x_max":591,"o":"m 581 650 q 591 439 581 549 l 496 433 l 484 503 q 316 433 421 452 q 251 426 283 426 q 188 432 219 426 q 133 458 157 438 q 77 621 77 504 q 180 814 77 777 q 269 827 216 827 q 478 786 371 827 l 478 839 q 390 958 478 941 q 325 962 361 962 q 144 928 242 962 l 123 1015 q 222 1042 154 1032 q 339 1051 291 1051 q 435 1040 387 1051 q 515 1002 483 1028 q 581 839 581 951 l 581 650 m 476 715 q 275 743 374 743 q 198 707 216 743 q 185 632 185 681 q 190 564 185 584 q 206 532 195 544 q 267 509 227 509 q 334 514 307 509 q 386 529 360 519 q 479 579 437 547 q 476 715 476 644 z "},"«":{"ha":1040,"x_min":115,"x_max":906,"o":"m 228 396 l 493 123 l 437 60 l 115 350 l 115 439 l 430 734 l 492 675 l 228 396 m 641 396 l 906 123 l 850 60 l 528 350 l 528 439 l 843 734 l 905 675 l 641 396 z "},"¬":{"ha":925,"x_min":114,"x_max":811,"o":"m 114 608 l 811 608 l 811 261 l 724 261 l 724 526 l 114 526 l 114 608 z "},"­":{"ha":833,"x_min":0,"x_max":0,"o":""},"®":{"ha":1158,"x_min":131,"x_max":1026,"o":"m 134 453 q 131 573 131 509 q 134 700 131 637 q 150 815 136 762 q 190 909 163 867 q 266 979 217 950 q 573 1038 368 1038 q 890 986 789 1038 q 1008 829 981 939 q 1026 630 1026 758 q 1024 445 1026 503 q 1008 337 1021 387 q 968 247 996 287 q 890 178 941 206 q 574 117 786 117 q 190 255 279 117 q 134 453 140 333 m 216 601 q 216 531 216 601 q 231 391 216 461 q 285 278 245 321 q 394 217 324 235 q 560 198 465 198 q 714 205 656 198 q 813 230 772 213 q 879 275 854 247 q 917 345 903 303 q 940 534 940 415 q 935 715 940 654 q 916 820 930 777 q 877 889 902 863 q 811 931 852 916 q 576 957 742 957 q 349 931 418 957 q 243 818 272 902 q 216 601 216 741 m 379 807 q 598 817 524 817 q 708 809 673 817 q 761 784 742 800 q 795 702 795 756 q 789 617 795 648 q 769 564 783 585 q 668 511 740 521 q 690 488 680 500 l 805 345 l 703 345 l 589 487 q 571 508 579 500 q 517 509 546 509 q 467 511 488 510 l 467 345 l 379 345 l 379 807 m 682 596 q 688 601 682 596 q 700 625 695 606 q 704 680 704 644 q 675 732 704 716 q 596 742 658 742 q 467 737 534 742 l 467 582 q 521 581 496 581 q 584 581 549 581 q 643 584 618 581 q 682 596 668 587 z "},"¯":{"ha":581,"x_min":87,"x_max":493,"o":"m 87 1128 l 493 1128 l 493 1036 l 87 1036 l 87 1128 z "},"°":{"ha":695,"x_min":149,"x_max":547,"o":"m 347 758 q 268 773 304 758 q 205 814 231 788 q 149 954 149 871 q 205 1095 149 1038 q 348 1152 262 1152 q 492 1095 437 1152 q 547 954 547 1040 q 488 814 547 871 q 347 758 430 758 m 301 850 q 347 842 321 842 q 393 851 373 842 q 429 874 414 859 q 460 954 460 905 q 396 1061 460 1035 q 349 1069 375 1069 q 301 1060 322 1069 q 266 1036 280 1052 q 235 954 235 1004 q 301 850 235 878 z "},"±":{"ha":1040,"x_min":122,"x_max":916,"o":"m 122 547 l 471 547 l 471 895 l 567 895 l 567 547 l 916 547 l 916 456 l 567 456 l 567 180 l 471 180 l 471 456 l 122 456 l 122 547 m 142 91 l 896 91 l 896 1 l 142 1 l 142 91 z "},"²":{"ha":695,"x_min":94,"x_max":569,"o":"m 312 1132 q 134 1076 222 1132 l 94 1161 q 250 1218 147 1200 q 325 1225 286 1225 q 404 1218 364 1225 q 475 1194 444 1211 q 546 1066 546 1153 q 374 799 546 942 q 256 707 320 755 l 243 700 l 569 701 l 569 610 l 115 610 l 104 687 q 377 935 283 810 q 433 1054 433 1006 q 357 1129 433 1120 q 312 1132 335 1132 z "},"³":{"ha":695,"x_min":96,"x_max":562,"o":"m 538 1087 q 412 934 538 965 q 555 852 532 934 q 562 780 562 824 q 544 699 562 735 q 494 642 526 663 q 345 600 435 600 q 96 640 201 600 l 123 728 q 335 683 227 683 q 453 743 433 683 q 460 796 460 764 q 449 845 460 827 q 420 870 437 862 q 350 882 395 882 q 210 868 304 882 l 199 947 q 429 1029 395 973 q 439 1070 439 1048 q 429 1105 439 1092 q 400 1126 418 1119 q 332 1136 374 1136 q 263 1131 290 1136 q 212 1120 236 1126 q 140 1092 167 1107 l 102 1166 q 327 1225 183 1225 q 518 1153 464 1225 q 538 1087 538 1126 z "},"´":{"ha":346,"x_min":18,"x_max":325,"o":"m 18 1008 l 237 1246 l 325 1164 l 74 949 l 18 1008 z "},"µ":{"ha":924,"x_min":146,"x_max":774,"o":"m 385 -14 q 245 35 297 -14 l 262 -310 l 146 -310 l 146 807 l 260 807 l 260 263 q 286 130 260 165 q 408 90 316 90 q 652 175 528 90 l 652 176 q 649 376 649 227 l 649 807 l 762 807 l 762 355 q 774 5 762 132 l 673 -3 l 657 93 q 472 -2 578 27 q 385 -14 430 -14 z "},"¶":{"ha":1156,"x_min":173,"x_max":947,"o":"m 581 346 q 522 343 549 343 q 266 436 357 343 q 173 699 173 530 q 288 963 173 879 q 585 1038 390 1038 l 947 1038 l 947 0 l 831 1 l 831 934 l 696 924 l 696 0 l 581 0 l 581 346 z "},"·":{"ha":347,"x_min":94,"x_max":252,"o":"m 114 340 q 107 347 114 340 q 98 371 101 354 q 94 415 94 389 q 98 459 94 442 q 111 486 102 476 q 162 503 127 503 q 213 499 197 503 q 237 486 228 496 q 252 416 252 469 q 240 349 252 363 q 174 326 221 326 q 114 340 126 326 z "},"¸":{"ha":347,"x_min":48,"x_max":286,"o":"m 191 -138 q 118 1 191 -77 l 119 7 l 168 33 q 286 -155 286 -39 q 247 -256 286 -221 q 139 -290 209 -290 q 48 -277 80 -290 l 65 -191 q 124 -197 97 -197 q 171 -183 151 -197 q 191 -138 191 -169 z "},"¹":{"ha":463,"x_min":61,"x_max":302,"o":"m 200 1115 l 75 1094 l 61 1178 l 302 1216 l 302 611 l 200 611 l 200 1115 z "},"º":{"ha":810,"x_min":143,"x_max":667,"o":"m 622 506 q 608 486 622 506 q 542 446 594 466 q 417 426 490 426 q 301 435 344 426 q 230 462 258 444 q 183 507 201 480 q 157 568 166 533 q 143 717 143 623 q 151 869 143 811 q 186 968 158 928 q 412 1050 241 1050 q 632 968 583 1050 q 665 830 661 918 q 667 726 667 789 q 658 604 667 663 q 622 506 650 545 m 272 557 q 279 544 272 557 q 318 518 287 531 q 397 505 350 505 q 471 511 445 505 q 515 529 498 517 q 541 562 532 542 q 554 609 550 581 q 559 752 559 646 l 559 783 q 556 866 559 830 q 539 925 553 901 q 412 972 511 972 q 270 917 300 972 q 253 847 255 889 q 250 750 250 806 l 250 714 q 253 623 250 662 q 272 557 256 584 z "},"»":{"ha":1037,"x_min":126,"x_max":922,"o":"m 391 401 l 126 673 l 182 736 l 505 447 l 505 357 l 189 63 l 127 121 l 391 401 m 809 401 l 544 673 l 600 736 l 922 447 l 922 357 l 607 63 l 545 121 l 809 401 z "},"¼":{"ha":1156,"x_min":14,"x_max":1124,"o":"m 153 939 l 28 918 l 14 1002 l 256 1040 l 256 435 l 153 435 l 153 939 m 564 216 l 886 614 l 1028 614 l 1028 233 l 1124 233 l 1124 157 l 1028 149 l 1028 -1 l 926 -1 l 926 147 l 564 147 l 564 216 m 925 233 l 925 526 q 902 499 916 515 l 683 233 l 925 233 m 722 1038 l 825 1038 l 242 0 l 141 0 l 722 1038 z "},"½":{"ha":1272,"x_min":65,"x_max":1185,"o":"m 204 939 l 79 918 l 65 1002 l 307 1040 l 307 435 l 204 435 l 204 939 m 928 522 q 751 465 839 522 l 711 551 q 867 608 764 590 q 942 614 903 614 q 1020 608 981 614 q 1092 583 1060 601 q 1162 456 1162 543 q 990 189 1162 332 q 872 97 937 144 l 860 90 l 1185 90 l 1185 0 l 731 0 l 721 77 q 994 324 899 200 q 1049 444 1049 396 q 974 519 1049 509 q 928 522 951 522 m 766 1038 l 869 1038 l 286 0 l 184 0 l 766 1038 z "},"¾":{"ha":1387,"x_min":31,"x_max":1362,"o":"m 474 913 q 348 760 474 791 q 490 678 468 760 q 498 606 498 650 q 479 526 498 562 q 430 468 461 490 q 281 426 370 426 q 31 466 137 426 l 59 555 q 271 509 162 509 q 388 569 369 509 q 395 622 395 591 q 384 671 395 654 q 355 696 373 688 q 285 708 331 708 q 146 694 239 708 l 135 774 q 364 856 330 800 q 375 896 375 874 q 364 932 375 918 q 336 952 353 945 q 268 962 310 962 q 199 958 226 962 q 148 947 172 953 q 76 918 102 934 l 37 992 q 262 1051 119 1051 q 454 979 399 1051 q 474 913 474 953 m 802 216 l 1125 614 l 1267 614 l 1267 233 l 1362 233 l 1362 157 l 1267 149 l 1267 -1 l 1164 -1 l 1164 147 l 802 147 l 802 216 m 1164 233 l 1164 526 q 1141 499 1154 515 l 922 233 l 1164 233 m 949 1038 l 1052 1038 l 469 0 l 368 0 l 949 1038 z "},"¿":{"ha":694,"x_min":97,"x_max":557,"o":"m 464 425 q 443 361 469 387 l 271 184 q 222 117 230 140 q 212 54 212 87 q 212 7 212 22 q 216 -18 213 -8 q 234 -46 220 -37 q 274 -67 247 -56 q 344 -91 302 -78 q 557 -135 444 -121 l 534 -250 q 202 -158 333 -222 q 105 -61 121 -117 q 97 15 97 -32 q 100 88 97 62 q 110 136 102 114 q 130 177 117 157 q 162 220 142 197 q 211 269 182 242 l 352 397 l 367 528 l 450 528 l 464 425 m 465 806 q 471 799 465 806 q 481 775 477 792 q 484 731 484 758 q 480 687 484 704 q 468 661 477 670 q 416 643 452 643 q 366 647 381 643 q 342 661 351 650 q 326 730 326 677 q 338 798 326 783 q 405 820 357 820 q 465 806 452 820 z "},"À":{"ha":925,"x_min":33,"x_max":894,"o":"m 373 1038 l 531 1038 l 894 0 l 771 0 l 668 304 l 250 304 l 153 0 l 33 0 l 373 1038 m 635 401 l 452 946 l 431 869 l 281 401 l 635 401 m 239 1245 l 296 1356 l 582 1181 l 548 1118 l 239 1245 z "},"Á":{"ha":925,"x_min":33,"x_max":894,"o":"m 373 1038 l 531 1038 l 894 0 l 771 0 l 668 304 l 250 304 l 153 0 l 33 0 l 373 1038 m 635 401 l 452 946 l 431 869 l 281 401 l 635 401 m 310 1181 l 592 1356 l 655 1249 l 344 1118 l 310 1181 z "},"Â":{"ha":925,"x_min":33,"x_max":894,"o":"m 373 1038 l 531 1038 l 894 0 l 771 0 l 668 304 l 250 304 l 153 0 l 33 0 l 373 1038 m 635 401 l 452 946 l 431 869 l 281 401 l 635 401 m 245 1183 l 397 1350 l 506 1350 l 664 1182 l 612 1128 l 451 1263 l 296 1127 l 245 1183 z "},"Ã":{"ha":925,"x_min":33,"x_max":894,"o":"m 373 1038 l 531 1038 l 894 0 l 771 0 l 668 304 l 250 304 l 153 0 l 33 0 l 373 1038 m 635 401 l 452 946 l 431 869 l 281 401 l 635 401 m 718 1306 q 537 1150 650 1150 q 447 1191 505 1150 q 405 1218 426 1206 q 368 1231 385 1231 q 338 1224 352 1231 q 309 1206 324 1217 q 277 1181 293 1196 l 245 1154 l 197 1197 q 283 1298 235 1267 q 378 1330 331 1330 l 387 1330 q 479 1291 424 1330 l 517 1265 q 550 1253 534 1253 q 579 1260 566 1253 q 606 1281 593 1268 q 632 1310 619 1294 l 659 1344 l 718 1306 z "},"Ä":{"ha":925,"x_min":33,"x_max":894,"o":"m 373 1038 l 531 1038 l 894 0 l 771 0 l 668 304 l 250 304 l 153 0 l 33 0 l 373 1038 m 635 401 l 452 946 l 431 869 l 281 401 l 635 401 m 604 1164 q 549 1177 561 1164 q 530 1232 530 1196 q 534 1282 530 1267 q 546 1306 538 1297 q 593 1321 562 1321 q 639 1318 625 1321 q 661 1306 653 1314 q 677 1255 677 1290 q 674 1205 677 1220 q 661 1180 670 1190 q 604 1164 647 1164 m 293 1164 q 238 1177 250 1164 q 219 1232 219 1196 q 223 1282 219 1267 q 235 1306 227 1297 q 282 1321 251 1321 q 328 1318 314 1321 q 351 1306 342 1314 q 366 1255 366 1291 q 362 1205 366 1220 q 351 1180 359 1190 q 293 1164 336 1164 z "},"Å":{"ha":925,"x_min":33,"x_max":894,"o":"m 373 1038 l 531 1038 l 894 0 l 771 0 l 668 304 l 250 304 l 153 0 l 33 0 l 373 1038 m 635 401 l 452 946 l 431 869 l 281 401 l 635 401 m 447 1080 q 300 1154 336 1080 q 288 1217 288 1179 q 300 1281 288 1255 q 334 1324 313 1308 q 447 1356 375 1356 q 593 1281 558 1356 q 606 1217 606 1255 q 594 1154 606 1179 q 559 1112 581 1128 q 447 1080 517 1080 m 371 1217 q 446 1152 371 1152 q 520 1217 520 1152 q 446 1284 520 1284 q 371 1217 371 1284 z "},"Æ":{"ha":1272,"x_min":32,"x_max":1228,"o":"m 573 1038 l 1210 1038 l 1210 937 l 772 937 l 772 579 l 1118 579 l 1118 479 l 772 479 l 772 100 l 1228 100 l 1228 0 l 656 0 l 656 285 l 307 285 l 162 0 l 32 0 l 573 1038 m 656 382 l 656 975 l 355 382 l 656 382 z "},"Ç":{"ha":810,"x_min":124,"x_max":775,"o":"m 523 84 q 745 127 633 84 l 775 33 q 651 -3 724 7 q 523 -14 578 -14 l 513 -14 q 190 125 272 -14 q 129 351 140 209 q 124 501 124 420 q 129 656 124 583 q 146 791 133 730 q 186 901 160 852 q 255 982 212 949 q 511 1051 343 1051 q 686 1037 620 1051 q 775 1015 752 1023 l 745 907 q 518 954 612 954 q 374 931 425 954 q 295 856 323 908 q 245 515 245 766 l 245 465 q 299 176 245 258 q 517 84 359 84 l 523 84 m 524 -138 q 451 1 524 -77 l 452 7 l 500 33 q 618 -155 618 -39 q 580 -256 618 -221 q 472 -290 542 -290 q 381 -277 413 -290 l 398 -191 q 457 -197 430 -197 q 504 -183 484 -197 q 524 -138 524 -169 z "},"È":{"ha":810,"x_min":160,"x_max":766,"o":"m 160 1038 l 748 1038 l 748 937 l 275 937 l 275 579 l 656 579 l 656 479 l 275 479 l 275 100 l 766 100 l 766 0 l 160 0 l 160 1038 m 267 1245 l 324 1356 l 610 1181 l 576 1118 l 267 1245 z "},"É":{"ha":810,"x_min":160,"x_max":766,"o":"m 160 1038 l 748 1038 l 748 937 l 275 937 l 275 579 l 656 579 l 656 479 l 275 479 l 275 100 l 766 100 l 766 0 l 160 0 l 160 1038 m 308 1181 l 590 1356 l 653 1249 l 342 1118 l 308 1181 z "},"Ê":{"ha":810,"x_min":160,"x_max":766,"o":"m 160 1038 l 748 1038 l 748 937 l 275 937 l 275 579 l 656 579 l 656 479 l 275 479 l 275 100 l 766 100 l 766 0 l 160 0 l 160 1038 m 258 1183 l 410 1350 l 519 1350 l 677 1182 l 625 1128 l 464 1263 l 309 1127 l 258 1183 z "},"Ë":{"ha":810,"x_min":160,"x_max":766,"o":"m 160 1038 l 748 1038 l 748 937 l 275 937 l 275 579 l 656 579 l 656 479 l 275 479 l 275 100 l 766 100 l 766 0 l 160 0 l 160 1038 m 614 1164 q 559 1177 572 1164 q 541 1232 541 1196 q 545 1282 541 1267 q 557 1306 549 1297 q 604 1321 572 1321 q 650 1318 635 1321 q 672 1306 664 1314 q 688 1255 688 1290 q 685 1205 688 1220 q 672 1180 681 1190 q 614 1164 658 1164 m 304 1164 q 249 1177 261 1164 q 230 1232 230 1196 q 234 1282 230 1267 q 246 1306 238 1297 q 293 1321 262 1321 q 339 1318 325 1321 q 361 1306 353 1314 q 376 1255 376 1291 q 373 1205 376 1220 q 361 1180 370 1190 q 304 1164 347 1164 z "},"Ì":{"ha":463,"x_min":35,"x_max":377,"o":"m 174 1038 l 289 1038 l 289 0 l 174 0 l 174 1038 m 35 1245 l 92 1356 l 377 1181 l 343 1118 l 35 1245 z "},"Í":{"ha":463,"x_min":80,"x_max":425,"o":"m 174 1038 l 289 1038 l 289 0 l 174 0 l 174 1038 m 80 1181 l 362 1356 l 425 1249 l 114 1118 l 80 1181 z "},"Î":{"ha":463,"x_min":25,"x_max":444,"o":"m 174 1038 l 289 1038 l 289 0 l 174 0 l 174 1038 m 25 1183 l 177 1350 l 286 1350 l 444 1182 l 391 1128 l 231 1263 l 75 1127 l 25 1183 z "},"Ï":{"ha":463,"x_min":2,"x_max":460,"o":"m 174 1038 l 289 1038 l 289 0 l 174 0 l 174 1038 m 387 1164 q 332 1177 344 1164 q 313 1232 313 1196 q 317 1282 313 1267 q 329 1306 321 1297 q 376 1321 345 1321 q 422 1318 408 1321 q 444 1306 436 1314 q 460 1255 460 1290 q 457 1205 460 1220 q 444 1180 453 1190 q 387 1164 430 1164 m 76 1164 q 21 1177 33 1164 q 2 1232 2 1196 q 6 1282 2 1267 q 18 1306 10 1297 q 65 1321 34 1321 q 111 1318 97 1321 q 134 1306 125 1314 q 149 1255 149 1291 q 145 1205 149 1220 q 134 1180 142 1190 q 76 1164 119 1164 z "},"Ð":{"ha":1040,"x_min":50,"x_max":897,"o":"m 160 1031 q 531 1053 429 1053 q 685 1045 633 1053 q 773 1019 736 1038 q 834 969 810 1001 q 872 889 858 938 q 897 655 897 802 q 892 422 897 509 q 874 268 888 336 q 831 149 859 199 q 757 65 804 98 q 473 0 663 0 l 160 0 l 160 474 l 50 474 l 50 566 l 160 566 l 160 1031 m 493 100 q 680 142 621 100 q 761 282 740 184 q 778 542 778 363 l 778 661 q 773 789 778 734 q 747 881 768 844 q 570 954 707 954 q 423 949 498 954 l 275 939 l 275 566 l 505 566 l 505 474 l 275 474 l 275 100 l 493 100 z "},"Ñ":{"ha":1042,"x_min":160,"x_max":881,"o":"m 160 1038 l 252 1038 l 729 283 l 791 155 l 776 298 l 776 1038 l 881 1038 l 881 0 l 784 0 l 310 752 l 250 869 l 265 730 l 265 0 l 160 0 l 160 1038 m 788 1306 q 608 1150 721 1150 q 517 1191 575 1150 q 476 1218 496 1206 q 439 1231 455 1231 q 409 1224 422 1231 q 379 1206 395 1217 q 347 1181 363 1196 l 316 1154 l 268 1197 q 354 1298 306 1267 q 448 1330 401 1330 l 457 1330 q 549 1291 494 1330 l 587 1265 q 621 1253 605 1253 q 650 1260 636 1253 q 676 1281 663 1268 q 703 1310 690 1294 l 729 1344 l 788 1306 z "},"Ò":{"ha":1040,"x_min":125,"x_max":918,"o":"m 501 -14 q 182 138 260 -14 q 129 374 137 227 q 125 524 125 443 q 130 679 125 606 q 149 810 135 751 q 188 915 163 869 q 255 990 214 960 q 501 1051 340 1051 l 543 1051 q 865 916 795 1051 q 915 680 909 831 q 918 523 918 606 q 913 371 918 441 q 897 243 909 302 q 859 136 884 184 q 792 56 834 89 q 543 -14 705 -14 l 501 -14 m 542 84 q 666 100 616 84 q 743 157 715 117 q 796 446 796 233 l 796 519 q 791 702 796 622 q 762 837 785 782 q 550 951 713 951 l 493 951 q 281 844 328 951 q 250 684 252 777 q 247 519 247 592 l 247 446 q 307 164 247 246 q 501 84 364 84 l 542 84 m 335 1245 l 392 1356 l 677 1181 l 644 1118 l 335 1245 z "},"Ó":{"ha":1040,"x_min":125,"x_max":918,"o":"m 501 -14 q 182 138 260 -14 q 129 374 137 227 q 125 524 125 443 q 130 679 125 606 q 149 810 135 751 q 188 915 163 869 q 255 990 214 960 q 501 1051 340 1051 l 543 1051 q 865 916 795 1051 q 915 680 909 831 q 918 523 918 606 q 913 371 918 441 q 897 243 909 302 q 859 136 884 184 q 792 56 834 89 q 543 -14 705 -14 l 501 -14 m 542 84 q 666 100 616 84 q 743 157 715 117 q 796 446 796 233 l 796 519 q 791 702 796 622 q 762 837 785 782 q 550 951 713 951 l 493 951 q 281 844 328 951 q 250 684 252 777 q 247 519 247 592 l 247 446 q 307 164 247 246 q 501 84 364 84 l 542 84 m 396 1181 l 678 1356 l 741 1249 l 430 1118 l 396 1181 z "},"Ô":{"ha":1040,"x_min":125,"x_max":918,"o":"m 501 -14 q 182 138 260 -14 q 129 374 137 227 q 125 524 125 443 q 130 679 125 606 q 149 810 135 751 q 188 915 163 869 q 255 990 214 960 q 501 1051 340 1051 l 543 1051 q 865 916 795 1051 q 915 680 909 831 q 918 523 918 606 q 913 371 918 441 q 897 243 909 302 q 859 136 884 184 q 792 56 834 89 q 543 -14 705 -14 l 501 -14 m 542 84 q 666 100 616 84 q 743 157 715 117 q 796 446 796 233 l 796 519 q 791 702 796 622 q 762 837 785 782 q 550 951 713 951 l 493 951 q 281 844 328 951 q 250 684 252 777 q 247 519 247 592 l 247 446 q 307 164 247 246 q 501 84 364 84 l 542 84 m 316 1183 l 468 1350 l 576 1350 l 734 1182 l 682 1128 l 522 1263 l 366 1127 l 316 1183 z "},"Õ":{"ha":1040,"x_min":125,"x_max":918,"o":"m 501 -14 q 182 138 260 -14 q 129 374 137 227 q 125 524 125 443 q 130 679 125 606 q 149 810 135 751 q 188 915 163 869 q 255 990 214 960 q 501 1051 340 1051 l 543 1051 q 865 916 795 1051 q 915 680 909 831 q 918 523 918 606 q 913 371 918 441 q 897 243 909 302 q 859 136 884 184 q 792 56 834 89 q 543 -14 705 -14 l 501 -14 m 542 84 q 666 100 616 84 q 743 157 715 117 q 796 446 796 233 l 796 519 q 791 702 796 622 q 762 837 785 782 q 550 951 713 951 l 493 951 q 281 844 328 951 q 250 684 252 777 q 247 519 247 592 l 247 446 q 307 164 247 246 q 501 84 364 84 l 542 84 m 789 1306 q 608 1150 722 1150 q 518 1191 576 1150 q 476 1218 497 1206 q 439 1231 456 1231 q 409 1224 423 1231 q 380 1206 395 1217 q 348 1181 364 1196 l 317 1154 l 269 1197 q 354 1298 307 1267 q 449 1330 402 1330 l 458 1330 q 550 1291 495 1330 l 588 1265 q 621 1253 606 1253 q 650 1260 637 1253 q 677 1281 664 1268 q 703 1310 690 1294 l 730 1344 l 789 1306 z "},"Ö":{"ha":1040,"x_min":125,"x_max":918,"o":"m 501 -14 q 182 138 260 -14 q 129 374 137 227 q 125 524 125 443 q 130 679 125 606 q 149 810 135 751 q 188 915 163 869 q 255 990 214 960 q 501 1051 340 1051 l 543 1051 q 865 916 795 1051 q 915 680 909 831 q 918 523 918 606 q 913 371 918 441 q 897 243 909 302 q 859 136 884 184 q 792 56 834 89 q 543 -14 705 -14 l 501 -14 m 542 84 q 666 100 616 84 q 743 157 715 117 q 796 446 796 233 l 796 519 q 791 702 796 622 q 762 837 785 782 q 550 951 713 951 l 493 951 q 281 844 328 951 q 250 684 252 777 q 247 519 247 592 l 247 446 q 307 164 247 246 q 501 84 364 84 l 542 84 m 675 1164 q 620 1177 632 1164 q 601 1232 601 1196 q 605 1282 601 1267 q 617 1306 609 1297 q 664 1321 633 1321 q 710 1318 696 1321 q 732 1306 724 1314 q 749 1255 749 1290 q 745 1205 749 1220 q 732 1180 741 1190 q 675 1164 718 1164 m 364 1164 q 309 1177 321 1164 q 290 1232 290 1196 q 294 1282 290 1267 q 307 1306 298 1297 q 354 1321 322 1321 q 399 1318 385 1321 q 422 1306 413 1314 q 437 1255 437 1291 q 433 1205 437 1220 q 422 1180 430 1190 q 364 1164 407 1164 z "},"×":{"ha":924,"x_min":138,"x_max":777,"o":"m 393 450 l 138 704 l 203 770 l 458 516 l 713 770 l 777 707 l 522 452 l 773 201 l 707 136 l 456 385 l 205 135 l 141 198 l 393 450 z "},"Ø":{"ha":1040,"x_min":125,"x_max":918,"o":"m 297 26 q 130 355 146 100 q 125 519 125 433 q 130 679 125 606 q 149 810 135 751 q 188 915 163 869 q 255 990 214 960 q 501 1051 340 1051 l 543 1051 q 646 1045 600 1051 l 716 1252 l 806 1234 l 732 1025 q 835 959 798 1002 q 890 851 872 915 q 913 704 909 787 q 918 531 918 621 q 913 371 918 441 q 897 243 909 302 q 859 136 884 184 q 792 56 834 89 q 543 -14 705 -14 l 501 -14 q 378 -1 431 -14 l 303 -227 l 215 -210 l 297 26 m 613 946 q 550 951 580 951 l 493 951 q 281 844 328 951 q 250 684 252 777 q 247 519 247 592 l 247 446 q 335 133 247 208 l 475 532 l 613 946 m 410 94 q 501 84 450 84 l 542 84 q 666 100 616 84 q 743 157 715 117 q 796 446 796 233 l 796 519 q 784 759 796 697 q 750 858 771 821 q 694 918 730 895 l 557 532 l 410 94 z "},"Ù":{"ha":1040,"x_min":145,"x_max":896,"o":"m 145 1038 l 259 1038 l 259 483 q 273 259 259 319 q 306 169 288 199 q 355 121 325 139 q 510 86 411 86 q 658 103 608 86 q 735 164 708 120 q 772 286 763 208 q 782 483 782 363 l 782 1038 l 896 1038 l 896 487 q 883 247 896 313 q 847 134 870 180 q 783 56 825 88 q 524 -14 696 -14 q 193 133 268 -14 q 147 350 152 215 q 145 478 145 412 l 145 1038 m 351 1245 l 408 1356 l 693 1181 l 659 1118 l 351 1245 z "},"Ú":{"ha":1040,"x_min":145,"x_max":896,"o":"m 145 1038 l 259 1038 l 259 483 q 273 259 259 319 q 306 169 288 199 q 355 121 325 139 q 510 86 411 86 q 658 103 608 86 q 735 164 708 120 q 772 286 763 208 q 782 483 782 363 l 782 1038 l 896 1038 l 896 487 q 883 247 896 313 q 847 134 870 180 q 783 56 825 88 q 524 -14 696 -14 q 193 133 268 -14 q 147 350 152 215 q 145 478 145 412 l 145 1038 m 355 1181 l 637 1356 l 701 1249 l 389 1118 l 355 1181 z "},"Û":{"ha":1040,"x_min":145,"x_max":896,"o":"m 145 1038 l 259 1038 l 259 483 q 273 259 259 319 q 306 169 288 199 q 355 121 325 139 q 510 86 411 86 q 658 103 608 86 q 735 164 708 120 q 772 286 763 208 q 782 483 782 363 l 782 1038 l 896 1038 l 896 487 q 883 247 896 313 q 847 134 870 180 q 783 56 825 88 q 524 -14 696 -14 q 193 133 268 -14 q 147 350 152 215 q 145 478 145 412 l 145 1038 m 311 1183 l 463 1350 l 571 1350 l 729 1182 l 677 1128 l 516 1263 l 361 1127 l 311 1183 z "},"Ü":{"ha":1040,"x_min":145,"x_max":896,"o":"m 145 1038 l 259 1038 l 259 483 q 273 259 259 319 q 306 169 288 199 q 355 121 325 139 q 510 86 411 86 q 658 103 608 86 q 735 164 708 120 q 772 286 763 208 q 782 483 782 363 l 782 1038 l 896 1038 l 896 487 q 883 247 896 313 q 847 134 870 180 q 783 56 825 88 q 524 -14 696 -14 q 193 133 268 -14 q 147 350 152 215 q 145 478 145 412 l 145 1038 m 677 1164 q 622 1177 634 1164 q 603 1232 603 1196 q 607 1282 603 1267 q 619 1306 611 1297 q 666 1321 635 1321 q 712 1318 698 1321 q 734 1306 726 1314 q 751 1255 751 1290 q 747 1205 751 1220 q 734 1180 743 1190 q 677 1164 720 1164 m 366 1164 q 311 1177 323 1164 q 292 1232 292 1196 q 296 1282 292 1267 q 309 1306 300 1297 q 356 1321 324 1321 q 401 1318 387 1321 q 424 1306 415 1314 q 439 1255 439 1291 q 435 1205 439 1220 q 424 1180 432 1190 q 366 1164 409 1164 z "},"Ý":{"ha":810,"x_min":9,"x_max":801,"o":"m 347 383 l 9 1038 l 135 1038 l 357 592 l 407 477 l 456 594 l 673 1038 l 801 1038 l 463 383 l 462 0 l 348 0 l 347 383 m 261 1181 l 543 1356 l 606 1249 l 295 1118 l 261 1181 z "},"Þ":{"ha":925,"x_min":160,"x_max":838,"o":"m 621 178 q 607 175 621 178 q 565 171 593 172 q 468 169 537 169 q 275 187 398 169 l 275 0 l 160 0 l 160 1038 l 275 1038 l 275 862 q 532 876 425 876 q 695 857 640 876 q 783 802 751 838 q 838 595 838 739 q 822 385 838 448 q 783 286 805 321 q 732 228 762 250 q 675 195 702 205 q 621 178 648 184 m 676 736 q 666 747 676 736 q 625 767 656 758 q 512 777 593 777 q 275 764 431 777 l 275 283 q 478 269 378 269 q 620 285 578 269 q 682 339 661 301 q 709 440 703 377 q 715 575 715 503 q 705 681 715 647 q 676 736 696 715 z "},"ß":{"ha":1040,"x_min":176,"x_max":975,"o":"m 480 136 q 715 82 597 82 q 853 183 832 82 q 860 254 860 216 q 856 313 860 292 q 838 349 852 334 q 731 394 813 375 q 604 431 649 414 q 532 469 558 448 q 487 574 487 505 q 590 722 487 654 q 661 780 647 758 q 680 821 675 802 q 686 904 686 846 q 678 989 686 961 q 650 1036 671 1018 q 516 1073 608 1073 q 383 1055 425 1073 q 320 1000 341 1037 q 292 905 298 962 q 286 768 286 847 l 286 0 l 176 0 l 176 760 q 191 969 176 909 q 228 1065 206 1030 q 285 1123 250 1099 q 498 1170 357 1170 q 746 1099 681 1170 q 790 1011 779 1064 q 801 901 801 958 q 791 809 801 844 q 766 749 782 775 q 654 641 732 690 q 607 605 616 617 q 599 580 599 593 q 604 556 599 566 q 619 538 609 546 q 695 511 636 527 l 810 479 q 901 440 865 464 q 956 377 938 417 q 975 264 975 336 l 975 256 q 807 -4 975 31 q 690 -14 758 -14 q 434 42 558 -14 l 480 136 z "},"à":{"ha":925,"x_min":119,"x_max":782,"o":"m 769 286 q 782 5 769 151 l 682 -3 l 665 92 q 437 -5 578 22 q 355 -14 391 -14 q 291 -10 319 -14 q 238 3 264 -7 q 191 31 213 13 q 153 77 170 48 q 119 225 119 139 q 131 360 119 312 q 173 439 144 408 q 367 503 231 503 q 658 451 503 503 l 658 539 q 536 713 658 686 q 446 722 497 722 q 205 676 330 722 l 180 774 q 357 815 215 797 q 464 821 401 821 q 587 806 527 821 q 688 757 648 791 q 769 539 769 690 l 769 286 m 655 366 q 362 406 496 406 q 252 359 279 406 q 234 260 234 326 q 241 166 234 195 q 264 118 248 137 q 370 82 296 82 q 597 141 484 82 q 659 180 631 159 q 655 366 655 254 m 287 1162 l 372 1247 l 592 1008 l 536 949 l 287 1162 z "},"á":{"ha":925,"x_min":119,"x_max":782,"o":"m 769 286 q 782 5 769 151 l 682 -3 l 665 92 q 437 -5 578 22 q 355 -14 391 -14 q 291 -10 319 -14 q 238 3 264 -7 q 191 31 213 13 q 153 77 170 48 q 119 225 119 139 q 131 360 119 312 q 173 439 144 408 q 367 503 231 503 q 658 451 503 503 l 658 539 q 536 713 658 686 q 446 722 497 722 q 205 676 330 722 l 180 774 q 357 815 215 797 q 464 821 401 821 q 587 806 527 821 q 688 757 648 791 q 769 539 769 690 l 769 286 m 655 366 q 362 406 496 406 q 252 359 279 406 q 234 260 234 326 q 241 166 234 195 q 264 118 248 137 q 370 82 296 82 q 597 141 484 82 q 659 180 631 159 q 655 366 655 254 m 344 1008 l 563 1246 l 651 1164 l 400 949 l 344 1008 z "},"â":{"ha":925,"x_min":119,"x_max":782,"o":"m 769 286 q 782 5 769 151 l 682 -3 l 665 92 q 437 -5 578 22 q 355 -14 391 -14 q 291 -10 319 -14 q 238 3 264 -7 q 191 31 213 13 q 153 77 170 48 q 119 225 119 139 q 131 360 119 312 q 173 439 144 408 q 367 503 231 503 q 658 451 503 503 l 658 539 q 536 713 658 686 q 446 722 497 722 q 205 676 330 722 l 180 774 q 357 815 215 797 q 464 821 401 821 q 587 806 527 821 q 688 757 648 791 q 769 539 769 690 l 769 286 m 655 366 q 362 406 496 406 q 252 359 279 406 q 234 260 234 326 q 241 166 234 195 q 264 118 248 137 q 370 82 296 82 q 597 141 484 82 q 659 180 631 159 q 655 366 655 254 m 220 1003 l 409 1241 l 491 1241 l 686 1004 l 631 949 l 451 1129 l 275 949 l 220 1003 z "},"ã":{"ha":925,"x_min":119,"x_max":782,"o":"m 769 286 q 782 5 769 151 l 682 -3 l 665 92 q 437 -5 578 22 q 355 -14 391 -14 q 291 -10 319 -14 q 238 3 264 -7 q 191 31 213 13 q 153 77 170 48 q 119 225 119 139 q 131 360 119 312 q 173 439 144 408 q 367 503 231 503 q 658 451 503 503 l 658 539 q 536 713 658 686 q 446 722 497 722 q 205 676 330 722 l 180 774 q 357 815 215 797 q 464 821 401 821 q 587 806 527 821 q 688 757 648 791 q 769 539 769 690 l 769 286 m 655 366 q 362 406 496 406 q 252 359 279 406 q 234 260 234 326 q 241 166 234 195 q 264 118 248 137 q 370 82 296 82 q 597 141 484 82 q 659 180 631 159 q 655 366 655 254 m 713 1112 q 533 956 646 956 q 443 997 500 956 q 401 1024 422 1012 q 364 1037 380 1037 q 334 1030 348 1037 q 304 1013 320 1023 q 273 987 289 1002 l 241 960 l 193 1003 q 279 1104 231 1073 q 374 1136 327 1136 l 382 1136 q 475 1097 420 1136 l 513 1071 q 546 1059 530 1059 q 575 1066 562 1059 q 602 1087 589 1074 q 628 1116 615 1100 l 654 1150 l 713 1112 z "},"ä":{"ha":925,"x_min":119,"x_max":782,"o":"m 769 286 q 782 5 769 151 l 682 -3 l 665 92 q 437 -5 578 22 q 355 -14 391 -14 q 291 -10 319 -14 q 238 3 264 -7 q 191 31 213 13 q 153 77 170 48 q 119 225 119 139 q 131 360 119 312 q 173 439 144 408 q 367 503 231 503 q 658 451 503 503 l 658 539 q 536 713 658 686 q 446 722 497 722 q 205 676 330 722 l 180 774 q 357 815 215 797 q 464 821 401 821 q 587 806 527 821 q 688 757 648 791 q 769 539 769 690 l 769 286 m 655 366 q 362 406 496 406 q 252 359 279 406 q 234 260 234 326 q 241 166 234 195 q 264 118 248 137 q 370 82 296 82 q 597 141 484 82 q 659 180 631 159 q 655 366 655 254 m 608 1004 q 553 1017 566 1004 q 534 1072 534 1036 q 538 1122 534 1107 q 551 1146 543 1137 q 598 1161 566 1161 q 644 1158 629 1161 q 666 1146 658 1154 q 682 1095 682 1130 q 679 1045 682 1060 q 666 1020 675 1029 q 608 1004 652 1004 m 298 1004 q 243 1017 255 1004 q 224 1072 224 1036 q 228 1122 224 1107 q 240 1146 232 1137 q 287 1161 256 1161 q 333 1158 319 1161 q 355 1146 347 1154 q 370 1095 370 1131 q 367 1045 370 1060 q 355 1020 363 1029 q 298 1004 340 1004 z "},"å":{"ha":925,"x_min":119,"x_max":782,"o":"m 769 286 q 782 5 769 151 l 682 -3 l 665 92 q 437 -5 578 22 q 355 -14 391 -14 q 291 -10 319 -14 q 238 3 264 -7 q 191 31 213 13 q 153 77 170 48 q 119 225 119 139 q 131 360 119 312 q 173 439 144 408 q 367 503 231 503 q 658 451 503 503 l 658 539 q 536 713 658 686 q 446 722 497 722 q 205 676 330 722 l 180 774 q 357 815 215 797 q 464 821 401 821 q 587 806 527 821 q 688 757 648 791 q 769 539 769 690 l 769 286 m 655 366 q 362 406 496 406 q 252 359 279 406 q 234 260 234 326 q 241 166 234 195 q 264 118 248 137 q 370 82 296 82 q 597 141 484 82 q 659 180 631 159 q 655 366 655 254 m 473 925 q 321 1002 359 925 q 307 1068 307 1029 q 320 1135 307 1107 q 356 1181 334 1163 q 473 1214 398 1214 q 626 1135 589 1214 q 640 1068 640 1107 q 626 1003 640 1029 q 591 959 613 976 q 473 925 547 925 m 393 1068 q 472 998 393 998 q 551 1068 551 998 q 472 1141 551 1141 q 393 1068 393 1141 z "},"æ":{"ha":1502,"x_min":155,"x_max":1348,"o":"m 1343 43 q 1033 -14 1202 -14 q 756 85 839 -14 q 741 108 749 94 l 701 81 q 472 -5 606 19 q 391 -14 427 -14 q 327 -10 355 -14 q 274 3 300 -7 q 227 31 249 13 q 189 77 205 48 q 155 248 155 139 q 205 435 155 372 q 395 508 262 508 q 696 456 529 508 l 695 539 q 572 713 695 686 q 482 722 533 722 q 241 676 366 722 l 216 774 q 392 815 251 797 q 511 821 437 821 q 655 794 585 821 q 761 705 725 768 l 761 704 l 762 705 q 870 795 798 770 q 1044 821 943 821 q 1204 797 1145 821 q 1296 730 1264 774 q 1337 623 1327 686 q 1348 503 1348 560 q 1343 364 1348 413 q 1173 360 1248 360 l 1066 360 q 800 373 880 360 q 841 157 800 218 q 1033 83 890 83 q 1310 140 1176 83 l 1343 43 m 1233 456 l 1233 521 q 1194 673 1233 627 q 1036 724 1149 724 q 849 665 899 724 q 800 456 800 608 l 1233 456 m 270 261 q 270 228 270 261 q 277 167 270 195 q 300 122 284 139 q 406 89 332 89 q 647 144 528 89 q 711 183 684 161 q 694 373 697 250 q 398 410 557 410 q 289 361 315 410 q 270 261 270 326 z "},"ç":{"ha":811,"x_min":126,"x_max":712,"o":"m 358 -191 q 417 -197 390 -197 q 464 -183 444 -197 q 484 -140 484 -169 q 423 -13 484 -80 q 236 37 299 -9 q 159 135 182 77 q 130 277 134 201 q 126 405 126 353 q 129 507 126 457 q 142 603 132 557 q 174 689 153 649 q 233 758 196 728 q 465 821 314 821 q 670 788 576 821 q 708 772 695 780 l 674 672 q 461 722 544 722 q 339 703 378 722 q 278 646 300 684 q 241 401 241 579 q 246 272 241 330 q 270 171 251 213 q 435 84 310 84 q 678 127 560 84 l 712 36 q 516 -11 638 -2 q 578 -148 578 -75 q 432 -290 578 -290 q 341 -277 373 -290 l 358 -191 z "},"è":{"ha":925,"x_min":128,"x_max":791,"o":"m 783 43 q 473 -14 643 -14 q 307 7 375 -14 q 161 136 197 38 q 128 407 128 227 l 128 441 q 218 743 128 656 q 487 821 298 821 q 738 730 671 821 q 781 623 770 686 q 791 503 791 560 q 787 366 791 414 q 616 361 692 361 q 507 361 616 361 q 243 376 336 361 q 283 159 243 220 q 475 83 331 83 q 750 140 618 83 l 783 43 m 677 456 l 677 521 q 635 673 677 627 q 476 724 589 724 q 291 665 340 724 q 243 456 243 608 l 677 456 m 296 1162 l 380 1247 l 601 1008 l 545 949 l 296 1162 z "},"é":{"ha":925,"x_min":128,"x_max":791,"o":"m 783 43 q 473 -14 643 -14 q 307 7 375 -14 q 161 136 197 38 q 128 407 128 227 l 128 441 q 218 743 128 656 q 487 821 298 821 q 738 730 671 821 q 781 623 770 686 q 791 503 791 560 q 787 366 791 414 q 616 361 692 361 q 507 361 616 361 q 243 376 336 361 q 283 159 243 220 q 475 83 331 83 q 750 140 618 83 l 783 43 m 677 456 l 677 521 q 635 673 677 627 q 476 724 589 724 q 291 665 340 724 q 243 456 243 608 l 677 456 m 347 1008 l 566 1246 l 654 1164 l 404 949 l 347 1008 z "},"ê":{"ha":925,"x_min":128,"x_max":791,"o":"m 783 43 q 473 -14 643 -14 q 307 7 375 -14 q 161 136 197 38 q 128 407 128 227 l 128 441 q 218 743 128 656 q 487 821 298 821 q 738 730 671 821 q 781 623 770 686 q 791 503 791 560 q 787 366 791 414 q 616 361 692 361 q 507 361 616 361 q 243 376 336 361 q 283 159 243 220 q 475 83 331 83 q 750 140 618 83 l 783 43 m 677 456 l 677 521 q 635 673 677 627 q 476 724 589 724 q 291 665 340 724 q 243 456 243 608 l 677 456 m 237 1003 l 426 1241 l 508 1241 l 703 1004 l 648 949 l 468 1129 l 292 949 l 237 1003 z "},"ë":{"ha":925,"x_min":128,"x_max":791,"o":"m 783 43 q 473 -14 643 -14 q 307 7 375 -14 q 161 136 197 38 q 128 407 128 227 l 128 441 q 218 743 128 656 q 487 821 298 821 q 738 730 671 821 q 781 623 770 686 q 791 503 791 560 q 787 366 791 414 q 616 361 692 361 q 507 361 616 361 q 243 376 336 361 q 283 159 243 220 q 475 83 331 83 q 750 140 618 83 l 783 43 m 677 456 l 677 521 q 635 673 677 627 q 476 724 589 724 q 291 665 340 724 q 243 456 243 608 l 677 456 m 616 1004 q 562 1017 574 1004 q 543 1072 543 1036 q 547 1122 543 1107 q 559 1146 551 1137 q 606 1161 574 1161 q 652 1158 637 1161 q 674 1146 666 1154 q 690 1095 690 1130 q 687 1045 690 1060 q 674 1020 683 1029 q 616 1004 660 1004 m 306 1004 q 251 1017 263 1004 q 232 1072 232 1036 q 236 1122 232 1107 q 248 1146 240 1137 q 295 1161 264 1161 q 341 1158 327 1161 q 363 1146 355 1154 q 378 1095 378 1131 q 375 1045 378 1060 q 363 1020 372 1029 q 306 1004 349 1004 z "},"ì":{"ha":463,"x_min":26,"x_max":332,"o":"m 177 806 l 288 806 l 288 0 l 178 0 l 177 806 m 26 1162 l 111 1247 l 332 1008 l 275 949 l 26 1162 z "},"í":{"ha":463,"x_min":139,"x_max":446,"o":"m 177 806 l 288 806 l 288 0 l 178 0 l 177 806 m 139 1008 l 358 1246 l 446 1164 l 195 949 l 139 1008 z "},"î":{"ha":463,"x_min":0,"x_max":467,"o":"m 177 806 l 288 806 l 288 0 l 178 0 l 177 806 m 0 1003 l 189 1241 l 271 1241 l 467 1004 l 412 949 l 231 1129 l 56 949 l 0 1003 z "},"ï":{"ha":463,"x_min":4,"x_max":463,"o":"m 177 806 l 288 806 l 288 0 l 178 0 l 177 806 m 389 1004 q 334 1017 346 1004 q 315 1072 315 1036 q 319 1122 315 1107 q 331 1146 323 1137 q 378 1161 347 1161 q 424 1158 410 1161 q 446 1146 438 1154 q 463 1095 463 1130 q 459 1045 463 1060 q 446 1020 455 1029 q 389 1004 432 1004 m 78 1004 q 23 1017 35 1004 q 4 1072 4 1036 q 8 1122 4 1107 q 20 1146 12 1137 q 67 1161 36 1161 q 113 1158 99 1161 q 136 1146 127 1154 q 151 1095 151 1131 q 147 1045 151 1060 q 136 1020 144 1029 q 78 1004 121 1004 z "},"ð":{"ha":926,"x_min":121,"x_max":815,"o":"m 815 307 q 431 -14 815 -14 q 169 91 237 -14 q 123 228 130 150 q 121 300 121 265 l 121 425 q 130 549 121 495 q 170 640 140 604 q 401 715 229 715 q 642 669 523 715 q 703 640 677 655 q 703 659 703 648 l 701 681 q 547 962 691 844 l 423 840 l 357 907 l 477 1013 q 297 1107 401 1061 l 345 1192 q 544 1083 468 1133 l 661 1206 l 725 1134 l 617 1029 q 784 800 742 927 q 815 536 815 707 l 815 307 m 699 551 q 411 615 568 615 q 315 605 340 615 q 276 580 290 595 q 254 541 262 566 q 237 397 237 494 l 237 300 q 271 138 237 182 q 420 88 310 88 l 457 88 q 654 153 601 88 q 699 341 699 208 l 699 551 z "},"ñ":{"ha":925,"x_min":151,"x_max":779,"o":"m 533 715 q 264 637 401 715 l 264 0 l 151 0 l 151 807 l 250 807 l 261 724 q 445 810 335 784 q 550 821 490 821 q 656 807 610 821 q 730 762 703 793 q 779 562 779 707 l 779 0 l 665 0 l 665 541 q 646 667 665 639 q 601 705 627 695 q 533 715 575 715 m 731 1112 q 551 956 664 956 q 460 997 518 956 q 419 1024 439 1012 q 382 1037 398 1037 q 352 1030 366 1037 q 322 1013 338 1023 q 290 987 307 1002 l 259 960 l 211 1003 q 297 1104 249 1073 q 391 1136 345 1136 l 400 1136 q 492 1097 437 1136 l 530 1071 q 564 1059 548 1059 q 593 1066 579 1059 q 620 1087 606 1074 q 646 1116 633 1100 l 672 1150 l 731 1112 z "},"ò":{"ha":924,"x_min":127,"x_max":797,"o":"m 127 401 q 143 616 127 555 q 181 713 159 677 q 243 772 204 749 q 471 821 320 821 q 752 713 690 821 q 795 529 789 648 q 797 405 797 473 q 792 278 797 337 q 775 173 788 220 q 739 91 762 126 q 678 33 716 56 q 460 -14 604 -14 q 179 92 246 -14 q 131 277 138 158 q 127 401 127 334 m 312 119 q 324 110 312 119 q 373 91 336 100 q 474 82 410 82 q 582 100 538 82 q 648 159 626 119 q 676 264 670 199 q 682 414 682 328 q 676 556 682 499 q 651 650 671 613 q 470 724 610 724 q 277 650 321 724 q 248 555 254 613 q 242 430 242 498 q 244 315 242 362 q 253 230 245 268 q 274 165 260 193 q 312 119 288 137 m 271 1162 l 355 1247 l 576 1008 l 519 949 l 271 1162 z "},"ó":{"ha":924,"x_min":127,"x_max":797,"o":"m 127 401 q 143 616 127 555 q 181 713 159 677 q 243 772 204 749 q 471 821 320 821 q 752 713 690 821 q 795 529 789 648 q 797 405 797 473 q 792 278 797 337 q 775 173 788 220 q 739 91 762 126 q 678 33 716 56 q 460 -14 604 -14 q 179 92 246 -14 q 131 277 138 158 q 127 401 127 334 m 312 119 q 324 110 312 119 q 373 91 336 100 q 474 82 410 82 q 582 100 538 82 q 648 159 626 119 q 676 264 670 199 q 682 414 682 328 q 676 556 682 499 q 651 650 671 613 q 470 724 610 724 q 277 650 321 724 q 248 555 254 613 q 242 430 242 498 q 244 315 242 362 q 253 230 245 268 q 274 165 260 193 q 312 119 288 137 m 368 1008 l 587 1246 l 675 1164 l 425 949 l 368 1008 z "},"ô":{"ha":924,"x_min":127,"x_max":797,"o":"m 127 401 q 143 616 127 555 q 181 713 159 677 q 243 772 204 749 q 471 821 320 821 q 752 713 690 821 q 795 529 789 648 q 797 405 797 473 q 792 278 797 337 q 775 173 788 220 q 739 91 762 126 q 678 33 716 56 q 460 -14 604 -14 q 179 92 246 -14 q 131 277 138 158 q 127 401 127 334 m 312 119 q 324 110 312 119 q 373 91 336 100 q 474 82 410 82 q 582 100 538 82 q 648 159 626 119 q 676 264 670 199 q 682 414 682 328 q 676 556 682 499 q 651 650 671 613 q 470 724 610 724 q 277 650 321 724 q 248 555 254 613 q 242 430 242 498 q 244 315 242 362 q 253 230 245 268 q 274 165 260 193 q 312 119 288 137 m 237 1003 l 427 1241 l 509 1241 l 704 1004 l 649 949 l 469 1129 l 293 949 l 237 1003 z "},"õ":{"ha":924,"x_min":127,"x_max":797,"o":"m 127 401 q 143 616 127 555 q 181 713 159 677 q 243 772 204 749 q 471 821 320 821 q 752 713 690 821 q 795 529 789 648 q 797 405 797 473 q 792 278 797 337 q 775 173 788 220 q 739 91 762 126 q 678 33 716 56 q 460 -14 604 -14 q 179 92 246 -14 q 131 277 138 158 q 127 401 127 334 m 312 119 q 324 110 312 119 q 373 91 336 100 q 474 82 410 82 q 582 100 538 82 q 648 159 626 119 q 676 264 670 199 q 682 414 682 328 q 676 556 682 499 q 651 650 671 613 q 470 724 610 724 q 277 650 321 724 q 248 555 254 613 q 242 430 242 498 q 244 315 242 362 q 253 230 245 268 q 274 165 260 193 q 312 119 288 137 m 725 1112 q 545 956 658 956 q 454 997 512 956 q 413 1024 433 1012 q 376 1037 392 1037 q 346 1030 359 1037 q 316 1013 332 1023 q 284 987 300 1002 l 253 960 l 205 1003 q 291 1104 243 1073 q 385 1136 338 1136 l 394 1136 q 486 1097 431 1136 l 524 1071 q 557 1059 542 1059 q 587 1066 573 1059 q 613 1087 600 1074 q 640 1116 627 1100 l 666 1150 l 725 1112 z "},"ö":{"ha":924,"x_min":127,"x_max":797,"o":"m 127 401 q 143 616 127 555 q 181 713 159 677 q 243 772 204 749 q 471 821 320 821 q 752 713 690 821 q 795 529 789 648 q 797 405 797 473 q 792 278 797 337 q 775 173 788 220 q 739 91 762 126 q 678 33 716 56 q 460 -14 604 -14 q 179 92 246 -14 q 131 277 138 158 q 127 401 127 334 m 312 119 q 324 110 312 119 q 373 91 336 100 q 474 82 410 82 q 582 100 538 82 q 648 159 626 119 q 676 264 670 199 q 682 414 682 328 q 676 556 682 499 q 651 650 671 613 q 470 724 610 724 q 277 650 321 724 q 248 555 254 613 q 242 430 242 498 q 244 315 242 362 q 253 230 245 268 q 274 165 260 193 q 312 119 288 137 m 618 1004 q 564 1017 576 1004 q 545 1072 545 1036 q 549 1122 545 1107 q 561 1146 553 1137 q 608 1161 576 1161 q 654 1158 640 1161 q 676 1146 668 1154 q 692 1095 692 1130 q 689 1045 692 1060 q 676 1020 685 1029 q 618 1004 662 1004 m 308 1004 q 253 1017 265 1004 q 234 1072 234 1036 q 238 1122 234 1107 q 250 1146 242 1137 q 297 1161 266 1161 q 343 1158 329 1161 q 366 1146 357 1154 q 380 1095 380 1131 q 377 1045 380 1060 q 366 1020 374 1029 q 308 1004 351 1004 z "},"÷":{"ha":810,"x_min":73,"x_max":738,"o":"m 404 652 q 347 665 360 652 q 328 723 328 685 q 332 778 328 762 q 345 803 336 793 q 393 819 361 819 q 440 815 426 819 q 463 803 454 812 q 478 736 478 786 q 467 673 478 686 q 404 652 448 652 m 73 479 l 738 479 l 738 389 l 73 389 l 73 479 m 347 65 q 341 72 347 65 q 332 95 335 79 q 328 136 328 111 q 332 177 328 161 q 345 202 336 193 q 393 219 361 219 q 440 215 426 219 q 463 202 454 212 q 478 149 478 186 q 475 96 478 112 q 463 69 471 79 q 404 52 448 52 q 347 65 359 52 z "},"ø":{"ha":924,"x_min":127,"x_max":797,"o":"m 242 772 q 262 784 242 772 q 337 808 281 796 q 453 821 393 821 q 559 816 513 821 l 627 1022 l 718 1004 l 644 797 q 775 659 745 761 q 797 407 797 587 q 780 189 797 252 q 739 91 762 126 q 678 33 716 56 q 460 -14 604 -14 q 366 -7 408 -14 l 294 -227 l 205 -210 l 283 12 q 153 149 186 47 q 127 401 127 227 q 143 616 127 555 q 181 713 159 677 q 242 772 204 749 m 528 720 q 442 724 494 724 q 345 706 391 724 q 277 650 300 688 q 248 555 254 613 q 242 429 242 498 q 244 312 242 360 q 254 225 246 263 q 319 113 269 146 l 428 420 l 528 720 m 397 86 q 482 82 426 82 q 582 100 538 82 q 648 159 626 119 q 676 264 670 199 q 682 401 682 328 q 680 518 682 475 q 670 596 677 562 q 607 695 654 666 l 500 397 l 397 86 z "},"ù":{"ha":925,"x_min":146,"x_max":774,"o":"m 762 355 q 774 5 762 132 l 673 -3 l 657 93 q 472 -2 578 27 q 372 -14 430 -14 q 268 0 314 -14 q 195 45 222 14 q 146 245 146 100 l 146 807 l 260 807 l 260 263 q 279 137 260 165 q 324 99 298 109 q 386 90 350 90 q 455 95 422 90 q 523 112 489 101 q 652 175 594 135 l 652 176 q 649 376 649 227 l 649 807 l 762 807 l 762 355 m 265 1162 l 350 1247 l 570 1008 l 514 949 l 265 1162 z "},"ú":{"ha":925,"x_min":146,"x_max":774,"o":"m 762 355 q 774 5 762 132 l 673 -3 l 657 93 q 472 -2 578 27 q 372 -14 430 -14 q 268 0 314 -14 q 195 45 222 14 q 146 245 146 100 l 146 807 l 260 807 l 260 263 q 279 137 260 165 q 324 99 298 109 q 386 90 350 90 q 455 95 422 90 q 523 112 489 101 q 652 175 594 135 l 652 176 q 649 376 649 227 l 649 807 l 762 807 l 762 355 m 347 1008 l 566 1246 l 654 1164 l 404 949 l 347 1008 z "},"û":{"ha":925,"x_min":146,"x_max":774,"o":"m 762 355 q 774 5 762 132 l 673 -3 l 657 93 q 472 -2 578 27 q 372 -14 430 -14 q 268 0 314 -14 q 195 45 222 14 q 146 245 146 100 l 146 807 l 260 807 l 260 263 q 279 137 260 165 q 324 99 298 109 q 386 90 350 90 q 455 95 422 90 q 523 112 489 101 q 652 175 594 135 l 652 176 q 649 376 649 227 l 649 807 l 762 807 l 762 355 m 224 1003 l 413 1241 l 495 1241 l 690 1004 l 635 949 l 455 1129 l 279 949 l 224 1003 z "},"ü":{"ha":925,"x_min":146,"x_max":774,"o":"m 762 355 q 774 5 762 132 l 673 -3 l 657 93 q 472 -2 578 27 q 372 -14 430 -14 q 268 0 314 -14 q 195 45 222 14 q 146 245 146 100 l 146 807 l 260 807 l 260 263 q 279 137 260 165 q 324 99 298 109 q 386 90 350 90 q 455 95 422 90 q 523 112 489 101 q 652 175 594 135 l 652 176 q 649 376 649 227 l 649 807 l 762 807 l 762 355 m 608 1004 q 553 1017 566 1004 q 534 1072 534 1036 q 538 1122 534 1107 q 551 1146 543 1137 q 598 1161 566 1161 q 644 1158 629 1161 q 666 1146 658 1154 q 682 1095 682 1130 q 679 1045 682 1060 q 666 1020 675 1029 q 608 1004 652 1004 m 298 1004 q 243 1017 255 1004 q 224 1072 224 1036 q 228 1122 224 1107 q 240 1146 232 1137 q 287 1161 256 1161 q 333 1158 319 1161 q 355 1146 347 1154 q 370 1095 370 1131 q 367 1045 370 1060 q 355 1020 363 1029 q 298 1004 340 1004 z "},"ý":{"ha":808,"x_min":50,"x_max":750,"o":"m 134 -195 q 215 -213 183 -213 q 256 -211 246 -213 q 276 -204 266 -210 q 311 -162 300 -191 q 361 -10 340 -93 l 50 807 l 175 807 l 385 212 l 417 108 l 446 213 l 632 807 l 750 807 l 410 -191 q 237 -308 372 -308 q 103 -283 152 -308 l 134 -195 m 288 1008 l 507 1246 l 595 1164 l 344 949 l 288 1008 z "},"þ":{"ha":925,"x_min":147,"x_max":798,"o":"m 257 75 l 257 -309 l 147 -309 l 147 1154 l 260 1165 l 260 730 q 531 821 400 821 q 762 709 713 821 q 796 511 792 638 q 798 375 798 449 l 798 321 q 786 181 798 228 q 755 101 774 134 q 705 42 737 67 q 507 -14 636 -14 q 257 75 378 -14 m 260 164 q 502 86 404 86 l 510 86 q 659 151 626 86 q 681 235 677 183 q 685 361 685 288 l 685 458 q 650 662 685 610 q 522 714 616 714 l 505 714 q 308 664 420 714 q 260 640 279 651 l 260 164 z "},"ÿ":{"ha":808,"x_min":50,"x_max":750,"o":"m 134 -195 q 215 -213 183 -213 q 256 -211 246 -213 q 276 -204 266 -210 q 311 -162 300 -191 q 361 -10 340 -93 l 50 807 l 175 807 l 385 212 l 417 108 l 446 213 l 632 807 l 750 807 l 410 -191 q 237 -308 372 -308 q 103 -283 152 -308 l 134 -195 m 556 1004 q 501 1017 513 1004 q 482 1072 482 1036 q 486 1122 482 1107 q 498 1146 490 1137 q 546 1161 514 1161 q 591 1158 577 1161 q 614 1146 606 1154 q 630 1095 630 1130 q 626 1045 630 1060 q 614 1020 623 1029 q 556 1004 600 1004 m 245 1004 q 191 1017 203 1004 q 172 1072 172 1036 q 176 1122 172 1107 q 188 1146 180 1137 q 235 1161 203 1161 q 280 1158 267 1161 q 303 1146 294 1154 q 318 1095 318 1131 q 315 1045 318 1060 q 303 1020 311 1029 q 245 1004 288 1004 z "},"Ā":{"ha":925,"x_min":33,"x_max":894,"o":"m 373 1038 l 531 1038 l 894 0 l 771 0 l 668 304 l 250 304 l 153 0 l 33 0 l 373 1038 m 635 401 l 452 946 l 431 869 l 281 401 l 635 401 m 246 1272 l 652 1272 l 652 1181 l 246 1181 l 246 1272 z "},"ā":{"ha":925,"x_min":119,"x_max":782,"o":"m 769 286 q 782 5 769 151 l 682 -3 l 665 92 q 437 -5 578 22 q 355 -14 391 -14 q 291 -10 319 -14 q 238 3 264 -7 q 191 31 213 13 q 153 77 170 48 q 119 225 119 139 q 131 360 119 312 q 173 439 144 408 q 367 503 231 503 q 658 451 503 503 l 658 539 q 536 713 658 686 q 446 722 497 722 q 205 676 330 722 l 180 774 q 357 815 215 797 q 464 821 401 821 q 587 806 527 821 q 688 757 648 791 q 769 539 769 690 l 769 286 m 655 366 q 362 406 496 406 q 252 359 279 406 q 234 260 234 326 q 241 166 234 195 q 264 118 248 137 q 370 82 296 82 q 597 141 484 82 q 659 180 631 159 q 655 366 655 254 m 264 1128 l 671 1128 l 671 1036 l 264 1036 l 264 1128 z "},"Ă":{"ha":925,"x_min":33,"x_max":894,"o":"m 373 1038 l 531 1038 l 894 0 l 771 0 l 668 304 l 250 304 l 153 0 l 33 0 l 373 1038 m 635 401 l 452 946 l 431 869 l 281 401 l 635 401 m 663 1349 q 445 1118 656 1118 q 282 1177 338 1118 q 227 1349 227 1236 l 319 1356 q 352 1239 321 1275 q 445 1202 382 1202 q 562 1283 540 1202 q 570 1356 569 1313 l 663 1349 z "},"ă":{"ha":925,"x_min":119,"x_max":782,"o":"m 769 286 q 782 5 769 151 l 682 -3 l 665 92 q 437 -5 578 22 q 355 -14 391 -14 q 291 -10 319 -14 q 238 3 264 -7 q 191 31 213 13 q 153 77 170 48 q 119 225 119 139 q 131 360 119 312 q 173 439 144 408 q 367 503 231 503 q 658 451 503 503 l 658 539 q 536 713 658 686 q 446 722 497 722 q 205 676 330 722 l 180 774 q 357 815 215 797 q 464 821 401 821 q 587 806 527 821 q 688 757 648 791 q 769 539 769 690 l 769 286 m 655 366 q 362 406 496 406 q 252 359 279 406 q 234 260 234 326 q 241 166 234 195 q 264 118 248 137 q 370 82 296 82 q 597 141 484 82 q 659 180 631 159 q 655 366 655 254 m 686 1175 q 468 945 679 945 q 306 1004 361 945 q 250 1175 250 1063 l 342 1183 q 375 1065 344 1101 q 468 1029 406 1029 q 585 1110 563 1029 q 593 1183 592 1139 l 686 1175 z "},"Ą":{"ha":925,"x_min":33,"x_max":959,"o":"m 662 -186 q 782 0 662 -83 l 771 0 l 668 304 l 250 304 l 153 0 l 33 0 l 373 1038 l 531 1038 l 894 0 l 888 0 q 766 -134 791 -59 q 760 -170 760 -155 q 831 -229 760 -229 q 932 -208 882 -229 l 959 -293 q 838 -321 914 -321 q 662 -186 662 -321 m 635 401 l 452 946 l 431 869 l 281 401 l 635 401 z "},"ą":{"ha":925,"x_min":119,"x_max":852,"o":"m 555 -187 q 680 3 555 -83 l 665 92 q 437 -5 578 22 q 355 -14 391 -14 q 291 -10 319 -14 q 238 3 264 -7 q 191 31 213 13 q 153 77 170 48 q 119 225 119 139 q 131 360 119 312 q 173 439 144 408 q 367 503 231 503 q 658 451 503 503 l 658 539 q 536 713 658 686 q 446 722 497 722 q 205 676 330 722 l 180 774 q 357 815 215 797 q 464 821 401 821 q 587 806 527 821 q 688 757 648 791 q 769 539 769 690 l 769 286 q 783 0 769 136 q 659 -134 684 -60 q 652 -171 652 -155 q 724 -230 652 -230 q 825 -209 774 -230 l 852 -294 q 731 -322 807 -322 q 555 -187 555 -322 m 655 366 q 362 406 496 406 q 252 359 279 406 q 234 260 234 326 q 241 166 234 195 q 264 118 248 137 q 370 82 296 82 q 597 141 484 82 q 659 180 631 159 q 655 366 655 254 z "},"Ć":{"ha":810,"x_min":124,"x_max":775,"o":"m 523 84 q 745 127 633 84 l 775 33 q 651 -3 724 7 q 523 -14 578 -14 l 513 -14 q 190 125 272 -14 q 129 351 140 209 q 124 501 124 420 q 129 656 124 583 q 146 791 133 730 q 186 901 160 852 q 255 982 212 949 q 511 1051 343 1051 q 686 1037 620 1051 q 775 1015 752 1023 l 745 907 q 518 954 612 954 q 374 931 425 954 q 295 856 323 908 q 245 515 245 766 l 245 465 q 299 176 245 258 q 517 84 359 84 l 523 84 m 374 1181 l 656 1356 l 719 1249 l 408 1118 l 374 1181 z "},"ć":{"ha":811,"x_min":126,"x_max":712,"o":"m 712 36 q 454 -14 618 -14 q 311 1 357 -14 q 159 135 195 41 q 130 277 134 201 q 126 405 126 353 q 129 507 126 457 q 142 603 132 557 q 174 689 153 649 q 233 758 196 728 q 465 821 314 821 q 670 788 576 821 q 708 772 695 780 l 674 672 q 461 722 544 722 q 339 703 378 722 q 278 646 300 684 q 241 401 241 579 q 246 272 241 330 q 270 171 251 213 q 435 84 310 84 q 678 127 560 84 l 712 36 m 306 1008 l 525 1246 l 613 1164 l 362 949 l 306 1008 z "},"Ĉ":{"ha":810,"x_min":124,"x_max":775,"o":"m 523 84 q 745 127 633 84 l 775 33 q 651 -3 724 7 q 523 -14 578 -14 l 513 -14 q 190 125 272 -14 q 129 351 140 209 q 124 501 124 420 q 129 656 124 583 q 146 791 133 730 q 186 901 160 852 q 255 982 212 949 q 511 1051 343 1051 q 686 1037 620 1051 q 775 1015 752 1023 l 745 907 q 518 954 612 954 q 374 931 425 954 q 295 856 323 908 q 245 515 245 766 l 245 465 q 299 176 245 258 q 517 84 359 84 l 523 84 m 274 1183 l 426 1350 l 534 1350 l 692 1182 l 640 1128 l 479 1263 l 324 1127 l 274 1183 z "},"ĉ":{"ha":811,"x_min":126,"x_max":712,"o":"m 712 36 q 454 -14 618 -14 q 311 1 357 -14 q 159 135 195 41 q 130 277 134 201 q 126 405 126 353 q 129 507 126 457 q 142 603 132 557 q 174 689 153 649 q 233 758 196 728 q 465 821 314 821 q 670 788 576 821 q 708 772 695 780 l 674 672 q 461 722 544 722 q 339 703 378 722 q 278 646 300 684 q 241 401 241 579 q 246 272 241 330 q 270 171 251 213 q 435 84 310 84 q 678 127 560 84 l 712 36 m 215 1003 l 404 1241 l 486 1241 l 682 1004 l 627 949 l 446 1129 l 271 949 l 215 1003 z "},"Ċ":{"ha":810,"x_min":124,"x_max":775,"o":"m 523 84 q 745 127 633 84 l 775 33 q 651 -3 724 7 q 523 -14 578 -14 l 513 -14 q 190 125 272 -14 q 129 351 140 209 q 124 501 124 420 q 129 656 124 583 q 146 791 133 730 q 186 901 160 852 q 255 982 212 949 q 511 1051 343 1051 q 686 1037 620 1051 q 775 1015 752 1023 l 745 907 q 518 954 612 954 q 374 931 425 954 q 295 856 323 908 q 245 515 245 766 l 245 465 q 299 176 245 258 q 517 84 359 84 l 523 84 m 476 1160 q 418 1173 431 1160 q 397 1231 397 1194 q 402 1284 397 1268 q 416 1309 406 1300 q 465 1325 431 1325 q 513 1322 498 1325 q 536 1309 528 1318 q 553 1256 553 1293 q 550 1203 553 1219 q 536 1177 546 1187 q 476 1160 520 1160 z "},"ċ":{"ha":811,"x_min":126,"x_max":712,"o":"m 712 36 q 454 -14 618 -14 q 311 1 357 -14 q 159 135 195 41 q 130 277 134 201 q 126 405 126 353 q 129 507 126 457 q 142 603 132 557 q 174 689 153 649 q 233 758 196 728 q 465 821 314 821 q 670 788 576 821 q 708 772 695 780 l 674 672 q 461 722 544 722 q 339 703 378 722 q 278 646 300 684 q 241 401 241 579 q 246 272 241 330 q 270 171 251 213 q 435 84 310 84 q 678 127 560 84 l 712 36 m 452 1000 q 393 1013 406 1000 q 373 1071 373 1034 q 377 1124 373 1108 q 391 1149 382 1140 q 440 1165 407 1165 q 489 1162 474 1165 q 513 1149 503 1158 q 529 1096 529 1133 q 525 1043 529 1059 q 513 1017 522 1027 q 452 1000 496 1000 z "},"Č":{"ha":810,"x_min":124,"x_max":775,"o":"m 523 84 q 745 127 633 84 l 775 33 q 651 -3 724 7 q 523 -14 578 -14 l 513 -14 q 190 125 272 -14 q 129 351 140 209 q 124 501 124 420 q 129 656 124 583 q 146 791 133 730 q 186 901 160 852 q 255 982 212 949 q 511 1051 343 1051 q 686 1037 620 1051 q 775 1015 752 1023 l 745 907 q 518 954 612 954 q 374 931 425 954 q 295 856 323 908 q 245 515 245 766 l 245 465 q 299 176 245 258 q 517 84 359 84 l 523 84 m 265 1300 l 317 1354 l 478 1219 l 633 1355 l 684 1299 l 532 1132 l 423 1132 l 265 1300 z "},"č":{"ha":811,"x_min":126,"x_max":712,"o":"m 712 36 q 454 -14 618 -14 q 311 1 357 -14 q 159 135 195 41 q 130 277 134 201 q 126 405 126 353 q 129 507 126 457 q 142 603 132 557 q 174 689 153 649 q 233 758 196 728 q 465 821 314 821 q 670 788 576 821 q 708 772 695 780 l 674 672 q 461 722 544 722 q 339 703 378 722 q 278 646 300 684 q 241 401 241 579 q 246 272 241 330 q 270 171 251 213 q 435 84 310 84 q 678 127 560 84 l 712 36 m 220 1192 l 275 1246 l 455 1066 l 631 1246 l 686 1192 l 497 954 l 415 954 l 220 1192 z "},"Ď":{"ha":1040,"x_min":160,"x_max":897,"o":"m 160 1031 q 262 1039 160 1031 q 505 1051 414 1051 q 650 1044 596 1051 q 746 1020 705 1037 q 815 972 787 1002 q 863 897 844 943 q 897 640 897 810 l 897 535 q 867 229 897 334 q 743 56 833 109 q 473 0 651 0 l 160 0 l 160 1031 m 736 873 q 665 931 711 911 q 524 951 619 951 q 275 939 428 951 l 275 97 l 491 97 q 678 138 617 97 q 758 276 738 178 q 776 535 776 356 l 776 641 q 736 873 776 810 m 282 1300 l 334 1354 l 495 1219 l 650 1355 l 701 1299 l 549 1132 l 440 1132 l 282 1300 z "},"ď":{"ha":925,"x_min":128,"x_max":996,"o":"m 675 90 q 385 -14 532 -14 q 167 106 221 -14 q 132 250 136 174 q 128 383 128 326 q 129 498 128 440 q 138 606 130 557 q 161 695 145 656 q 207 763 177 735 q 411 821 269 821 q 667 771 553 821 l 667 1154 l 780 1165 l 780 371 q 793 5 780 137 l 692 -3 l 675 90 m 667 678 q 431 719 545 719 q 322 705 349 719 q 282 670 296 692 q 259 610 268 648 q 243 376 243 539 l 243 361 q 277 150 243 208 q 410 88 313 88 l 420 88 q 620 148 514 88 q 670 180 649 164 l 670 182 q 667 376 667 245 l 667 678 m 961 1162 q 996 1130 996 1162 q 992 1097 996 1121 l 957 868 l 881 868 l 881 1152 l 896 1155 q 961 1162 935 1162 z "},"Đ":{"ha":1040,"x_min":50,"x_max":897,"o":"m 160 1031 q 531 1053 429 1053 q 685 1045 633 1053 q 773 1019 736 1038 q 834 969 810 1001 q 872 889 858 938 q 897 655 897 802 q 892 422 897 509 q 874 268 888 336 q 831 149 859 199 q 757 65 804 98 q 473 0 663 0 l 160 0 l 160 474 l 50 474 l 50 566 l 160 566 l 160 1031 m 493 100 q 680 142 621 100 q 761 282 740 184 q 778 542 778 363 l 778 661 q 773 789 778 734 q 747 881 768 844 q 570 954 707 954 q 423 949 498 954 l 275 939 l 275 566 l 505 566 l 505 474 l 275 474 l 275 100 l 493 100 z "},"đ":{"ha":925,"x_min":128,"x_max":922,"o":"m 675 90 q 385 -14 532 -14 q 167 106 221 -14 q 132 250 136 174 q 128 383 128 326 q 129 498 128 440 q 138 606 130 557 q 161 695 145 656 q 207 763 177 735 q 411 821 269 821 q 667 771 553 821 l 667 951 l 466 951 l 466 1037 l 667 1037 l 667 1154 l 780 1165 l 780 1037 l 922 1037 l 922 951 l 780 951 l 780 371 q 793 5 780 137 l 692 -3 l 675 90 m 667 678 q 431 719 545 719 q 322 705 349 719 q 282 670 296 692 q 259 610 268 648 q 243 376 243 539 l 243 361 q 277 150 243 208 q 410 88 313 88 l 420 88 q 620 148 514 88 q 670 180 649 164 l 670 182 q 667 376 667 245 l 667 678 z "},"Ē":{"ha":810,"x_min":160,"x_max":766,"o":"m 160 1038 l 748 1038 l 748 937 l 275 937 l 275 579 l 656 579 l 656 479 l 275 479 l 275 100 l 766 100 l 766 0 l 160 0 l 160 1038 m 256 1272 l 663 1272 l 663 1181 l 256 1181 l 256 1272 z "},"ē":{"ha":925,"x_min":128,"x_max":791,"o":"m 783 43 q 473 -14 643 -14 q 307 7 375 -14 q 161 136 197 38 q 128 407 128 227 l 128 441 q 218 743 128 656 q 487 821 298 821 q 738 730 671 821 q 781 623 770 686 q 791 503 791 560 q 787 366 791 414 q 616 361 692 361 q 507 361 616 361 q 243 376 336 361 q 283 159 243 220 q 475 83 331 83 q 750 140 618 83 l 783 43 m 677 456 l 677 521 q 635 673 677 627 q 476 724 589 724 q 291 665 340 724 q 243 456 243 608 l 677 456 m 261 1128 l 667 1128 l 667 1036 l 261 1036 l 261 1128 z "},"Ĕ":{"ha":810,"x_min":160,"x_max":766,"o":"m 160 1038 l 748 1038 l 748 937 l 275 937 l 275 579 l 656 579 l 656 479 l 275 479 l 275 100 l 766 100 l 766 0 l 160 0 l 160 1038 m 675 1349 q 457 1118 668 1118 q 295 1177 350 1118 q 239 1349 239 1236 l 332 1356 q 364 1239 333 1275 q 457 1202 395 1202 q 574 1283 552 1202 q 583 1356 581 1313 l 675 1349 z "},"ĕ":{"ha":925,"x_min":128,"x_max":791,"o":"m 783 43 q 473 -14 643 -14 q 307 7 375 -14 q 161 136 197 38 q 128 407 128 227 l 128 441 q 218 743 128 656 q 487 821 298 821 q 738 730 671 821 q 781 623 770 686 q 791 503 791 560 q 787 366 791 414 q 616 361 692 361 q 507 361 616 361 q 243 376 336 361 q 283 159 243 220 q 475 83 331 83 q 750 140 618 83 l 783 43 m 677 456 l 677 521 q 635 673 677 627 q 476 724 589 724 q 291 665 340 724 q 243 456 243 608 l 677 456 m 675 1176 q 458 945 669 945 q 295 1004 351 945 q 240 1176 240 1063 l 332 1183 q 365 1066 334 1102 q 458 1029 395 1029 q 574 1111 553 1029 q 583 1183 582 1140 l 675 1176 z "},"Ė":{"ha":810,"x_min":160,"x_max":766,"o":"m 160 1038 l 748 1038 l 748 937 l 275 937 l 275 579 l 656 579 l 656 479 l 275 479 l 275 100 l 766 100 l 766 0 l 160 0 l 160 1038 m 463 1160 q 405 1173 418 1160 q 385 1231 385 1194 q 389 1284 385 1268 q 403 1309 393 1300 q 452 1325 418 1325 q 500 1322 486 1325 q 524 1309 515 1318 q 541 1256 541 1293 q 537 1203 541 1219 q 524 1177 533 1187 q 463 1160 507 1160 z "},"ė":{"ha":925,"x_min":128,"x_max":791,"o":"m 783 43 q 473 -14 643 -14 q 307 7 375 -14 q 161 136 197 38 q 128 407 128 227 l 128 441 q 218 743 128 656 q 487 821 298 821 q 738 730 671 821 q 781 623 770 686 q 791 503 791 560 q 787 366 791 414 q 616 361 692 361 q 507 361 616 361 q 243 376 336 361 q 283 159 243 220 q 475 83 331 83 q 750 140 618 83 l 783 43 m 677 456 l 677 521 q 635 673 677 627 q 476 724 589 724 q 291 665 340 724 q 243 456 243 608 l 677 456 m 463 1000 q 405 1013 418 1000 q 385 1071 385 1034 q 389 1124 385 1108 q 402 1149 393 1140 q 452 1165 418 1165 q 500 1162 486 1165 q 524 1149 515 1158 q 541 1096 541 1133 q 537 1043 541 1059 q 524 1017 533 1027 q 463 1000 507 1000 z "},"Ę":{"ha":810,"x_min":160,"x_max":780,"o":"m 483 -186 q 603 0 483 -83 l 160 0 l 160 1038 l 748 1038 l 748 937 l 275 937 l 275 579 l 656 579 l 656 479 l 275 479 l 275 100 l 766 100 l 766 0 l 709 0 q 587 -134 612 -59 q 581 -170 581 -155 q 652 -229 581 -229 q 753 -208 703 -229 l 780 -293 q 659 -321 735 -321 q 483 -186 483 -321 z "},"ę":{"ha":925,"x_min":128,"x_max":791,"o":"m 422 -187 q 528 -12 422 -91 q 500 -13 514 -12 q 473 -14 487 -14 q 307 7 375 -14 q 161 136 197 38 q 128 407 128 227 l 128 441 q 218 743 128 656 q 487 821 298 821 q 738 730 671 821 q 781 623 770 686 q 791 486 791 560 q 787 362 791 411 q 616 358 692 358 l 507 358 q 243 373 336 358 q 283 157 243 217 q 474 83 331 83 q 750 140 616 83 l 783 43 q 665 7 728 22 l 650 0 q 527 -134 551 -60 q 520 -171 520 -155 q 591 -230 520 -230 q 692 -209 642 -230 l 720 -294 q 599 -322 675 -322 q 422 -187 422 -322 m 677 456 l 677 521 q 635 673 677 627 q 476 724 589 724 q 291 665 340 724 q 243 456 243 608 l 677 456 z "},"Ě":{"ha":810,"x_min":160,"x_max":766,"o":"m 160 1038 l 748 1038 l 748 937 l 275 937 l 275 579 l 656 579 l 656 479 l 275 479 l 275 100 l 766 100 l 766 0 l 160 0 l 160 1038 m 252 1300 l 304 1354 l 465 1219 l 620 1355 l 670 1299 l 518 1132 l 410 1132 l 252 1300 z "},"ě":{"ha":925,"x_min":128,"x_max":791,"o":"m 783 43 q 473 -14 643 -14 q 307 7 375 -14 q 161 136 197 38 q 128 407 128 227 l 128 441 q 218 743 128 656 q 487 821 298 821 q 738 730 671 821 q 781 623 770 686 q 791 503 791 560 q 787 366 791 414 q 616 361 692 361 q 507 361 616 361 q 243 376 336 361 q 283 159 243 220 q 475 83 331 83 q 750 140 618 83 l 783 43 m 677 456 l 677 521 q 635 673 677 627 q 476 724 589 724 q 291 665 340 724 q 243 456 243 608 l 677 456 m 225 1192 l 280 1246 l 460 1066 l 636 1246 l 692 1192 l 503 954 l 420 954 l 225 1192 z "},"Ĝ":{"ha":925,"x_min":119,"x_max":838,"o":"m 790 897 q 476 954 627 954 q 274 826 321 954 q 243 655 246 751 q 240 489 240 559 l 240 422 q 313 135 240 205 q 429 85 356 93 q 498 81 463 81 q 568 85 534 81 q 632 95 602 89 q 724 122 694 107 l 724 442 l 515 442 l 515 536 l 838 536 l 838 71 q 612 -4 774 23 q 484 -14 555 -14 q 352 1 412 -14 q 250 44 292 16 q 182 114 208 72 q 142 211 157 156 q 119 438 119 303 q 124 652 119 574 q 143 794 129 730 q 182 905 157 857 q 248 986 207 954 q 484 1051 330 1051 q 783 1013 659 1051 l 817 1002 l 790 897 m 308 1183 l 460 1350 l 568 1350 l 726 1182 l 674 1128 l 513 1263 l 358 1127 l 308 1183 z "},"ĝ":{"ha":925,"x_min":128,"x_max":780,"o":"m 671 751 l 682 807 l 779 807 l 780 15 q 711 -239 780 -159 q 464 -323 638 -323 q 223 -286 328 -323 q 182 -270 197 -277 l 218 -174 q 254 -188 230 -178 q 311 -205 277 -197 q 465 -228 395 -228 q 573 -214 535 -228 q 632 -170 611 -199 q 667 13 667 -119 l 667 77 q 393 -14 538 -14 q 168 106 224 -14 q 130 278 136 174 q 128 383 128 326 q 129 498 128 440 q 138 606 130 557 q 161 695 145 656 q 207 763 177 735 q 397 821 269 821 q 671 751 526 821 m 667 658 q 431 719 545 719 q 322 705 349 719 q 282 670 296 692 q 259 610 268 648 q 243 376 243 539 l 243 361 q 281 150 243 210 q 417 88 318 88 l 427 88 q 618 140 521 88 q 667 169 646 154 l 667 658 m 220 1003 l 410 1241 l 492 1241 l 687 1004 l 632 949 l 452 1129 l 276 949 l 220 1003 z "},"Ğ":{"ha":925,"x_min":119,"x_max":838,"o":"m 790 897 q 476 954 627 954 q 274 826 321 954 q 243 655 246 751 q 240 489 240 559 l 240 422 q 313 135 240 205 q 429 85 356 93 q 498 81 463 81 q 568 85 534 81 q 632 95 602 89 q 724 122 694 107 l 724 442 l 515 442 l 515 536 l 838 536 l 838 71 q 612 -4 774 23 q 484 -14 555 -14 q 352 1 412 -14 q 250 44 292 16 q 182 114 208 72 q 142 211 157 156 q 119 438 119 303 q 124 652 119 574 q 143 794 129 730 q 182 905 157 857 q 248 986 207 954 q 484 1051 330 1051 q 783 1013 659 1051 l 817 1002 l 790 897 m 720 1349 q 503 1118 713 1118 q 340 1177 395 1118 q 285 1349 285 1236 l 377 1356 q 409 1239 378 1275 q 503 1202 440 1202 q 619 1283 597 1202 q 628 1356 627 1313 l 720 1349 z "},"ğ":{"ha":925,"x_min":128,"x_max":780,"o":"m 671 751 l 682 807 l 779 807 l 780 15 q 711 -239 780 -159 q 464 -323 638 -323 q 223 -286 328 -323 q 182 -270 197 -277 l 218 -174 q 254 -188 230 -178 q 311 -205 277 -197 q 465 -228 395 -228 q 573 -214 535 -228 q 632 -170 611 -199 q 667 13 667 -119 l 667 77 q 393 -14 538 -14 q 168 106 224 -14 q 130 278 136 174 q 128 383 128 326 q 129 498 128 440 q 138 606 130 557 q 161 695 145 656 q 207 763 177 735 q 397 821 269 821 q 671 751 526 821 m 667 658 q 431 719 545 719 q 322 705 349 719 q 282 670 296 692 q 259 610 268 648 q 243 376 243 539 l 243 361 q 281 150 243 210 q 417 88 318 88 l 427 88 q 618 140 521 88 q 667 169 646 154 l 667 658 m 702 1175 q 484 945 695 945 q 322 1004 377 945 q 267 1175 267 1063 l 359 1183 q 391 1065 360 1101 q 484 1029 422 1029 q 601 1110 579 1029 q 610 1183 608 1139 l 702 1175 z "},"Ġ":{"ha":925,"x_min":119,"x_max":838,"o":"m 790 897 q 476 954 627 954 q 274 826 321 954 q 243 655 246 751 q 240 489 240 559 l 240 422 q 313 135 240 205 q 429 85 356 93 q 498 81 463 81 q 568 85 534 81 q 632 95 602 89 q 724 122 694 107 l 724 442 l 515 442 l 515 536 l 838 536 l 838 71 q 612 -4 774 23 q 484 -14 555 -14 q 352 1 412 -14 q 250 44 292 16 q 182 114 208 72 q 142 211 157 156 q 119 438 119 303 q 124 652 119 574 q 143 794 129 730 q 182 905 157 857 q 248 986 207 954 q 484 1051 330 1051 q 783 1013 659 1051 l 817 1002 l 790 897 m 505 1160 q 447 1173 460 1160 q 427 1231 427 1194 q 431 1284 427 1268 q 445 1309 435 1300 q 494 1325 460 1325 q 542 1322 528 1325 q 566 1309 557 1318 q 583 1256 583 1293 q 579 1203 583 1219 q 566 1177 575 1187 q 505 1160 549 1160 z "},"ġ":{"ha":925,"x_min":128,"x_max":780,"o":"m 671 751 l 682 807 l 779 807 l 780 15 q 711 -239 780 -159 q 464 -323 638 -323 q 223 -286 328 -323 q 182 -270 197 -277 l 218 -174 q 254 -188 230 -178 q 311 -205 277 -197 q 465 -228 395 -228 q 573 -214 535 -228 q 632 -170 611 -199 q 667 13 667 -119 l 667 77 q 393 -14 538 -14 q 168 106 224 -14 q 130 278 136 174 q 128 383 128 326 q 129 498 128 440 q 138 606 130 557 q 161 695 145 656 q 207 763 177 735 q 397 821 269 821 q 671 751 526 821 m 667 658 q 431 719 545 719 q 322 705 349 719 q 282 670 296 692 q 259 610 268 648 q 243 376 243 539 l 243 361 q 281 150 243 210 q 417 88 318 88 l 427 88 q 618 140 521 88 q 667 169 646 154 l 667 658 m 454 1000 q 396 1013 409 1000 q 376 1071 376 1034 q 380 1124 376 1108 q 393 1149 385 1140 q 443 1165 410 1165 q 491 1162 477 1165 q 515 1149 506 1158 q 532 1096 532 1133 q 528 1043 532 1059 q 515 1017 524 1027 q 454 1000 498 1000 z "},"Ģ":{"ha":925,"x_min":119,"x_max":838,"o":"m 790 897 q 476 954 627 954 q 274 826 321 954 q 243 655 246 751 q 240 489 240 559 l 240 422 q 313 135 240 205 q 429 85 356 93 q 498 81 463 81 q 568 85 534 81 q 632 95 602 89 q 724 122 694 107 l 724 442 l 515 442 l 515 536 l 838 536 l 838 71 q 612 -4 774 23 q 484 -14 555 -14 q 352 1 412 -14 q 250 44 292 16 q 182 114 208 72 q 142 211 157 156 q 119 438 119 303 q 124 652 119 574 q 143 794 129 730 q 182 905 157 857 q 248 986 207 954 q 484 1051 330 1051 q 783 1013 659 1051 l 817 1002 l 790 897 m 473 -87 q 501 -86 489 -86 l 527 -86 q 560 -92 547 -86 q 573 -110 573 -98 q 566 -151 573 -133 l 479 -380 l 406 -380 l 454 -89 l 473 -87 z "},"ģ":{"ha":925,"x_min":128,"x_max":780,"o":"m 671 751 l 682 807 l 779 807 l 780 15 q 711 -239 780 -159 q 464 -323 638 -323 q 223 -286 328 -323 q 182 -270 197 -277 l 218 -174 q 254 -188 230 -178 q 311 -205 277 -197 q 465 -228 395 -228 q 573 -214 535 -228 q 632 -170 611 -199 q 667 13 667 -119 l 667 77 q 393 -14 538 -14 q 168 106 224 -14 q 130 278 136 174 q 128 383 128 326 q 129 498 128 440 q 138 606 130 557 q 161 695 145 656 q 207 763 177 735 q 397 821 269 821 q 671 751 526 821 m 667 658 q 431 719 545 719 q 322 705 349 719 q 282 670 296 692 q 259 610 268 648 q 243 376 243 539 l 243 361 q 281 150 243 210 q 417 88 318 88 l 427 88 q 618 140 521 88 q 667 169 646 154 l 667 658 m 511 936 q 483 935 495 935 l 457 935 q 424 940 437 935 q 411 958 411 946 q 418 999 411 981 l 505 1228 l 578 1228 l 530 937 l 511 936 z "},"Ĥ":{"ha":1040,"x_min":160,"x_max":880,"o":"m 160 1038 l 275 1038 l 275 569 l 766 569 l 766 1038 l 880 1038 l 880 0 l 766 0 l 766 471 l 275 471 l 275 0 l 160 0 l 160 1038 m 319 1183 l 471 1350 l 579 1350 l 737 1182 l 685 1128 l 524 1263 l 369 1127 l 319 1183 z "},"ĥ":{"ha":925,"x_min":151,"x_max":779,"o":"m 151 1183 l 302 1350 l 411 1350 l 569 1182 l 517 1128 l 356 1263 l 201 1127 l 151 1183 m 532 715 q 264 637 397 715 l 264 0 l 152 0 l 152 1081 l 262 1092 l 262 724 q 444 810 332 783 q 549 821 488 821 q 656 807 610 821 q 730 762 703 793 q 779 562 779 707 l 779 0 l 665 0 l 665 542 q 646 668 665 640 q 601 706 627 696 q 532 715 574 715 z "},"Ħ":{"ha":1040,"x_min":56,"x_max":985,"o":"m 160 721 l 56 721 l 56 812 l 160 812 l 160 1038 l 275 1038 l 275 812 l 766 812 l 766 1038 l 880 1038 l 880 812 l 985 812 l 985 721 l 880 721 l 880 0 l 766 0 l 766 471 l 275 471 l 275 0 l 160 0 l 160 721 m 766 569 l 766 721 l 275 721 l 275 569 l 766 569 z "},"ħ":{"ha":925,"x_min":45,"x_max":779,"o":"m 532 715 q 264 637 397 715 l 264 0 l 152 0 l 152 951 l 45 951 l 45 1038 l 152 1038 l 152 1154 l 262 1165 l 262 1038 l 519 1038 l 519 951 l 262 951 l 262 724 q 444 810 332 783 q 549 821 488 821 q 656 807 610 821 q 730 762 703 793 q 779 562 779 707 l 779 0 l 665 0 l 665 542 q 646 668 665 640 q 601 706 627 696 q 532 715 574 715 z "},"Ĩ":{"ha":463,"x_min":-28,"x_max":492,"o":"m 174 1038 l 289 1038 l 289 0 l 174 0 l 174 1038 m 492 1306 q 311 1150 425 1150 q 221 1191 279 1150 q 179 1218 200 1206 q 142 1231 159 1231 q 112 1224 126 1231 q 83 1206 98 1217 q 51 1181 67 1196 l 20 1154 l -28 1197 q 57 1298 9 1267 q 152 1330 105 1330 l 161 1330 q 253 1291 198 1330 l 291 1265 q 324 1253 309 1253 q 353 1260 340 1253 q 380 1281 367 1268 q 406 1310 393 1294 l 433 1344 l 492 1306 z "},"ĩ":{"ha":463,"x_min":-26,"x_max":494,"o":"m 177 806 l 288 806 l 288 0 l 178 0 l 177 806 m 494 1112 q 313 956 427 956 q 223 997 281 956 q 181 1024 202 1012 q 144 1037 161 1037 q 114 1030 128 1037 q 85 1013 100 1023 q 53 987 69 1002 l 22 960 l -26 1003 q 59 1104 12 1073 q 154 1136 107 1136 l 163 1136 q 255 1097 200 1136 l 293 1071 q 326 1059 311 1059 q 355 1066 342 1059 q 382 1087 369 1074 q 408 1116 395 1100 l 435 1150 l 494 1112 z "},"Ī":{"ha":463,"x_min":29,"x_max":435,"o":"m 174 1038 l 289 1038 l 289 0 l 174 0 l 174 1038 m 29 1272 l 435 1272 l 435 1181 l 29 1181 l 29 1272 z "},"ī":{"ha":463,"x_min":31,"x_max":437,"o":"m 177 806 l 288 806 l 288 0 l 178 0 l 177 806 m 31 1128 l 437 1128 l 437 1036 l 31 1036 l 31 1128 z "},"Ĭ":{"ha":463,"x_min":14,"x_max":450,"o":"m 174 1038 l 289 1038 l 289 0 l 174 0 l 174 1038 m 450 1349 q 232 1118 443 1118 q 70 1177 125 1118 q 14 1349 14 1236 l 106 1356 q 139 1239 108 1275 q 232 1202 170 1202 q 349 1283 327 1202 q 357 1356 356 1313 l 450 1349 z "},"ĭ":{"ha":463,"x_min":14,"x_max":449,"o":"m 177 806 l 288 806 l 288 0 l 178 0 l 177 806 m 449 1175 q 231 945 442 945 q 69 1004 124 945 q 14 1175 14 1063 l 106 1183 q 138 1065 107 1101 q 231 1029 169 1029 q 348 1110 326 1029 q 357 1183 355 1139 l 449 1175 z "},"Į":{"ha":463,"x_min":54,"x_max":351,"o":"m 54 -187 q 175 0 54 -84 l 174 0 l 174 1038 l 289 1038 l 289 0 l 281 0 q 158 -134 182 -60 q 151 -171 151 -155 q 222 -230 151 -230 q 323 -209 273 -230 l 351 -294 q 230 -322 306 -322 q 54 -187 54 -322 z "},"į":{"ha":463,"x_min":60,"x_max":357,"o":"m 232 1000 q 174 1013 186 1000 q 153 1071 153 1034 q 158 1124 153 1108 q 171 1149 162 1140 q 221 1165 187 1165 q 269 1162 254 1165 q 293 1149 283 1158 q 309 1096 309 1133 q 306 1043 309 1059 q 293 1017 302 1027 q 232 1000 276 1000 m 60 -186 q 180 0 60 -83 l 178 0 l 177 807 l 288 807 l 288 0 l 287 0 q 165 -134 189 -59 q 158 -170 158 -155 q 229 -229 158 -229 q 330 -208 280 -229 l 357 -293 q 237 -321 313 -321 q 60 -186 60 -321 z "},"İ":{"ha":463,"x_min":153,"x_max":309,"o":"m 174 1038 l 289 1038 l 289 0 l 174 0 l 174 1038 m 231 1160 q 173 1173 186 1160 q 153 1231 153 1194 q 157 1284 153 1268 q 171 1309 161 1300 q 220 1325 186 1325 q 268 1322 254 1325 q 292 1309 283 1318 q 309 1256 309 1293 q 305 1203 309 1219 q 292 1177 301 1187 q 231 1160 275 1160 z "},"ı":{"ha":463,"x_min":177,"x_max":288,"o":"m 177 806 l 288 806 l 288 0 l 178 0 l 177 806 z "},"Ĳ":{"ha":1042,"x_min":174,"x_max":901,"o":"m 174 1038 l 289 1038 l 289 0 l 174 0 l 174 1038 m 485 123 q 500 116 485 123 q 657 81 574 81 q 759 125 729 81 q 787 274 787 169 l 787 1038 l 901 1038 l 901 350 q 891 171 901 223 q 864 87 880 119 q 821 33 848 55 q 657 -14 766 -14 q 481 20 564 -14 q 452 35 462 28 l 485 123 z "},"ĳ":{"ha":926,"x_min":153,"x_max":770,"o":"m 232 1000 q 174 1013 186 1000 q 153 1071 153 1034 q 158 1124 153 1108 q 171 1149 162 1140 q 221 1165 187 1165 q 269 1162 254 1165 q 293 1149 283 1158 q 309 1096 309 1133 q 306 1043 309 1059 q 293 1017 302 1027 q 232 1000 276 1000 m 177 807 l 288 807 l 288 0 l 178 0 l 177 807 m 693 1000 q 635 1013 648 1000 q 614 1071 614 1034 q 619 1124 614 1108 q 633 1149 623 1140 q 682 1165 648 1165 q 730 1162 715 1165 q 753 1149 745 1158 q 770 1096 770 1133 q 767 1043 770 1059 q 753 1017 763 1027 q 693 1000 737 1000 m 499 -215 q 589 -228 561 -231 q 628 -205 617 -224 q 640 -141 640 -185 l 640 807 l 749 807 l 749 -131 q 720 -266 749 -221 q 595 -322 684 -322 q 469 -298 511 -322 l 499 -215 z "},"Ĵ":{"ha":578,"x_min":-12,"x_max":591,"o":"m 22 123 q 37 116 22 123 q 194 81 111 81 q 296 125 266 81 q 324 274 324 169 l 324 1038 l 438 1038 l 438 350 q 428 171 438 223 q 401 87 417 119 q 358 33 385 55 q 194 -14 302 -14 q 18 20 100 -14 q -12 35 -1 28 l 22 123 m 173 1183 l 325 1350 l 433 1350 l 591 1182 l 539 1128 l 378 1263 l 223 1127 l 173 1183 z "},"ĵ":{"ha":463,"x_min":-3,"x_max":464,"o":"m 36 -215 q 126 -228 98 -231 q 165 -205 154 -224 q 176 -141 176 -185 l 176 807 l 286 807 l 286 -131 q 256 -266 286 -221 q 132 -322 220 -322 q 5 -298 48 -322 l 36 -215 m -3 1003 l 186 1241 l 269 1241 l 464 1004 l 409 949 l 229 1129 l 53 949 l -3 1003 z "},"Ķ":{"ha":925,"x_min":160,"x_max":880,"o":"m 307 467 l 275 466 l 275 0 l 160 0 l 160 1038 l 275 1038 l 275 551 q 325 556 313 551 q 352 573 336 562 q 398 620 368 585 q 463 699 429 654 q 593 881 555 823 l 656 977 q 693 1038 681 1016 l 827 1038 q 804 997 821 1025 q 709 857 745 906 l 579 682 l 520 609 q 440 530 460 537 l 440 524 l 461 515 q 581 401 508 498 l 880 0 l 732 0 l 515 308 q 330 466 406 461 q 307 467 319 467 m 452 -87 q 481 -86 468 -86 l 506 -86 q 539 -92 526 -86 q 552 -110 552 -98 q 545 -151 552 -133 l 458 -380 l 385 -380 l 433 -89 l 452 -87 z "},"ķ":{"ha":808,"x_min":149,"x_max":794,"o":"m 149 1152 l 262 1164 l 262 464 q 327 492 289 458 q 395 555 366 525 q 457 621 425 585 q 608 807 572 753 l 742 807 q 673 711 727 773 l 583 608 q 464 491 509 529 q 406 448 420 453 l 406 441 l 426 431 q 541 319 470 410 l 794 0 l 652 0 l 479 226 q 297 387 360 382 l 282 389 q 270 389 275 389 q 262 389 264 389 l 262 0 l 149 0 l 149 1152 m 408 -87 q 437 -86 425 -86 l 463 -86 q 496 -92 483 -86 q 509 -110 509 -98 q 501 -151 509 -133 l 415 -380 l 341 -380 l 389 -89 l 408 -87 z "},"ĸ":{"ha":808,"x_min":149,"x_max":794,"o":"m 149 804 l 262 817 l 262 451 q 341 490 292 445 q 441 593 392 536 q 608 807 568 747 l 742 807 q 667 699 723 766 q 494 508 534 546 q 406 435 425 442 l 406 428 q 428 418 415 423 q 457 401 440 413 q 541 319 494 376 l 794 0 l 651 0 l 479 226 q 338 361 395 336 q 300 374 311 373 l 282 376 q 270 376 275 376 q 262 376 264 376 l 262 0 l 149 0 l 149 804 z "},"Ĺ":{"ha":696,"x_min":152,"x_max":686,"o":"m 159 1038 l 275 1038 l 275 100 l 686 100 l 686 0 l 159 0 l 159 1038 m 152 1181 l 434 1356 l 497 1249 l 186 1118 l 152 1181 z "},"ĺ":{"ha":463,"x_min":125,"x_max":425,"o":"m 125 1204 l 368 1356 l 425 1256 l 159 1142 l 125 1204 m 176 1082 l 288 1092 l 288 0 l 177 0 l 176 1082 z "},"Ļ":{"ha":696,"x_min":159,"x_max":686,"o":"m 159 1038 l 275 1038 l 275 100 l 686 100 l 686 0 l 159 0 l 159 1038 m 380 -87 q 409 -86 396 -86 l 434 -86 q 467 -92 454 -86 q 480 -110 480 -98 q 473 -151 480 -133 l 387 -380 l 313 -380 l 361 -89 l 380 -87 z "},"ļ":{"ha":463,"x_min":134,"x_max":302,"o":"m 176 1153 l 288 1162 l 288 0 l 177 0 l 176 1153 m 201 -87 q 230 -86 218 -86 l 256 -86 q 289 -92 276 -86 q 302 -110 302 -98 q 294 -151 302 -133 l 208 -380 l 134 -380 l 182 -89 l 201 -87 z "},"Ľ":{"ha":696,"x_min":159,"x_max":686,"o":"m 159 1038 l 275 1038 l 275 100 l 686 100 l 686 0 l 159 0 l 159 1038 m 524 1034 q 558 1002 558 1034 q 555 969 558 993 l 519 740 l 444 740 l 444 1024 l 458 1027 q 524 1034 498 1034 z "},"ľ":{"ha":463,"x_min":176,"x_max":510,"o":"m 176 1153 l 288 1162 l 288 0 l 177 0 l 176 1153 m 475 1162 q 510 1130 510 1162 q 507 1097 510 1121 l 471 868 l 395 868 l 395 1152 l 410 1155 q 475 1162 450 1162 z "},"Ŀ":{"ha":696,"x_min":159,"x_max":686,"o":"m 159 1038 l 275 1038 l 275 100 l 686 100 l 686 0 l 159 0 l 159 1038 m 450 456 q 444 463 450 456 q 434 487 437 470 q 431 531 431 505 q 434 575 431 558 q 448 602 438 592 q 498 619 463 619 q 549 615 534 619 q 573 602 564 612 q 589 532 589 585 q 576 465 589 479 q 510 442 557 442 q 450 456 463 442 z "},"ŀ":{"ha":694,"x_min":176,"x_max":656,"o":"m 176 1153 l 288 1162 l 288 0 l 177 0 l 176 1153 m 517 452 q 511 459 517 452 q 501 483 505 466 q 498 527 498 500 q 502 571 498 554 q 515 597 505 588 q 566 615 530 615 q 616 611 601 615 q 640 597 631 608 q 656 528 656 581 q 644 460 656 475 q 577 438 625 438 q 517 452 530 438 z "},"Ł":{"ha":696,"x_min":37,"x_max":686,"o":"m 159 342 l 42 247 l 37 352 l 159 449 l 159 1038 l 275 1038 l 275 542 l 488 719 l 494 607 l 275 434 l 275 100 l 686 100 l 686 0 l 159 0 l 159 342 z "},"ł":{"ha":463,"x_min":50,"x_max":433,"o":"m 177 477 l 56 363 l 50 471 l 177 587 l 176 1153 l 287 1162 l 287 688 l 427 821 l 433 711 l 287 579 l 287 0 l 178 0 l 177 477 z "},"Ń":{"ha":1042,"x_min":160,"x_max":881,"o":"m 160 1038 l 252 1038 l 729 283 l 791 155 l 776 298 l 776 1038 l 881 1038 l 881 0 l 784 0 l 310 752 l 250 869 l 265 730 l 265 0 l 160 0 l 160 1038 m 408 1181 l 690 1356 l 753 1249 l 441 1118 l 408 1181 z "},"ń":{"ha":925,"x_min":151,"x_max":779,"o":"m 533 715 q 264 637 401 715 l 264 0 l 151 0 l 151 807 l 250 807 l 261 724 q 445 810 335 784 q 550 821 490 821 q 656 807 610 821 q 730 762 703 793 q 779 562 779 707 l 779 0 l 665 0 l 665 541 q 646 667 665 639 q 601 705 627 695 q 533 715 575 715 m 394 1008 l 613 1246 l 701 1164 l 450 949 l 394 1008 z "},"Ņ":{"ha":1042,"x_min":160,"x_max":881,"o":"m 160 1038 l 252 1038 l 729 283 l 791 155 l 776 298 l 776 1038 l 881 1038 l 881 0 l 784 0 l 310 752 l 250 869 l 265 730 l 265 0 l 160 0 l 160 1038 m 480 -87 q 509 -86 496 -86 l 534 -86 q 568 -92 555 -86 q 581 -110 581 -98 q 573 -151 581 -133 l 487 -380 l 413 -380 l 461 -89 l 480 -87 z "},"ņ":{"ha":925,"x_min":151,"x_max":779,"o":"m 533 715 q 264 637 401 715 l 264 0 l 151 0 l 151 807 l 250 807 l 261 724 q 445 810 335 784 q 550 821 490 821 q 656 807 610 821 q 730 762 703 793 q 779 562 779 707 l 779 0 l 665 0 l 665 541 q 646 667 665 639 q 601 705 627 695 q 533 715 575 715 m 439 -87 q 468 -86 456 -86 l 494 -86 q 527 -92 514 -86 q 540 -110 540 -98 q 532 -151 540 -133 l 446 -380 l 372 -380 l 420 -89 l 439 -87 z "},"Ň":{"ha":1042,"x_min":160,"x_max":881,"o":"m 160 1038 l 252 1038 l 729 283 l 791 155 l 776 298 l 776 1038 l 881 1038 l 881 0 l 784 0 l 310 752 l 250 869 l 265 730 l 265 0 l 160 0 l 160 1038 m 317 1300 l 369 1354 l 530 1219 l 685 1355 l 735 1299 l 583 1132 l 475 1132 l 317 1300 z "},"ň":{"ha":925,"x_min":151,"x_max":779,"o":"m 533 715 q 264 637 401 715 l 264 0 l 151 0 l 151 807 l 250 807 l 261 724 q 445 810 335 784 q 550 821 490 821 q 656 807 610 821 q 730 762 703 793 q 779 562 779 707 l 779 0 l 665 0 l 665 541 q 646 667 665 639 q 601 705 627 695 q 533 715 575 715 m 233 1192 l 288 1246 l 468 1066 l 644 1246 l 699 1192 l 510 954 l 428 954 l 233 1192 z "},"Ŋ":{"ha":1042,"x_min":159,"x_max":882,"o":"m 486 -176 q 655 -218 560 -218 q 772 -126 756 -218 q 777 -54 777 -96 l 777 12 l 300 761 l 250 869 l 265 751 l 265 0 l 159 0 l 159 1038 l 252 1038 l 743 269 l 791 155 l 776 275 l 776 1038 l 882 1038 l 882 69 q 859 -195 882 -119 q 764 -304 832 -279 q 664 -321 719 -321 q 573 -315 608 -321 q 513 -299 538 -308 q 450 -268 481 -288 l 486 -176 z "},"ŋ":{"ha":925,"x_min":151,"x_max":779,"o":"m 533 715 q 264 637 401 715 l 264 0 l 151 0 l 151 807 l 250 807 l 261 724 q 445 810 335 784 q 550 821 490 821 q 656 807 610 821 q 730 762 703 793 q 779 562 779 707 l 779 -131 q 748 -266 779 -220 q 621 -322 709 -322 q 494 -298 537 -322 l 525 -215 q 610 -229 577 -229 q 654 -205 642 -229 q 665 -141 665 -181 l 665 541 q 646 667 665 639 q 601 705 627 695 q 533 715 575 715 z "},"Ō":{"ha":1040,"x_min":125,"x_max":918,"o":"m 501 -14 q 182 138 260 -14 q 129 374 137 227 q 125 524 125 443 q 130 679 125 606 q 149 810 135 751 q 188 915 163 869 q 255 990 214 960 q 501 1051 340 1051 l 543 1051 q 865 916 795 1051 q 915 680 909 831 q 918 523 918 606 q 913 371 918 441 q 897 243 909 302 q 859 136 884 184 q 792 56 834 89 q 543 -14 705 -14 l 501 -14 m 542 84 q 666 100 616 84 q 743 157 715 117 q 796 446 796 233 l 796 519 q 791 702 796 622 q 762 837 785 782 q 550 951 713 951 l 493 951 q 281 844 328 951 q 250 684 252 777 q 247 519 247 592 l 247 446 q 307 164 247 246 q 501 84 364 84 l 542 84 m 323 1272 l 730 1272 l 730 1181 l 323 1181 l 323 1272 z "},"ō":{"ha":924,"x_min":127,"x_max":797,"o":"m 127 401 q 143 616 127 555 q 181 713 159 677 q 243 772 204 749 q 471 821 320 821 q 752 713 690 821 q 795 529 789 648 q 797 405 797 473 q 792 278 797 337 q 775 173 788 220 q 739 91 762 126 q 678 33 716 56 q 460 -14 604 -14 q 179 92 246 -14 q 131 277 138 158 q 127 401 127 334 m 312 119 q 324 110 312 119 q 373 91 336 100 q 474 82 410 82 q 582 100 538 82 q 648 159 626 119 q 676 264 670 199 q 682 414 682 328 q 676 556 682 499 q 651 650 671 613 q 470 724 610 724 q 277 650 321 724 q 248 555 254 613 q 242 430 242 498 q 244 315 242 362 q 253 230 245 268 q 274 165 260 193 q 312 119 288 137 m 257 1128 l 663 1128 l 663 1036 l 257 1036 l 257 1128 z "},"Ŏ":{"ha":1040,"x_min":125,"x_max":918,"o":"m 501 -14 q 182 138 260 -14 q 129 374 137 227 q 125 524 125 443 q 130 679 125 606 q 149 810 135 751 q 188 915 163 869 q 255 990 214 960 q 501 1051 340 1051 l 543 1051 q 865 916 795 1051 q 915 680 909 831 q 918 523 918 606 q 913 371 918 441 q 897 243 909 302 q 859 136 884 184 q 792 56 834 89 q 543 -14 705 -14 l 501 -14 m 542 84 q 666 100 616 84 q 743 157 715 117 q 796 446 796 233 l 796 519 q 791 702 796 622 q 762 837 785 782 q 550 951 713 951 l 493 951 q 281 844 328 951 q 250 684 252 777 q 247 519 247 592 l 247 446 q 307 164 247 246 q 501 84 364 84 l 542 84 m 744 1349 q 526 1118 737 1118 q 364 1177 419 1118 q 309 1349 309 1236 l 401 1356 q 433 1239 402 1275 q 526 1202 464 1202 q 643 1283 621 1202 q 652 1356 650 1313 l 744 1349 z "},"ŏ":{"ha":924,"x_min":127,"x_max":797,"o":"m 127 401 q 143 616 127 555 q 181 713 159 677 q 243 772 204 749 q 471 821 320 821 q 752 713 690 821 q 795 529 789 648 q 797 405 797 473 q 792 278 797 337 q 775 173 788 220 q 739 91 762 126 q 678 33 716 56 q 460 -14 604 -14 q 179 92 246 -14 q 131 277 138 158 q 127 401 127 334 m 312 119 q 324 110 312 119 q 373 91 336 100 q 474 82 410 82 q 582 100 538 82 q 648 159 626 119 q 676 264 670 199 q 682 414 682 328 q 676 556 682 499 q 651 650 671 613 q 470 724 610 724 q 277 650 321 724 q 248 555 254 613 q 242 430 242 498 q 244 315 242 362 q 253 230 245 268 q 274 165 260 193 q 312 119 288 137 m 677 1176 q 460 945 671 945 q 297 1004 353 945 q 242 1176 242 1063 l 334 1183 q 367 1066 336 1102 q 460 1029 397 1029 q 576 1111 555 1029 q 585 1183 584 1140 l 677 1176 z "},"Ő":{"ha":1040,"x_min":125,"x_max":918,"o":"m 501 -14 q 182 138 260 -14 q 129 374 137 227 q 125 524 125 443 q 130 679 125 606 q 149 810 135 751 q 188 915 163 869 q 255 990 214 960 q 501 1051 340 1051 l 543 1051 q 865 916 795 1051 q 915 680 909 831 q 918 523 918 606 q 913 371 918 441 q 897 243 909 302 q 859 136 884 184 q 792 56 834 89 q 543 -14 705 -14 l 501 -14 m 542 84 q 666 100 616 84 q 743 157 715 117 q 796 446 796 233 l 796 519 q 791 702 796 622 q 762 837 785 782 q 550 951 713 951 l 493 951 q 281 844 328 951 q 250 684 252 777 q 247 519 247 592 l 247 446 q 307 164 247 246 q 501 84 364 84 l 542 84 m 576 1155 l 773 1356 l 861 1275 l 625 1105 l 576 1155 m 315 1157 l 492 1356 l 579 1276 l 361 1107 l 315 1157 z "},"ő":{"ha":924,"x_min":127,"x_max":819,"o":"m 127 401 q 143 616 127 555 q 181 713 159 677 q 243 772 204 749 q 471 821 320 821 q 752 713 690 821 q 795 529 789 648 q 797 405 797 473 q 792 278 797 337 q 775 173 788 220 q 739 91 762 126 q 678 33 716 56 q 460 -14 604 -14 q 179 92 246 -14 q 131 277 138 158 q 127 401 127 334 m 312 119 q 324 110 312 119 q 373 91 336 100 q 474 82 410 82 q 582 100 538 82 q 648 159 626 119 q 676 264 670 199 q 682 414 682 328 q 676 556 682 499 q 651 650 671 613 q 470 724 610 724 q 277 650 321 724 q 248 555 254 613 q 242 430 242 498 q 244 315 242 362 q 253 230 245 268 q 274 165 260 193 q 312 119 288 137 m 265 1002 l 454 1255 l 544 1179 l 322 949 l 265 1002 m 512 1007 l 732 1246 l 819 1164 l 567 949 l 512 1007 z "},"Œ":{"ha":1388,"x_min":125,"x_max":1339,"o":"m 734 0 q 525 -14 637 -14 q 351 5 412 -14 q 248 57 290 23 q 182 138 206 90 q 145 245 157 186 q 125 473 125 340 q 130 679 125 606 q 148 810 134 751 q 188 915 162 869 q 255 990 213 960 q 487 1051 340 1051 q 742 1038 633 1051 l 1321 1038 l 1321 937 l 848 937 l 848 579 l 1230 579 l 1230 479 l 848 479 l 848 100 l 1339 100 l 1339 0 l 734 0 m 733 930 q 542 950 640 950 q 401 939 445 950 q 329 906 358 928 q 283 848 300 883 q 258 765 267 813 q 246 519 246 694 l 246 447 q 323 147 246 222 q 459 90 372 100 q 573 84 501 84 q 733 102 645 84 l 733 930 z "},"œ":{"ha":1502,"x_min":142,"x_max":1359,"o":"m 1351 43 q 1054 -14 1213 -14 q 787 77 856 -14 q 751 147 764 107 q 582 -5 711 21 q 469 -14 537 -14 q 346 -1 401 -14 q 254 35 291 11 q 194 94 216 58 q 161 175 172 129 q 142 359 142 248 q 146 527 142 469 q 162 631 150 585 q 196 713 174 677 q 258 772 219 749 q 486 821 335 821 q 723 739 657 821 q 759 672 745 711 q 945 812 800 788 q 1073 821 994 821 q 1213 797 1153 821 q 1305 730 1273 774 q 1349 623 1338 686 q 1359 486 1359 560 q 1355 362 1359 411 q 1183 358 1259 358 l 1074 358 q 809 373 901 358 q 859 156 809 224 q 1048 82 913 82 q 1314 138 1184 82 l 1351 43 m 1244 456 l 1244 521 q 1203 673 1244 627 q 1044 724 1157 724 q 859 665 908 724 q 810 456 810 608 l 1244 456 m 327 119 q 339 110 327 119 q 388 91 351 100 q 487 82 425 82 q 592 100 549 82 q 658 158 635 118 q 688 263 681 198 q 696 416 696 328 q 689 562 696 505 q 660 654 682 618 q 485 724 618 721 q 292 652 338 728 q 263 556 269 614 q 257 430 257 498 q 259 315 257 362 q 268 230 260 268 q 289 165 275 193 q 327 119 302 137 z "},"Ŕ":{"ha":926,"x_min":160,"x_max":862,"o":"m 160 1034 q 530 1051 380 1051 l 544 1051 q 773 978 707 1051 q 828 772 828 915 q 776 499 828 589 q 598 385 722 408 q 644 326 621 357 l 684 268 l 862 0 l 726 0 l 570 245 q 474 376 505 345 l 467 376 q 374 378 418 377 l 275 382 l 275 0 l 160 0 l 160 1034 m 275 474 q 499 471 347 471 q 670 541 625 471 q 709 757 709 603 q 651 926 709 886 q 577 953 617 950 q 506 956 536 956 q 448 955 476 956 q 392 954 420 955 q 336 952 364 954 l 275 948 l 275 474 m 311 1181 l 593 1356 l 656 1249 l 345 1118 l 311 1181 z "},"ŕ":{"ha":579,"x_min":151,"x_max":553,"o":"m 441 709 q 264 622 354 709 l 264 0 l 151 0 l 151 807 l 250 807 l 261 700 q 330 777 293 749 q 391 811 367 805 q 455 821 425 821 q 532 808 486 821 l 522 701 q 441 709 487 709 m 246 1008 l 465 1246 l 553 1164 l 302 949 l 246 1008 z "},"Ŗ":{"ha":926,"x_min":160,"x_max":862,"o":"m 160 1034 q 530 1051 380 1051 l 544 1051 q 773 978 707 1051 q 828 772 828 915 q 776 499 828 589 q 598 385 722 408 q 644 326 621 357 l 684 268 l 862 0 l 726 0 l 570 245 q 474 376 505 345 l 467 376 q 374 378 418 377 l 275 382 l 275 0 l 160 0 l 160 1034 m 275 474 q 499 471 347 471 q 670 541 625 471 q 709 757 709 603 q 651 926 709 886 q 577 953 617 950 q 506 956 536 956 q 448 955 476 956 q 392 954 420 955 q 336 952 364 954 l 275 948 l 275 474 m 450 -87 q 479 -86 466 -86 l 504 -86 q 537 -92 524 -86 q 550 -110 550 -98 q 543 -151 550 -133 l 456 -380 l 382 -380 l 431 -89 l 450 -87 z "},"ŗ":{"ha":579,"x_min":113,"x_max":532,"o":"m 441 709 q 264 622 354 709 l 264 0 l 151 0 l 151 807 l 250 807 l 261 700 q 330 777 293 749 q 391 811 367 805 q 455 821 425 821 q 532 808 486 821 l 522 701 q 441 709 487 709 m 180 -87 q 208 -86 196 -86 l 234 -86 q 267 -92 254 -86 q 280 -110 280 -98 q 273 -151 280 -133 l 186 -380 l 113 -380 l 161 -89 l 180 -87 z "},"Ř":{"ha":926,"x_min":160,"x_max":862,"o":"m 160 1034 q 530 1051 380 1051 l 544 1051 q 773 978 707 1051 q 828 772 828 915 q 776 499 828 589 q 598 385 722 408 q 644 326 621 357 l 684 268 l 862 0 l 726 0 l 570 245 q 474 376 505 345 l 467 376 q 374 378 418 377 l 275 382 l 275 0 l 160 0 l 160 1034 m 275 474 q 499 471 347 471 q 670 541 625 471 q 709 757 709 603 q 651 926 709 886 q 577 953 617 950 q 506 956 536 956 q 448 955 476 956 q 392 954 420 955 q 336 952 364 954 l 275 948 l 275 474 m 253 1300 l 305 1354 l 466 1219 l 621 1355 l 671 1299 l 519 1132 l 411 1132 l 253 1300 z "},"ř":{"ha":579,"x_min":73,"x_max":540,"o":"m 441 709 q 264 622 354 709 l 264 0 l 151 0 l 151 807 l 250 807 l 261 700 q 330 777 293 749 q 391 811 367 805 q 455 821 425 821 q 532 808 486 821 l 522 701 q 441 709 487 709 m 73 1192 l 128 1246 l 309 1066 l 484 1246 l 540 1192 l 351 954 l 269 954 l 73 1192 z "},"Ś":{"ha":810,"x_min":58,"x_max":732,"o":"m 102 163 q 404 82 256 82 q 604 191 574 82 q 613 274 613 227 l 613 300 q 606 377 613 348 q 578 425 600 406 q 411 475 543 455 q 249 510 294 494 q 175 546 204 526 q 126 594 146 565 q 84 763 84 655 l 84 770 q 270 1038 84 994 q 404 1051 329 1051 l 412 1051 q 697 1001 587 1051 l 662 897 q 416 955 528 955 l 410 955 q 239 908 286 955 q 199 772 199 869 l 199 769 q 260 624 199 659 q 409 585 302 602 q 568 556 515 568 q 656 517 620 544 q 732 300 732 460 l 732 292 q 536 1 732 48 q 422 -14 476 -14 q 325 -10 369 -14 q 236 3 281 -6 q 58 68 130 25 l 102 163 m 256 1181 l 538 1356 l 601 1249 l 290 1118 l 256 1181 z "},"ś":{"ha":810,"x_min":104,"x_max":694,"o":"m 153 160 q 433 82 292 82 q 571 165 551 82 q 578 235 578 194 q 568 299 578 276 q 536 333 559 321 q 477 349 514 344 q 383 365 440 355 q 279 387 326 374 q 198 422 231 399 q 130 589 127 471 l 130 606 q 212 781 130 729 q 471 817 290 833 q 668 774 595 805 l 636 671 q 441 722 555 706 q 375 726 406 726 q 319 722 344 726 q 277 704 294 717 q 243 606 244 677 q 290 498 241 521 q 403 467 338 475 q 509 452 468 458 q 585 435 551 446 q 643 400 618 424 q 692 233 694 352 q 519 -5 689 24 q 416 -14 467 -14 q 321 -7 364 -14 q 239 11 278 -1 q 104 66 164 32 l 153 160 m 312 1008 l 531 1246 l 619 1164 l 368 949 l 312 1008 z "},"Ŝ":{"ha":810,"x_min":58,"x_max":732,"o":"m 102 163 q 404 82 256 82 q 604 191 574 82 q 613 274 613 227 l 613 300 q 606 377 613 348 q 578 425 600 406 q 411 475 543 455 q 249 510 294 494 q 175 546 204 526 q 126 594 146 565 q 84 763 84 655 l 84 770 q 270 1038 84 994 q 404 1051 329 1051 l 412 1051 q 697 1001 587 1051 l 662 897 q 416 955 528 955 l 410 955 q 239 908 286 955 q 199 772 199 869 l 199 769 q 260 624 199 659 q 409 585 302 602 q 568 556 515 568 q 656 517 620 544 q 732 300 732 460 l 732 292 q 536 1 732 48 q 422 -14 476 -14 q 325 -10 369 -14 q 236 3 281 -6 q 58 68 130 25 l 102 163 m 189 1183 l 340 1350 l 449 1350 l 607 1182 l 555 1128 l 394 1263 l 239 1127 l 189 1183 z "},"ŝ":{"ha":810,"x_min":104,"x_max":694,"o":"m 153 160 q 433 82 292 82 q 571 165 551 82 q 578 235 578 194 q 568 299 578 276 q 536 333 559 321 q 477 349 514 344 q 383 365 440 355 q 279 387 326 374 q 198 422 231 399 q 130 589 127 471 l 130 606 q 212 781 130 729 q 471 817 290 833 q 668 774 595 805 l 636 671 q 441 722 555 706 q 375 726 406 726 q 319 722 344 726 q 277 704 294 717 q 243 606 244 677 q 290 498 241 521 q 403 467 338 475 q 509 452 468 458 q 585 435 551 446 q 643 400 618 424 q 692 233 694 352 q 519 -5 689 24 q 416 -14 467 -14 q 321 -7 364 -14 q 239 11 278 -1 q 104 66 164 32 l 153 160 m 180 1003 l 369 1241 l 451 1241 l 646 1004 l 591 949 l 411 1129 l 235 949 l 180 1003 z "},"Ş":{"ha":810,"x_min":58,"x_max":732,"o":"m 277 -191 q 336 -197 309 -197 q 383 -183 363 -197 q 403 -140 403 -169 q 341 -11 403 -82 q 58 68 165 3 l 102 163 q 404 82 256 82 q 604 191 574 82 q 613 274 613 227 l 613 300 q 606 377 613 348 q 578 425 600 406 q 411 475 543 455 q 249 510 294 494 q 175 546 204 526 q 126 594 146 565 q 84 763 84 655 l 84 770 q 270 1038 84 994 q 404 1051 329 1051 l 412 1051 q 697 1001 587 1051 l 662 897 q 416 955 528 955 l 410 955 q 239 908 286 955 q 199 772 199 869 l 199 769 q 260 624 199 659 q 409 585 302 602 q 568 556 515 568 q 656 517 620 544 q 732 300 732 460 l 732 292 q 556 7 732 61 q 437 -12 502 -9 q 498 -149 498 -76 q 351 -290 498 -290 q 260 -277 293 -290 l 277 -191 z "},"ş":{"ha":810,"x_min":104,"x_max":694,"o":"m 297 -191 q 356 -197 329 -197 q 402 -183 382 -197 q 422 -140 422 -169 q 361 -12 422 -81 q 104 66 219 -1 l 153 160 q 433 82 292 82 q 571 165 551 82 q 578 235 578 194 q 568 299 578 276 q 536 333 559 321 q 477 349 514 344 q 383 365 440 355 q 279 387 326 374 q 198 422 231 399 q 130 589 127 471 l 130 606 q 212 781 130 729 q 471 817 290 833 q 668 774 595 805 l 636 671 q 441 722 555 706 q 375 726 406 726 q 319 722 344 726 q 277 704 294 717 q 243 606 244 677 q 290 498 241 521 q 403 467 338 475 q 509 452 468 458 q 585 435 551 446 q 643 400 618 424 q 692 233 694 352 q 549 3 689 41 q 456 -12 507 -9 q 517 -149 517 -77 q 371 -290 517 -290 q 280 -277 312 -290 l 297 -191 z "},"Š":{"ha":810,"x_min":58,"x_max":732,"o":"m 102 163 q 404 82 256 82 q 604 191 574 82 q 613 274 613 227 l 613 300 q 606 377 613 348 q 578 425 600 406 q 411 475 543 455 q 249 510 294 494 q 175 546 204 526 q 126 594 146 565 q 84 763 84 655 l 84 770 q 270 1038 84 994 q 404 1051 329 1051 l 412 1051 q 697 1001 587 1051 l 662 897 q 416 955 528 955 l 410 955 q 239 908 286 955 q 199 772 199 869 l 199 769 q 260 624 199 659 q 409 585 302 602 q 568 556 515 568 q 656 517 620 544 q 732 300 732 460 l 732 292 q 536 1 732 48 q 422 -14 476 -14 q 325 -10 369 -14 q 236 3 281 -6 q 58 68 130 25 l 102 163 m 195 1300 l 247 1354 l 408 1219 l 563 1355 l 613 1299 l 461 1132 l 353 1132 l 195 1300 z "},"š":{"ha":810,"x_min":104,"x_max":694,"o":"m 153 160 q 433 82 292 82 q 571 165 551 82 q 578 235 578 194 q 568 299 578 276 q 536 333 559 321 q 477 349 514 344 q 383 365 440 355 q 279 387 326 374 q 198 422 231 399 q 130 589 127 471 l 130 606 q 212 781 130 729 q 471 817 290 833 q 668 774 595 805 l 636 671 q 441 722 555 706 q 375 726 406 726 q 319 722 344 726 q 277 704 294 717 q 243 606 244 677 q 290 498 241 521 q 403 467 338 475 q 509 452 468 458 q 585 435 551 446 q 643 400 618 424 q 692 233 694 352 q 519 -5 689 24 q 416 -14 467 -14 q 321 -7 364 -14 q 239 11 278 -1 q 104 66 164 32 l 153 160 m 184 1192 l 239 1246 l 420 1066 l 595 1246 l 651 1192 l 462 954 l 380 954 l 184 1192 z "},"Ţ":{"ha":694,"x_min":8,"x_max":686,"o":"m 285 937 l 8 937 l 8 1038 l 686 1038 l 686 937 l 400 937 l 400 0 l 285 0 l 285 937 m 308 -87 q 337 -86 324 -86 l 362 -86 q 395 -92 382 -86 q 408 -110 408 -98 q 401 -151 408 -133 l 315 -380 l 241 -380 l 289 -89 l 308 -87 z "},"ţ":{"ha":579,"x_min":49,"x_max":549,"o":"m 549 39 q 345 -14 438 -14 q 152 132 175 -14 q 146 232 146 166 l 146 713 l 49 713 l 49 796 l 146 807 l 164 991 l 258 991 l 258 807 l 494 807 l 494 713 l 258 713 l 258 234 q 271 127 258 151 q 360 85 293 85 q 510 127 427 85 l 549 39 m 300 -87 q 329 -86 317 -86 l 355 -86 q 388 -92 375 -86 q 401 -110 401 -98 q 393 -151 401 -133 l 307 -380 l 233 -380 l 281 -89 l 300 -87 z "},"Ť":{"ha":694,"x_min":8,"x_max":686,"o":"m 285 937 l 8 937 l 8 1038 l 686 1038 l 686 937 l 400 937 l 400 0 l 285 0 l 285 937 m 133 1300 l 185 1354 l 346 1219 l 501 1355 l 551 1299 l 399 1132 l 291 1132 l 133 1300 z "},"ť":{"ha":579,"x_min":49,"x_max":549,"o":"m 549 39 q 345 -14 438 -14 q 152 132 175 -14 q 146 232 146 166 l 146 713 l 49 713 l 49 796 l 146 807 l 164 991 l 258 991 l 258 807 l 494 807 l 494 713 l 258 713 l 258 234 q 271 127 258 151 q 360 85 293 85 q 510 127 427 85 l 549 39 m 496 1210 q 531 1178 531 1210 q 528 1145 531 1169 l 492 916 l 416 916 l 416 1200 l 431 1203 q 496 1210 471 1210 z "},"Ŧ":{"ha":694,"x_min":8,"x_max":686,"o":"m 285 589 l 142 589 l 142 680 l 285 680 l 285 937 l 8 937 l 8 1038 l 686 1038 l 686 937 l 400 937 l 400 680 l 551 680 l 551 589 l 400 589 l 400 0 l 285 0 l 285 589 z "},"ŧ":{"ha":579,"x_min":49,"x_max":549,"o":"m 549 39 q 345 -14 438 -14 q 152 132 175 -14 q 146 232 146 166 l 146 447 l 49 447 l 49 538 l 146 538 l 146 713 l 49 713 l 49 796 l 146 807 l 164 991 l 258 991 l 258 807 l 494 807 l 494 713 l 258 713 l 258 538 l 493 538 l 493 447 l 258 447 l 258 234 q 271 127 258 151 q 360 85 293 85 q 510 127 427 85 l 549 39 z "},"Ũ":{"ha":1040,"x_min":145,"x_max":896,"o":"m 145 1038 l 259 1038 l 259 483 q 273 259 259 319 q 306 169 288 199 q 355 121 325 139 q 510 86 411 86 q 658 103 608 86 q 735 164 708 120 q 772 286 763 208 q 782 483 782 363 l 782 1038 l 896 1038 l 896 487 q 883 247 896 313 q 847 134 870 180 q 783 56 825 88 q 524 -14 696 -14 q 193 133 268 -14 q 147 350 152 215 q 145 478 145 412 l 145 1038 m 783 1306 q 602 1150 715 1150 q 512 1191 570 1150 q 470 1218 491 1206 q 433 1231 450 1231 q 403 1224 417 1231 q 374 1206 389 1217 q 342 1181 358 1196 l 311 1154 l 262 1197 q 348 1298 300 1267 q 443 1330 396 1330 l 452 1330 q 544 1291 489 1330 l 582 1265 q 615 1253 600 1253 q 644 1260 631 1253 q 671 1281 658 1268 q 697 1310 684 1294 l 724 1344 l 783 1306 z "},"ũ":{"ha":925,"x_min":146,"x_max":774,"o":"m 762 355 q 774 5 762 132 l 673 -3 l 657 93 q 472 -2 578 27 q 372 -14 430 -14 q 268 0 314 -14 q 195 45 222 14 q 146 245 146 100 l 146 807 l 260 807 l 260 263 q 279 137 260 165 q 324 99 298 109 q 386 90 350 90 q 455 95 422 90 q 523 112 489 101 q 652 175 594 135 l 652 176 q 649 376 649 227 l 649 807 l 762 807 l 762 355 m 720 1112 q 540 956 653 956 q 450 997 507 956 q 408 1024 429 1012 q 371 1037 387 1037 q 341 1030 355 1037 q 311 1013 327 1023 q 279 987 296 1002 l 248 960 l 200 1003 q 286 1104 238 1073 q 380 1136 334 1136 l 389 1136 q 481 1097 427 1136 l 519 1071 q 553 1059 537 1059 q 582 1066 568 1059 q 609 1087 595 1074 q 635 1116 622 1100 l 661 1150 l 720 1112 z "},"Ū":{"ha":1040,"x_min":145,"x_max":896,"o":"m 145 1038 l 259 1038 l 259 483 q 273 259 259 319 q 306 169 288 199 q 355 121 325 139 q 510 86 411 86 q 658 103 608 86 q 735 164 708 120 q 772 286 763 208 q 782 483 782 363 l 782 1038 l 896 1038 l 896 487 q 883 247 896 313 q 847 134 870 180 q 783 56 825 88 q 524 -14 696 -14 q 193 133 268 -14 q 147 350 152 215 q 145 478 145 412 l 145 1038 m 318 1272 l 724 1272 l 724 1181 l 318 1181 l 318 1272 z "},"ū":{"ha":925,"x_min":146,"x_max":774,"o":"m 762 355 q 774 5 762 132 l 673 -3 l 657 93 q 472 -2 578 27 q 372 -14 430 -14 q 268 0 314 -14 q 195 45 222 14 q 146 245 146 100 l 146 807 l 260 807 l 260 263 q 279 137 260 165 q 324 99 298 109 q 386 90 350 90 q 455 95 422 90 q 523 112 489 101 q 652 175 594 135 l 652 176 q 649 376 649 227 l 649 807 l 762 807 l 762 355 m 253 1128 l 659 1128 l 659 1036 l 253 1036 l 253 1128 z "},"Ŭ":{"ha":1040,"x_min":145,"x_max":896,"o":"m 145 1038 l 259 1038 l 259 483 q 273 259 259 319 q 306 169 288 199 q 355 121 325 139 q 510 86 411 86 q 658 103 608 86 q 735 164 708 120 q 772 286 763 208 q 782 483 782 363 l 782 1038 l 896 1038 l 896 487 q 883 247 896 313 q 847 134 870 180 q 783 56 825 88 q 524 -14 696 -14 q 193 133 268 -14 q 147 350 152 215 q 145 478 145 412 l 145 1038 m 741 1349 q 523 1118 734 1118 q 360 1177 416 1118 q 305 1349 305 1236 l 397 1356 q 430 1239 399 1275 q 523 1202 460 1202 q 640 1283 618 1202 q 648 1356 647 1313 l 741 1349 z "},"ŭ":{"ha":925,"x_min":146,"x_max":774,"o":"m 762 355 q 774 5 762 132 l 673 -3 l 657 93 q 472 -2 578 27 q 372 -14 430 -14 q 268 0 314 -14 q 195 45 222 14 q 146 245 146 100 l 146 807 l 260 807 l 260 263 q 279 137 260 165 q 324 99 298 109 q 386 90 350 90 q 455 95 422 90 q 523 112 489 101 q 652 175 594 135 l 652 176 q 649 376 649 227 l 649 807 l 762 807 l 762 355 m 675 1176 q 458 945 669 945 q 295 1004 351 945 q 240 1176 240 1063 l 332 1183 q 365 1066 334 1102 q 458 1029 395 1029 q 574 1111 553 1029 q 583 1183 582 1140 l 675 1176 z "},"Ů":{"ha":1040,"x_min":145,"x_max":896,"o":"m 145 1038 l 259 1038 l 259 483 q 273 259 259 319 q 306 169 288 199 q 355 121 325 139 q 510 86 411 86 q 658 103 608 86 q 735 164 708 120 q 772 286 763 208 q 782 483 782 363 l 782 1038 l 896 1038 l 896 487 q 883 247 896 313 q 847 134 870 180 q 783 56 825 88 q 524 -14 696 -14 q 193 133 268 -14 q 147 350 152 215 q 145 478 145 412 l 145 1038 m 517 1080 q 370 1154 406 1080 q 357 1217 357 1179 q 370 1281 357 1255 q 404 1324 382 1308 q 517 1356 445 1356 q 663 1281 628 1356 q 676 1217 676 1255 q 664 1154 676 1179 q 629 1112 651 1128 q 517 1080 587 1080 m 441 1217 q 515 1152 441 1152 q 590 1217 590 1152 q 515 1284 590 1284 q 441 1217 441 1284 z "},"ů":{"ha":925,"x_min":146,"x_max":774,"o":"m 762 355 q 774 5 762 132 l 673 -3 l 657 93 q 472 -2 578 27 q 372 -14 430 -14 q 268 0 314 -14 q 195 45 222 14 q 146 245 146 100 l 146 807 l 260 807 l 260 263 q 279 137 260 165 q 324 99 298 109 q 386 90 350 90 q 455 95 422 90 q 523 112 489 101 q 652 175 594 135 l 652 176 q 649 376 649 227 l 649 807 l 762 807 l 762 355 m 458 925 q 305 1002 343 925 q 292 1068 292 1029 q 305 1135 292 1107 q 340 1181 318 1163 q 458 1214 382 1214 q 610 1135 573 1214 q 624 1068 624 1107 q 611 1003 624 1029 q 575 959 597 976 q 458 925 532 925 m 377 1068 q 456 998 377 998 q 536 1068 536 998 q 456 1141 536 1141 q 377 1068 377 1141 z "},"Ű":{"ha":1040,"x_min":145,"x_max":896,"o":"m 145 1038 l 259 1038 l 259 483 q 273 259 259 319 q 306 169 288 199 q 355 121 325 139 q 510 86 411 86 q 658 103 608 86 q 735 164 708 120 q 772 286 763 208 q 782 483 782 363 l 782 1038 l 896 1038 l 896 487 q 883 247 896 313 q 847 134 870 180 q 783 56 825 88 q 524 -14 696 -14 q 193 133 268 -14 q 147 350 152 215 q 145 478 145 412 l 145 1038 m 597 1155 l 793 1356 l 881 1275 l 645 1105 l 597 1155 m 335 1157 l 513 1356 l 600 1276 l 382 1107 l 335 1157 z "},"ű":{"ha":925,"x_min":146,"x_max":804,"o":"m 762 355 q 774 5 762 132 l 673 -3 l 657 93 q 472 -2 578 27 q 372 -14 430 -14 q 268 0 314 -14 q 195 45 222 14 q 146 245 146 100 l 146 807 l 260 807 l 260 263 q 279 137 260 165 q 324 99 298 109 q 386 90 350 90 q 455 95 422 90 q 523 112 489 101 q 652 175 594 135 l 652 176 q 649 376 649 227 l 649 807 l 762 807 l 762 355 m 250 1002 l 439 1255 l 529 1179 l 307 949 l 250 1002 m 497 1007 l 717 1246 l 804 1164 l 552 949 l 497 1007 z "},"Ų":{"ha":1040,"x_min":145,"x_max":896,"o":"m 593 -322 q 416 -187 416 -322 q 519 -14 416 -91 q 193 134 267 -12 q 147 350 152 216 q 145 478 145 412 l 145 1038 l 259 1038 l 259 483 q 273 259 259 319 q 306 169 288 199 q 355 121 325 139 q 510 86 411 86 q 658 103 608 86 q 735 164 708 120 q 772 286 763 208 q 782 483 782 363 l 782 1038 l 896 1038 l 896 487 q 887 273 896 336 q 862 167 878 211 q 817 88 846 123 q 636 -5 755 16 q 521 -136 544 -62 q 514 -171 514 -155 q 585 -230 514 -230 q 686 -209 636 -230 l 713 -294 q 593 -322 669 -322 z "},"ų":{"ha":925,"x_min":146,"x_max":844,"o":"m 547 -186 q 672 3 547 -82 l 657 93 q 472 -2 578 27 q 372 -14 430 -14 q 268 0 314 -14 q 195 45 222 14 q 146 245 146 100 l 146 807 l 260 807 l 260 263 q 279 137 260 165 q 324 99 298 109 q 386 90 350 90 q 455 95 422 90 q 523 112 489 101 q 652 175 594 135 l 652 176 q 649 376 649 227 l 649 807 l 762 807 l 762 355 q 774 5 762 132 l 774 5 l 774 1 q 651 -134 675 -59 q 644 -170 644 -155 q 715 -229 644 -229 q 817 -208 766 -229 l 844 -293 q 723 -321 799 -321 q 547 -186 547 -321 z "},"Ŵ":{"ha":1386,"x_min":23,"x_max":1365,"o":"m 23 1038 l 148 1038 l 349 254 l 384 88 l 423 254 l 632 1038 l 767 1038 l 1016 83 l 1052 256 l 1243 1038 l 1365 1038 l 1099 0 l 927 0 l 728 742 l 698 917 l 666 742 l 461 0 l 302 0 l 23 1038 m 490 1183 l 642 1350 l 751 1350 l 909 1182 l 857 1128 l 696 1263 l 541 1127 l 490 1183 z "},"ŵ":{"ha":1272,"x_min":63,"x_max":1211,"o":"m 63 807 l 184 807 l 355 214 l 385 85 l 408 193 l 584 807 l 695 807 l 869 214 l 899 83 l 920 194 l 1088 807 l 1211 807 l 972 0 l 823 0 l 669 517 l 637 676 l 610 517 l 456 0 l 314 0 l 63 807 m 406 1003 l 595 1241 l 677 1241 l 873 1004 l 818 949 l 637 1129 l 462 949 l 406 1003 z "},"Ŷ":{"ha":810,"x_min":9,"x_max":801,"o":"m 347 383 l 9 1038 l 135 1038 l 357 592 l 407 477 l 456 594 l 673 1038 l 801 1038 l 463 383 l 462 0 l 348 0 l 347 383 m 199 1183 l 351 1350 l 460 1350 l 618 1182 l 566 1128 l 405 1263 l 250 1127 l 199 1183 z "},"ŷ":{"ha":808,"x_min":50,"x_max":750,"o":"m 134 -195 q 215 -213 183 -213 q 256 -211 246 -213 q 276 -204 266 -210 q 311 -162 300 -191 q 361 -10 340 -93 l 50 807 l 175 807 l 385 212 l 417 108 l 446 213 l 632 807 l 750 807 l 410 -191 q 237 -308 372 -308 q 103 -283 152 -308 l 134 -195 m 182 1003 l 372 1241 l 454 1241 l 649 1004 l 594 949 l 414 1129 l 238 949 l 182 1003 z "},"Ÿ":{"ha":810,"x_min":9,"x_max":801,"o":"m 347 383 l 9 1038 l 135 1038 l 357 592 l 407 477 l 456 594 l 673 1038 l 801 1038 l 463 383 l 462 0 l 348 0 l 347 383 m 561 1164 q 506 1177 518 1164 q 487 1232 487 1196 q 491 1282 487 1267 q 503 1306 495 1297 q 550 1321 519 1321 q 596 1318 582 1321 q 618 1306 610 1314 q 635 1255 635 1290 q 631 1205 635 1220 q 618 1180 627 1190 q 561 1164 604 1164 m 250 1164 q 195 1177 208 1164 q 176 1232 176 1196 q 180 1282 176 1267 q 193 1306 184 1297 q 240 1321 208 1321 q 285 1318 271 1321 q 308 1306 299 1314 q 323 1255 323 1291 q 319 1205 323 1220 q 308 1180 316 1190 q 250 1164 293 1164 z "},"Ź":{"ha":810,"x_min":72,"x_max":732,"o":"m 72 58 l 591 941 l 107 941 l 107 1038 l 732 1038 l 732 978 l 216 96 l 728 96 l 728 0 l 72 0 l 72 58 m 294 1181 l 576 1356 l 639 1249 l 328 1118 l 294 1181 z "},"ź":{"ha":694,"x_min":63,"x_max":639,"o":"m 72 77 l 485 713 l 63 713 l 63 807 l 622 807 l 622 730 l 210 94 l 639 94 l 639 0 l 72 0 l 72 77 m 261 1008 l 480 1246 l 568 1164 l 317 949 l 261 1008 z "},"Ż":{"ha":810,"x_min":72,"x_max":732,"o":"m 72 58 l 591 941 l 107 941 l 107 1038 l 732 1038 l 732 978 l 216 96 l 728 96 l 728 0 l 72 0 l 72 58 m 404 1160 q 345 1173 358 1160 q 325 1231 325 1194 q 329 1284 325 1268 q 343 1309 334 1300 q 392 1325 359 1325 q 440 1322 426 1325 q 464 1309 455 1318 q 481 1256 481 1293 q 477 1203 481 1219 q 464 1177 473 1187 q 404 1160 448 1160 z "},"ż":{"ha":694,"x_min":63,"x_max":639,"o":"m 72 77 l 485 713 l 63 713 l 63 807 l 622 807 l 622 730 l 210 94 l 639 94 l 639 0 l 72 0 l 72 77 m 351 1000 q 293 1013 306 1000 q 273 1071 273 1034 q 277 1124 273 1108 q 290 1149 281 1140 q 340 1165 307 1165 q 388 1162 374 1165 q 412 1149 403 1158 q 429 1096 429 1133 q 425 1043 429 1059 q 412 1017 421 1027 q 351 1000 395 1000 z "},"Ž":{"ha":810,"x_min":72,"x_max":732,"o":"m 72 58 l 591 941 l 107 941 l 107 1038 l 732 1038 l 732 978 l 216 96 l 728 96 l 728 0 l 72 0 l 72 58 m 212 1300 l 264 1354 l 425 1219 l 580 1355 l 630 1299 l 478 1132 l 370 1132 l 212 1300 z "},"ž":{"ha":694,"x_min":63,"x_max":639,"o":"m 72 77 l 485 713 l 63 713 l 63 807 l 622 807 l 622 730 l 210 94 l 639 94 l 639 0 l 72 0 l 72 77 m 119 1192 l 174 1246 l 354 1066 l 530 1246 l 585 1192 l 396 954 l 314 954 l 119 1192 z "},"ƒ":{"ha":579,"x_min":96,"x_max":587,"o":"m 561 931 q 448 956 490 956 q 385 949 406 956 q 350 929 365 943 q 317 834 321 901 l 302 581 l 477 581 l 471 488 l 294 488 l 246 -231 l 141 -231 l 189 488 l 96 488 l 101 570 l 195 581 l 211 843 q 290 1013 218 963 q 441 1051 344 1051 q 547 1041 513 1051 q 587 1028 581 1030 l 561 931 z "},"Ǽ":{"ha":1272,"x_min":32,"x_max":1228,"o":"m 573 1038 l 1210 1038 l 1210 937 l 772 937 l 772 579 l 1118 579 l 1118 479 l 772 479 l 772 100 l 1228 100 l 1228 0 l 656 0 l 656 285 l 307 285 l 162 0 l 32 0 l 573 1038 m 656 382 l 656 975 l 355 382 l 656 382 m 740 1181 l 1022 1356 l 1085 1249 l 774 1118 l 740 1181 z "},"ǽ":{"ha":1502,"x_min":155,"x_max":1348,"o":"m 1343 43 q 1033 -14 1202 -14 q 756 85 839 -14 q 741 108 749 94 l 701 81 q 472 -5 606 19 q 391 -14 427 -14 q 327 -10 355 -14 q 274 3 300 -7 q 227 31 249 13 q 189 77 205 48 q 155 248 155 139 q 205 435 155 372 q 395 508 262 508 q 696 456 529 508 l 695 539 q 572 713 695 686 q 482 722 533 722 q 241 676 366 722 l 216 774 q 392 815 251 797 q 511 821 437 821 q 655 794 585 821 q 761 705 725 768 l 761 704 l 762 705 q 870 795 798 770 q 1044 821 943 821 q 1204 797 1145 821 q 1296 730 1264 774 q 1337 623 1327 686 q 1348 503 1348 560 q 1343 364 1348 413 q 1173 360 1248 360 l 1066 360 q 800 373 880 360 q 841 157 800 218 q 1033 83 890 83 q 1310 140 1176 83 l 1343 43 m 1233 456 l 1233 521 q 1194 673 1233 627 q 1036 724 1149 724 q 849 665 899 724 q 800 456 800 608 l 1233 456 m 270 261 q 270 228 270 261 q 277 167 270 195 q 300 122 284 139 q 406 89 332 89 q 647 144 528 89 q 711 183 684 161 q 694 373 697 250 q 398 410 557 410 q 289 361 315 410 q 270 261 270 326 m 665 1008 l 884 1246 l 972 1164 l 722 949 l 665 1008 z "},"Ș":{"ha":810,"x_min":58,"x_max":732,"o":"m 102 163 q 404 82 256 82 q 604 191 574 82 q 613 274 613 227 l 613 300 q 606 377 613 348 q 578 425 600 406 q 411 475 543 455 q 249 510 294 494 q 175 546 204 526 q 126 594 146 565 q 84 763 84 655 l 84 770 q 270 1038 84 994 q 404 1051 329 1051 l 412 1051 q 697 1001 587 1051 l 662 897 q 416 955 528 955 l 410 955 q 239 908 286 955 q 199 772 199 869 l 199 769 q 260 624 199 659 q 409 585 302 602 q 568 556 515 568 q 656 517 620 544 q 732 300 732 460 l 732 292 q 536 1 732 48 q 422 -14 476 -14 q 325 -10 369 -14 q 236 3 281 -6 q 58 68 130 25 l 102 163 m 361 -87 q 391 -86 378 -86 l 416 -86 q 449 -92 436 -86 q 462 -110 462 -98 q 454 -151 462 -133 l 368 -380 l 294 -380 l 342 -89 l 361 -87 z "},"ș":{"ha":810,"x_min":104,"x_max":694,"o":"m 153 160 q 433 82 292 82 q 571 165 551 82 q 578 235 578 194 q 568 299 578 276 q 536 333 559 321 q 477 349 514 344 q 383 365 440 355 q 279 387 326 374 q 198 422 231 399 q 130 589 127 471 l 130 606 q 212 781 130 729 q 471 817 290 833 q 668 774 595 805 l 636 671 q 441 722 555 706 q 375 726 406 726 q 319 722 344 726 q 277 704 294 717 q 243 606 244 677 q 290 498 241 521 q 403 467 338 475 q 509 452 468 458 q 585 435 551 446 q 643 400 618 424 q 692 233 694 352 q 519 -5 689 24 q 416 -14 467 -14 q 321 -7 364 -14 q 239 11 278 -1 q 104 66 164 32 l 153 160 m 372 -87 q 401 -86 389 -86 l 427 -86 q 460 -92 447 -86 q 473 -110 473 -98 q 465 -151 473 -133 l 379 -380 l 305 -380 l 353 -89 l 372 -87 z "},"ȷ":{"ha":463,"x_min":5,"x_max":286,"o":"m 36 -215 q 126 -228 98 -231 q 165 -205 154 -224 q 176 -141 176 -185 l 176 807 l 286 807 l 286 -131 q 256 -266 286 -221 q 132 -322 220 -322 q 5 -298 48 -322 l 36 -215 z "},"ˆ":{"ha":461,"x_min":0,"x_max":467,"o":"m 0 1003 l 189 1241 l 271 1241 l 467 1004 l 412 949 l 231 1129 l 56 949 l 0 1003 z "},"ˇ":{"ha":461,"x_min":-2,"x_max":465,"o":"m -2 1192 l 53 1246 l 233 1066 l 409 1246 l 465 1192 l 275 954 l 193 954 l -2 1192 z "},"˘":{"ha":579,"x_min":70,"x_max":505,"o":"m 505 1176 q 288 945 498 945 q 125 1004 180 945 q 70 1176 70 1063 l 162 1183 q 194 1066 163 1102 q 288 1029 225 1029 q 404 1111 382 1029 q 413 1183 412 1140 l 505 1176 z "},"˙":{"ha":465,"x_min":153,"x_max":309,"o":"m 232 1000 q 174 1013 186 1000 q 153 1071 153 1034 q 158 1124 153 1108 q 171 1149 162 1140 q 221 1165 187 1165 q 269 1162 254 1165 q 293 1149 283 1158 q 309 1096 309 1133 q 306 1043 309 1059 q 293 1017 302 1027 q 232 1000 276 1000 z "},"˚":{"ha":577,"x_min":123,"x_max":456,"o":"m 290 925 q 137 1002 175 925 q 123 1068 123 1029 q 137 1135 123 1107 q 172 1181 150 1163 q 290 1214 214 1214 q 442 1135 405 1214 q 456 1068 456 1107 q 443 1003 456 1029 q 407 959 429 976 q 290 925 363 925 m 209 1068 q 288 998 209 998 q 368 1068 368 998 q 288 1141 368 1141 q 209 1068 209 1141 z "},"˛":{"ha":463,"x_min":146,"x_max":444,"o":"m 323 -321 q 146 -186 146 -321 q 319 33 146 -66 l 374 7 l 374 1 q 251 -134 275 -59 q 244 -170 244 -155 q 315 -229 244 -229 q 416 -208 366 -229 l 444 -293 q 323 -321 399 -321 z "},"˜":{"ha":572,"x_min":26,"x_max":546,"o":"m 546 1112 q 366 956 479 956 q 275 997 333 956 q 234 1024 254 1012 q 197 1037 213 1037 q 166 1030 180 1037 q 137 1013 153 1023 q 105 987 121 1002 l 74 960 l 26 1003 q 112 1104 64 1073 q 206 1136 159 1136 l 215 1136 q 307 1097 252 1136 l 345 1071 q 378 1059 363 1059 q 408 1066 394 1059 q 434 1087 421 1074 q 460 1116 448 1100 l 487 1150 l 546 1112 z "},"˝":{"ha":577,"x_min":92,"x_max":645,"o":"m 92 1002 l 280 1255 l 370 1179 l 149 949 l 92 1002 m 338 1007 l 558 1246 l 645 1164 l 393 949 l 338 1007 z "},"Δ":{"ha":925,"x_min":25,"x_max":900,"o":"m 372 1038 l 544 1038 l 900 0 l 25 0 l 372 1038 m 753 96 l 459 967 l 171 96 l 753 96 z "},"Ω":{"ha":1040,"x_min":70,"x_max":970,"o":"m 70 90 l 252 90 l 340 89 q 171 259 235 137 q 106 467 125 347 q 94 616 94 533 q 118 786 94 699 q 193 930 142 872 q 508 1050 296 1050 l 536 1050 q 925 785 852 1050 q 949 586 949 699 q 924 404 949 494 q 871 262 898 315 q 704 89 808 142 l 791 90 l 970 90 l 970 -1 l 602 -1 l 602 142 q 815 430 764 197 q 829 547 829 494 l 829 586 q 764 856 829 770 q 543 946 696 946 l 501 946 q 279 856 347 946 q 215 586 215 770 l 215 547 q 253 347 215 454 q 355 191 287 251 q 442 142 392 159 l 442 -1 l 70 -1 l 70 90 z "},"π":{"ha":1040,"x_min":56,"x_max":984,"o":"m 873 -30 q 693 226 693 50 l 693 715 l 328 715 l 328 0 l 218 0 l 217 715 l 56 715 l 56 807 l 984 807 l 984 715 l 804 715 l 803 224 q 876 79 803 145 q 929 37 899 58 l 873 -30 z "},"Ḃ":{"ha":925,"x_min":160,"x_max":837,"o":"m 793 772 q 635 542 793 563 l 635 540 q 781 484 733 532 q 837 319 837 427 q 812 151 837 211 q 743 58 787 92 q 507 0 668 0 l 160 0 l 160 1034 q 470 1052 348 1052 q 649 1033 592 1052 q 738 979 706 1015 q 793 772 793 918 m 428 574 q 617 613 564 574 q 677 774 677 656 l 677 789 q 637 918 677 880 q 501 956 597 956 q 364 953 420 956 l 275 947 l 275 574 l 428 574 m 521 96 q 663 134 621 96 q 717 307 717 182 q 612 475 717 450 q 543 482 580 482 l 275 482 l 275 96 l 521 96 m 463 1160 q 404 1173 417 1160 q 384 1231 384 1194 q 388 1284 384 1268 q 402 1309 393 1300 q 451 1325 418 1325 q 499 1322 485 1325 q 523 1309 514 1318 q 540 1256 540 1293 q 536 1203 540 1219 q 523 1177 532 1187 q 463 1160 507 1160 z "},"ḃ":{"ha":925,"x_min":147,"x_max":798,"o":"m 257 75 l 243 0 l 147 0 l 147 1154 l 260 1165 l 260 730 q 531 821 400 821 q 762 709 713 821 q 796 511 792 638 q 798 375 798 449 l 798 321 q 786 181 798 228 q 755 101 774 134 q 705 42 737 67 q 507 -14 636 -14 q 257 75 378 -14 m 260 164 q 502 86 404 86 l 510 86 q 659 151 626 86 q 681 235 677 183 q 685 361 685 288 l 685 458 q 650 662 685 610 q 522 714 616 714 l 505 714 q 308 664 420 714 q 260 640 279 651 l 260 164 m 531 1000 q 473 1013 486 1000 q 452 1071 452 1034 q 457 1124 452 1108 q 470 1149 461 1140 q 520 1165 486 1165 q 568 1162 553 1165 q 592 1149 583 1158 q 608 1096 608 1133 q 605 1043 608 1059 q 592 1017 601 1027 q 531 1000 575 1000 z "},"Ḋ":{"ha":1040,"x_min":160,"x_max":897,"o":"m 160 1031 q 262 1039 160 1031 q 505 1051 414 1051 q 650 1044 596 1051 q 746 1020 705 1037 q 815 972 787 1002 q 863 897 844 943 q 897 640 897 810 l 897 535 q 867 229 897 334 q 743 56 833 109 q 473 0 651 0 l 160 0 l 160 1031 m 736 873 q 665 931 711 911 q 524 951 619 951 q 275 939 428 951 l 275 97 l 491 97 q 678 138 617 97 q 758 276 738 178 q 776 535 776 356 l 776 641 q 736 873 776 810 m 487 1160 q 429 1173 441 1160 q 408 1231 408 1194 q 413 1284 408 1268 q 427 1309 417 1300 q 476 1325 442 1325 q 524 1322 509 1325 q 547 1309 538 1318 q 564 1256 564 1293 q 561 1203 564 1219 q 547 1177 557 1187 q 487 1160 531 1160 z "},"ḋ":{"ha":925,"x_min":128,"x_max":793,"o":"m 675 90 q 385 -14 532 -14 q 167 106 221 -14 q 132 250 136 174 q 128 383 128 326 q 129 498 128 440 q 138 606 130 557 q 161 695 145 656 q 207 763 177 735 q 411 821 269 821 q 667 771 553 821 l 667 1154 l 780 1165 l 780 371 q 793 5 780 137 l 692 -3 l 675 90 m 667 678 q 431 719 545 719 q 322 705 349 719 q 282 670 296 692 q 259 610 268 648 q 243 376 243 539 l 243 361 q 277 150 243 208 q 410 88 313 88 l 420 88 q 620 148 514 88 q 670 180 649 164 l 670 182 q 667 376 667 245 l 667 678 m 387 1000 q 328 1013 341 1000 q 308 1071 308 1034 q 312 1124 308 1108 q 326 1149 317 1140 q 375 1165 342 1165 q 424 1162 409 1165 q 448 1149 438 1158 q 464 1096 464 1133 q 460 1043 464 1059 q 448 1017 456 1027 q 387 1000 431 1000 z "},"Ḟ":{"ha":808,"x_min":160,"x_max":756,"o":"m 160 1038 l 756 1038 l 756 937 l 275 937 l 275 530 l 692 530 l 692 430 l 275 430 l 275 0 l 160 0 l 160 1038 m 459 1160 q 401 1173 414 1160 q 380 1231 380 1194 q 385 1284 380 1268 q 399 1309 389 1300 q 448 1325 414 1325 q 496 1322 481 1325 q 519 1309 511 1318 q 536 1256 536 1293 q 533 1203 536 1219 q 519 1177 529 1187 q 459 1160 503 1160 z "},"ḟ":{"ha":464,"x_min":69,"x_max":557,"o":"m 396 1069 q 370 1069 396 1069 q 317 1046 344 1069 q 290 957 290 1023 q 315 807 290 890 l 507 807 l 507 713 l 313 713 l 313 0 l 204 0 l 204 713 l 69 713 l 69 796 l 203 807 q 186 886 194 825 q 178 974 178 947 q 403 1166 178 1166 q 557 1149 484 1166 l 536 1048 q 396 1069 448 1069 m 191 1192 q 133 1204 146 1192 q 113 1262 113 1225 q 117 1315 113 1299 q 130 1340 121 1331 q 180 1356 146 1356 q 228 1353 214 1356 q 252 1340 243 1350 q 269 1287 269 1324 q 265 1234 269 1250 q 252 1208 261 1218 q 191 1192 235 1192 z "},"Ṁ":{"ha":1391,"x_min":85,"x_max":1301,"o":"m 245 1038 l 422 1038 l 659 271 l 699 106 l 737 272 l 965 1038 l 1134 1038 l 1301 0 l 1186 0 l 1060 784 l 1041 967 l 1000 783 l 766 1 l 632 1 l 388 787 l 340 967 l 317 785 l 202 0 l 85 0 l 245 1038 m 695 1160 q 637 1173 650 1160 q 616 1231 616 1194 q 621 1284 616 1268 q 635 1309 625 1300 q 684 1325 650 1325 q 732 1322 718 1325 q 755 1309 747 1318 q 772 1256 772 1293 q 769 1203 772 1219 q 755 1177 765 1187 q 695 1160 739 1160 z "},"ṁ":{"ha":1388,"x_min":153,"x_max":1240,"o":"m 507 715 q 265 637 396 715 l 265 0 l 153 0 l 153 807 l 252 807 l 262 724 q 528 821 381 821 q 661 797 612 821 q 731 718 709 772 q 1016 821 881 821 q 1193 762 1143 821 q 1240 562 1240 706 l 1240 0 l 1126 0 l 1126 541 q 1107 667 1126 639 q 1062 705 1088 695 q 1001 715 1036 715 q 936 708 966 715 q 873 691 905 702 q 749 634 808 669 q 753 562 753 593 l 753 0 l 639 0 l 639 541 q 620 667 639 639 q 575 705 601 695 q 507 715 549 715 m 697 1000 q 639 1013 652 1000 q 618 1071 618 1034 q 623 1124 618 1108 q 636 1149 627 1140 q 686 1165 652 1165 q 734 1162 720 1165 q 758 1149 749 1158 q 774 1096 774 1133 q 771 1043 774 1059 q 758 1017 767 1027 q 697 1000 741 1000 z "},"Ṗ":{"ha":925,"x_min":160,"x_max":838,"o":"m 565 326 q 468 324 537 324 q 275 342 398 324 l 275 0 l 160 0 l 160 1034 q 553 1052 357 1052 q 783 978 717 1052 q 838 772 838 916 l 838 692 q 814 502 838 581 q 565 326 762 338 m 557 954 q 275 947 372 954 l 275 438 q 487 422 394 422 q 620 436 579 422 q 682 480 660 449 q 720 690 720 533 l 720 774 q 682 913 720 871 q 557 954 646 954 m 471 1160 q 413 1173 426 1160 q 393 1231 393 1194 q 397 1284 393 1268 q 411 1309 401 1300 q 460 1325 427 1325 q 508 1322 494 1325 q 532 1309 523 1318 q 549 1256 549 1293 q 545 1203 549 1219 q 532 1177 541 1187 q 471 1160 515 1160 z "},"ṗ":{"ha":925,"x_min":147,"x_max":798,"o":"m 260 48 l 260 -309 l 147 -309 l 147 807 l 239 807 l 252 724 q 458 811 331 783 q 559 821 505 821 q 655 806 613 821 q 724 767 696 792 q 766 706 751 741 q 788 629 781 671 q 798 448 798 572 l 798 432 q 787 212 798 273 q 758 112 776 151 q 709 44 741 72 q 510 -14 645 -14 q 260 48 375 -14 m 260 141 q 502 88 375 88 q 623 119 585 88 q 680 315 674 161 q 682 431 682 366 l 682 446 q 655 655 682 602 q 529 715 625 715 l 519 715 q 312 666 419 715 q 260 637 281 652 l 260 141 m 473 1000 q 414 1013 427 1000 q 394 1071 394 1034 q 398 1124 394 1108 q 412 1149 403 1140 q 461 1165 428 1165 q 510 1162 495 1165 q 534 1149 524 1158 q 550 1096 550 1133 q 546 1043 550 1059 q 534 1017 543 1027 q 473 1000 517 1000 z "},"Ṡ":{"ha":810,"x_min":58,"x_max":732,"o":"m 102 163 q 404 82 256 82 q 604 191 574 82 q 613 274 613 227 l 613 300 q 606 377 613 348 q 578 425 600 406 q 411 475 543 455 q 249 510 294 494 q 175 546 204 526 q 126 594 146 565 q 84 763 84 655 l 84 770 q 270 1038 84 994 q 404 1051 329 1051 l 412 1051 q 697 1001 587 1051 l 662 897 q 416 955 528 955 l 410 955 q 239 908 286 955 q 199 772 199 869 l 199 769 q 260 624 199 659 q 409 585 302 602 q 568 556 515 568 q 656 517 620 544 q 732 300 732 460 l 732 292 q 536 1 732 48 q 422 -14 476 -14 q 325 -10 369 -14 q 236 3 281 -6 q 58 68 130 25 l 102 163 m 405 1160 q 347 1173 359 1160 q 326 1231 326 1194 q 331 1284 326 1268 q 345 1309 335 1300 q 394 1325 360 1325 q 442 1322 427 1325 q 465 1309 456 1318 q 482 1256 482 1293 q 478 1203 482 1219 q 465 1177 475 1187 q 405 1160 449 1160 z "},"ṡ":{"ha":810,"x_min":104,"x_max":694,"o":"m 153 160 q 433 82 292 82 q 571 165 551 82 q 578 235 578 194 q 568 299 578 276 q 536 333 559 321 q 477 349 514 344 q 383 365 440 355 q 279 387 326 374 q 198 422 231 399 q 130 589 127 471 l 130 606 q 212 781 130 729 q 471 817 290 833 q 668 774 595 805 l 636 671 q 441 722 555 706 q 375 726 406 726 q 319 722 344 726 q 277 704 294 717 q 243 606 244 677 q 290 498 241 521 q 403 467 338 475 q 509 452 468 458 q 585 435 551 446 q 643 400 618 424 q 692 233 694 352 q 519 -5 689 24 q 416 -14 467 -14 q 321 -7 364 -14 q 239 11 278 -1 q 104 66 164 32 l 153 160 m 399 1000 q 340 1013 353 1000 q 320 1071 320 1034 q 325 1124 320 1108 q 338 1149 329 1140 q 388 1165 354 1165 q 436 1162 421 1165 q 460 1149 450 1158 q 476 1096 476 1133 q 472 1043 476 1059 q 460 1017 469 1027 q 399 1000 443 1000 z "},"Ṫ":{"ha":694,"x_min":8,"x_max":686,"o":"m 285 937 l 8 937 l 8 1038 l 686 1038 l 686 937 l 400 937 l 400 0 l 285 0 l 285 937 m 347 1160 q 288 1173 301 1160 q 268 1231 268 1194 q 272 1284 268 1268 q 286 1309 277 1300 q 335 1325 302 1325 q 384 1322 369 1325 q 407 1309 398 1318 q 424 1256 424 1293 q 420 1203 424 1219 q 407 1177 416 1187 q 347 1160 391 1160 z "},"ṫ":{"ha":579,"x_min":49,"x_max":549,"o":"m 549 39 q 345 -14 438 -14 q 152 132 175 -14 q 146 232 146 166 l 146 713 l 49 713 l 49 796 l 146 807 l 164 991 l 258 991 l 258 807 l 494 807 l 494 713 l 258 713 l 258 234 q 271 127 258 151 q 360 85 293 85 q 510 127 427 85 l 549 39 m 215 1122 q 157 1135 170 1122 q 136 1193 136 1156 q 141 1246 136 1230 q 154 1271 145 1262 q 204 1287 170 1287 q 252 1284 237 1287 q 276 1271 267 1280 q 292 1218 292 1255 q 289 1165 292 1181 q 276 1139 285 1149 q 215 1122 259 1122 z "},"Ẁ":{"ha":1386,"x_min":23,"x_max":1365,"o":"m 23 1038 l 148 1038 l 349 254 l 384 88 l 423 254 l 632 1038 l 767 1038 l 1016 83 l 1052 256 l 1243 1038 l 1365 1038 l 1099 0 l 927 0 l 728 742 l 698 917 l 666 742 l 461 0 l 302 0 l 23 1038 m 499 1245 l 556 1356 l 842 1181 l 808 1118 l 499 1245 z "},"ẁ":{"ha":1272,"x_min":63,"x_max":1211,"o":"m 63 807 l 184 807 l 355 214 l 385 85 l 408 193 l 584 807 l 695 807 l 869 214 l 899 83 l 920 194 l 1088 807 l 1211 807 l 972 0 l 823 0 l 669 517 l 637 676 l 610 517 l 456 0 l 314 0 l 63 807 m 471 1162 l 555 1247 l 776 1008 l 720 949 l 471 1162 z "},"Ẃ":{"ha":1386,"x_min":23,"x_max":1365,"o":"m 23 1038 l 148 1038 l 349 254 l 384 88 l 423 254 l 632 1038 l 767 1038 l 1016 83 l 1052 256 l 1243 1038 l 1365 1038 l 1099 0 l 927 0 l 728 742 l 698 917 l 666 742 l 461 0 l 302 0 l 23 1038 m 555 1181 l 837 1356 l 900 1249 l 589 1118 l 555 1181 z "},"ẃ":{"ha":1272,"x_min":63,"x_max":1211,"o":"m 63 807 l 184 807 l 355 214 l 385 85 l 408 193 l 584 807 l 695 807 l 869 214 l 899 83 l 920 194 l 1088 807 l 1211 807 l 972 0 l 823 0 l 669 517 l 637 676 l 610 517 l 456 0 l 314 0 l 63 807 m 526 1008 l 745 1246 l 833 1164 l 583 949 l 526 1008 z "},"Ẅ":{"ha":1386,"x_min":23,"x_max":1365,"o":"m 23 1038 l 148 1038 l 349 254 l 384 88 l 423 254 l 632 1038 l 767 1038 l 1016 83 l 1052 256 l 1243 1038 l 1365 1038 l 1099 0 l 927 0 l 728 742 l 698 917 l 666 742 l 461 0 l 302 0 l 23 1038 m 854 1164 q 800 1177 812 1164 q 781 1232 781 1196 q 785 1282 781 1267 q 797 1306 789 1297 q 844 1321 812 1321 q 890 1318 876 1321 q 912 1306 904 1314 q 928 1255 928 1290 q 925 1205 928 1220 q 912 1180 921 1190 q 854 1164 898 1164 m 544 1164 q 489 1177 501 1164 q 470 1232 470 1196 q 474 1282 470 1267 q 486 1306 478 1297 q 533 1321 502 1321 q 579 1318 565 1321 q 602 1306 593 1314 q 616 1255 616 1291 q 613 1205 616 1220 q 602 1180 610 1190 q 544 1164 587 1164 z "},"ẅ":{"ha":1272,"x_min":63,"x_max":1211,"o":"m 63 807 l 184 807 l 355 214 l 385 85 l 408 193 l 584 807 l 695 807 l 869 214 l 899 83 l 920 194 l 1088 807 l 1211 807 l 972 0 l 823 0 l 669 517 l 637 676 l 610 517 l 456 0 l 314 0 l 63 807 m 798 1004 q 743 1017 755 1004 q 724 1072 724 1036 q 728 1122 724 1107 q 741 1146 732 1137 q 788 1161 756 1161 q 833 1158 819 1161 q 856 1146 848 1154 q 872 1095 872 1130 q 868 1045 872 1060 q 856 1020 865 1029 q 798 1004 842 1004 m 488 1004 q 433 1017 445 1004 q 414 1072 414 1036 q 418 1122 414 1107 q 430 1146 422 1137 q 477 1161 446 1161 q 523 1158 509 1161 q 545 1146 536 1154 q 560 1095 560 1131 q 557 1045 560 1060 q 545 1020 553 1029 q 488 1004 530 1004 z "},"Ỳ":{"ha":810,"x_min":9,"x_max":801,"o":"m 347 383 l 9 1038 l 135 1038 l 357 592 l 407 477 l 456 594 l 673 1038 l 801 1038 l 463 383 l 462 0 l 348 0 l 347 383 m 216 1245 l 273 1356 l 559 1181 l 525 1118 l 216 1245 z "},"ỳ":{"ha":808,"x_min":50,"x_max":750,"o":"m 134 -195 q 215 -213 183 -213 q 256 -211 246 -213 q 276 -204 266 -210 q 311 -162 300 -191 q 361 -10 340 -93 l 50 807 l 175 807 l 385 212 l 417 108 l 446 213 l 632 807 l 750 807 l 410 -191 q 237 -308 372 -308 q 103 -283 152 -308 l 134 -195 m 250 1162 l 334 1247 l 555 1008 l 498 949 l 250 1162 z "},"–":{"ha":1155,"x_min":175,"x_max":979,"o":"m 175 450 l 979 450 l 979 357 l 175 357 l 175 450 z "},"—":{"ha":1501,"x_min":172,"x_max":1329,"o":"m 172 450 l 1329 450 l 1329 357 l 172 357 l 172 450 z "},"‘":{"ha":347,"x_min":77,"x_max":250,"o":"m 144 848 l 113 848 q 87 853 98 848 q 77 869 77 858 q 81 905 77 888 l 161 1225 l 250 1225 l 202 850 l 176 849 q 144 848 161 848 z "},"’":{"ha":347,"x_min":90,"x_max":264,"o":"m 138 1222 l 164 1223 q 196 1225 179 1225 l 224 1225 q 253 1220 243 1225 q 264 1204 264 1215 q 259 1167 264 1185 l 179 848 l 90 848 l 138 1222 z "},"‚":{"ha":347,"x_min":90,"x_max":264,"o":"m 138 158 l 164 159 q 196 161 179 161 l 224 161 q 253 156 243 161 q 264 140 264 151 q 259 103 264 121 l 179 -216 l 90 -216 l 138 158 z "},"“":{"ha":696,"x_min":123,"x_max":572,"o":"m 191 848 l 159 848 q 133 853 144 848 q 123 869 123 858 q 127 905 123 888 l 208 1225 l 296 1225 l 248 850 l 222 849 q 191 848 208 848 m 467 848 l 435 848 q 409 853 420 848 q 399 869 399 858 q 404 905 399 888 l 484 1225 l 572 1225 l 524 850 l 498 849 q 467 848 484 848 z "},"”":{"ha":696,"x_min":130,"x_max":566,"o":"m 440 1222 l 466 1223 q 498 1225 481 1225 l 526 1225 q 555 1220 545 1225 q 566 1204 566 1215 q 561 1167 566 1185 l 481 848 l 392 848 l 440 1222 m 178 1222 l 203 1223 q 235 1225 218 1225 q 264 1225 235 1225 q 293 1220 282 1225 q 303 1204 303 1215 q 298 1167 303 1185 l 218 848 l 130 848 l 178 1222 z "},"„":{"ha":696,"x_min":130,"x_max":566,"o":"m 440 157 l 466 159 q 498 160 481 160 l 526 160 q 555 155 545 160 q 566 139 566 150 q 561 102 566 120 l 481 -217 l 392 -217 l 440 157 m 203 159 q 235 160 218 160 q 264 160 235 160 q 293 155 282 160 q 303 139 303 150 q 298 102 303 120 l 218 -217 l 130 -217 l 178 157 l 203 159 z "},"†":{"ha":694,"x_min":73,"x_max":622,"o":"m 296 715 l 73 709 l 73 814 l 296 806 l 296 1158 l 398 1158 l 398 806 l 622 814 l 622 709 l 398 715 l 398 -183 l 296 -183 l 296 715 z "},"‡":{"ha":694,"x_min":73,"x_max":622,"o":"m 73 352 l 346 342 l 622 352 l 622 247 l 346 256 l 73 247 l 73 352 m 296 715 l 73 709 l 73 814 l 296 806 l 296 1158 l 398 1158 l 398 806 l 622 814 l 622 709 l 398 715 l 398 -183 l 296 -183 l 296 715 z "},"•":{"ha":463,"x_min":119,"x_max":344,"o":"m 232 330 q 142 355 165 330 q 119 437 119 380 q 125 517 119 494 q 144 555 130 541 q 216 579 168 579 q 287 574 265 579 q 321 555 309 568 q 344 474 344 530 q 339 394 344 418 q 321 355 334 370 q 232 330 299 330 z "},"…":{"ha":1042,"x_min":94,"x_max":947,"o":"m 808 1 q 802 8 808 1 q 792 32 795 15 q 789 76 789 50 q 792 120 789 103 q 806 146 796 137 q 857 164 821 164 q 907 160 892 164 q 931 146 922 157 q 947 77 947 130 q 935 9 947 24 q 868 -13 916 -13 q 808 1 821 -13 m 461 1 q 455 8 461 1 q 445 32 448 15 q 441 76 441 50 q 445 120 441 103 q 458 146 449 137 q 509 164 474 164 q 560 160 545 164 q 584 146 575 157 q 600 77 600 130 q 587 9 600 24 q 521 -13 568 -13 q 461 1 473 -13 m 114 1 q 107 8 114 1 q 98 32 101 15 q 94 76 94 50 q 98 120 94 103 q 111 146 102 137 q 162 164 127 164 q 213 160 197 164 q 237 146 228 157 q 252 77 252 130 q 240 9 252 24 q 174 -13 221 -13 q 114 1 126 -13 z "},"‰":{"ha":1856,"x_min":47,"x_max":1801,"o":"m 280 524 q 165 538 211 524 q 94 585 120 553 q 47 785 47 640 q 95 986 47 930 q 289 1048 148 1048 q 477 986 429 1048 q 519 789 519 933 q 468 583 519 642 q 280 524 416 524 m 865 1038 l 975 1038 l 391 0 l 283 0 l 865 1038 m 176 644 q 183 633 176 644 q 216 613 191 622 q 282 605 242 605 q 347 613 321 605 q 387 643 372 621 q 413 799 413 683 q 388 932 413 897 q 288 967 363 967 q 178 932 207 967 q 151 819 151 897 q 156 703 151 740 q 176 644 161 665 m 1329 249 q 1377 450 1329 395 q 1571 512 1430 512 q 1759 450 1710 512 q 1801 253 1801 397 q 1750 47 1801 106 q 1563 -12 1697 -12 q 1375 49 1426 -12 q 1329 249 1329 104 m 750 249 q 798 450 750 395 q 992 512 851 512 q 1180 450 1132 512 q 1222 253 1222 397 q 1172 47 1222 106 q 985 -12 1119 -12 q 797 49 848 -12 q 750 249 750 104 m 1432 258 q 1438 167 1432 204 q 1458 108 1443 130 q 1565 69 1484 69 q 1668 107 1643 69 q 1695 262 1695 147 q 1670 396 1695 361 q 1570 431 1645 431 q 1460 396 1489 431 q 1432 258 1432 361 m 854 258 q 859 167 854 204 q 879 108 865 130 q 986 69 905 69 q 1089 107 1064 69 q 1116 262 1116 147 q 1092 396 1116 361 q 991 431 1066 431 q 882 396 910 431 q 854 258 854 361 z "},"‹":{"ha":581,"x_min":96,"x_max":474,"o":"m 209 396 l 474 123 l 418 60 l 96 350 l 96 439 l 411 734 l 473 675 l 209 396 z "},"›":{"ha":581,"x_min":106,"x_max":484,"o":"m 371 401 l 106 673 l 162 736 l 484 447 l 484 357 l 169 63 l 107 121 l 371 401 z "},"⁄":{"ha":809,"x_min":63,"x_max":747,"o":"m 644 1038 l 747 1038 l 164 0 l 63 0 l 644 1038 z "},"€":{"ha":810,"x_min":20,"x_max":767,"o":"m 735 910 q 527 951 613 951 q 396 936 441 951 q 321 888 351 922 q 254 673 267 826 l 644 673 l 644 582 l 46 582 l 46 673 l 130 673 q 220 951 144 865 q 511 1051 309 1051 q 766 1018 671 1051 l 735 910 m 767 31 q 521 -14 682 -14 l 513 -14 q 217 87 307 -14 q 128 364 142 171 l 20 364 l 20 456 l 618 456 l 618 364 l 251 364 q 319 155 262 216 q 517 90 378 90 l 523 90 q 701 118 599 90 q 735 128 724 124 l 767 31 z "},"™":{"ha":1501,"x_min":51,"x_max":1368,"o":"m 252 959 l 51 959 l 51 1038 l 555 1038 l 555 959 l 347 959 l 347 439 l 252 439 l 252 959 m 711 1037 l 833 1037 l 973 605 l 993 524 l 1010 605 l 1149 1037 l 1267 1037 l 1368 438 l 1274 438 l 1208 840 l 1199 943 l 1176 840 l 1040 438 l 943 438 l 808 836 l 779 953 q 765 840 779 953 l 705 438 l 618 438 l 711 1037 z "},"∂":{"ha":926,"x_min":94,"x_max":741,"o":"m 94 446 q 103 570 94 515 q 142 661 113 624 q 374 736 202 736 q 576 689 475 736 q 629 661 606 675 q 507 923 627 815 q 244 1084 433 991 l 300 1179 q 591 987 499 1076 q 715 789 684 899 q 741 536 741 700 l 741 294 q 665 60 739 131 q 404 -14 587 -14 q 142 91 210 -14 q 96 228 103 150 q 94 300 94 265 l 94 446 m 625 572 q 384 635 515 635 q 303 629 336 635 q 249 600 270 623 q 209 417 209 557 l 209 300 q 243 138 209 182 q 393 88 283 88 l 430 88 q 593 146 552 88 q 625 328 625 194 l 625 572 z "},"∏":{"ha":1040,"x_min":160,"x_max":880,"o":"m 160 1038 l 880 1038 l 880 -115 l 766 -115 l 766 939 l 275 939 l 275 -115 l 160 -115 l 160 1038 z "},"∑":{"ha":810,"x_min":62,"x_max":718,"o":"m 370 470 l 72 978 l 72 1038 l 697 1038 l 697 941 l 213 941 l 490 470 l 205 -19 l 718 -19 l 718 -115 l 62 -115 l 62 -57 l 370 470 z "},"−":{"ha":1040,"x_min":142,"x_max":896,"o":"m 142 547 l 896 547 l 896 456 l 142 456 l 142 547 z "},"√":{"ha":1042,"x_min":60,"x_max":982,"o":"m 203 485 l 60 485 l 60 576 l 288 576 l 466 149 l 489 81 l 510 149 l 858 1153 l 982 1153 l 560 0 l 417 0 l 203 485 z "},"∞":{"ha":1156,"x_min":56,"x_max":1099,"o":"m 465 315 q 450 307 465 315 q 397 293 435 299 q 296 287 359 287 q 182 310 233 287 q 104 372 132 332 q 56 578 56 439 q 102 803 56 733 q 303 892 158 892 q 532 811 474 892 q 584 706 563 765 l 591 730 q 759 886 629 863 q 860 892 796 892 q 974 869 924 892 q 1052 807 1024 846 q 1099 600 1099 740 q 1050 376 1099 449 q 852 287 991 287 q 709 305 752 287 q 642 348 667 323 q 606 399 618 372 q 573 479 585 443 q 524 366 554 401 q 465 315 494 331 m 313 389 q 397 395 361 389 q 460 422 433 401 q 528 587 516 464 q 453 745 490 705 q 315 792 410 792 q 165 682 182 792 q 159 606 159 648 l 159 566 q 189 439 159 480 q 313 389 225 389 m 630 602 q 667 501 650 542 q 705 434 683 460 q 840 387 745 387 q 991 495 974 387 q 996 572 996 530 l 996 612 q 967 739 996 697 q 840 790 931 790 q 696 757 740 790 q 630 602 643 716 z "},"∫":{"ha":579,"x_min":52,"x_max":519,"o":"m 75 -215 q 163 -233 132 -233 q 230 -155 230 -233 l 230 1017 q 277 1155 230 1112 q 412 1198 323 1198 q 519 1183 481 1198 l 496 1090 q 408 1107 439 1107 q 341 1029 341 1107 l 341 -142 q 294 -280 341 -237 q 159 -323 247 -323 q 52 -309 90 -323 l 75 -215 z "},"≈":{"ha":1041,"x_min":103,"x_max":938,"o":"m 363 348 q 176 222 267 348 l 109 278 q 241 426 162 381 q 348 458 297 458 q 428 449 399 458 q 484 427 458 440 q 535 398 511 414 q 583 369 559 382 q 684 338 639 338 q 871 465 781 338 l 938 408 q 682 228 846 228 q 513 288 606 228 q 422 337 454 326 q 363 348 391 348 m 357 635 q 170 509 260 635 l 103 566 q 235 713 156 669 q 342 745 291 745 q 422 736 393 745 q 478 714 452 728 q 529 686 505 701 q 577 656 553 670 q 677 626 633 626 q 865 752 774 626 l 932 696 q 676 515 840 515 q 507 575 600 515 q 416 624 448 613 q 357 635 385 635 z "},"≠":{"ha":925,"x_min":128,"x_max":795,"o":"m 337 280 l 128 280 l 128 369 l 375 369 l 452 547 l 128 547 l 128 635 l 490 635 l 576 832 l 670 832 l 584 635 l 795 635 l 795 547 l 546 547 l 468 369 l 795 369 l 795 280 l 429 280 l 346 87 l 254 87 l 337 280 z "},"≤":{"ha":932,"x_min":109,"x_max":805,"o":"m 109 557 l 752 842 l 791 753 l 216 507 l 791 268 l 755 179 l 109 454 l 109 557 m 127 90 l 805 90 l 805 0 l 127 0 l 127 90 z "},"≥":{"ha":932,"x_min":127,"x_max":812,"o":"m 130 268 l 704 515 l 129 753 l 165 842 l 812 568 l 812 465 l 168 179 l 130 268 m 127 90 l 805 90 l 805 0 l 127 0 l 127 90 z "},"◊":{"ha":810,"x_min":101,"x_max":709,"o":"m 101 518 l 334 1038 l 479 1038 l 709 518 l 479 0 l 334 0 l 101 518 m 467 234 l 585 518 l 463 807 l 406 946 l 352 807 l 225 518 l 347 234 l 408 87 l 467 234 z "},"ﬀ":{"ha":1158,"x_min":69,"x_max":1135,"o":"m 975 1069 q 948 1069 975 1069 q 895 1046 922 1069 q 868 957 868 1023 q 893 807 868 890 l 1086 807 l 1086 713 l 892 713 l 892 0 l 783 0 l 783 713 l 314 713 l 314 0 l 205 0 l 205 713 l 69 713 l 69 796 l 203 807 q 186 886 195 825 q 178 990 178 947 q 199 1069 178 1032 q 251 1128 219 1107 q 399 1166 308 1166 q 557 1149 498 1166 l 534 1045 q 398 1067 470 1067 q 291 968 291 1067 q 315 807 291 888 l 781 807 q 764 886 772 825 q 756 974 756 947 q 981 1166 756 1166 q 1135 1149 1063 1166 l 1115 1048 q 975 1069 1027 1069 z "},"ﬁ":{"ha":1042,"x_min":69,"x_max":888,"o":"m 396 1069 q 370 1069 396 1069 q 317 1046 344 1069 q 290 957 290 1023 q 315 807 290 890 l 867 807 l 867 0 l 758 0 l 756 713 l 313 713 l 313 0 l 204 0 l 204 713 l 69 713 l 69 796 l 203 807 q 186 886 194 825 q 178 974 178 947 q 403 1166 178 1166 q 557 1149 484 1166 l 536 1048 q 396 1069 448 1069 m 811 1000 q 753 1013 766 1000 q 732 1071 732 1034 q 737 1124 732 1108 q 750 1149 741 1140 q 800 1165 766 1165 q 848 1162 833 1165 q 872 1149 863 1158 q 888 1096 888 1133 q 885 1043 888 1059 q 872 1017 881 1027 q 811 1000 855 1000 z "},"ﬂ":{"ha":1042,"x_min":69,"x_max":867,"o":"m 396 1069 q 370 1069 396 1069 q 317 1046 344 1069 q 290 957 290 1023 q 315 807 290 890 l 755 807 l 755 1153 l 867 1162 l 867 0 l 756 0 l 755 713 l 313 713 l 313 0 l 204 0 l 204 713 l 69 713 l 69 796 l 203 807 q 186 886 194 825 q 178 974 178 947 q 403 1166 178 1166 q 557 1149 484 1166 l 536 1048 q 396 1069 448 1069 z "}}}
